<?xml version="1.0" encoding="UTF-8" standalone="no"?>
<!DOCTYPE svg PUBLIC "-//W3C//DTD SVG 1.1//EN"
 "http://www.w3.org/Graphics/SVG/1.1/DTD/svg11.dtd">
<!-- Generated by graphviz version 2.38.0 (20140413.2041)
 -->
<!-- Title: controllers_diagram Pages: 1 -->
<svg width="1413pt" height="1222pt"
 viewBox="0.00 0.00 1412.86 1221.94" xmlns="http://www.w3.org/2000/svg" xmlns:xlink="http://www.w3.org/1999/xlink">
<g id="graph0" class="graph" transform="scale(1 1) rotate(0) translate(459.803 590.5)">
<title>controllers_diagram</title>
<polygon fill="white" stroke="none" points="-459.803,631.435 -459.803,-590.5 953.056,-590.5 953.056,631.435 -459.803,631.435"/>
<!-- _diagram_info -->
<g id="node1" class="node"><title>_diagram_info</title>
<text text-anchor="start" x="521.312" y="-572.1" font-family="Times,serif" font-size="13.00">Controllers diagram</text>
<text text-anchor="start" x="521.312" y="-559.1" font-family="Times,serif" font-size="13.00">Date: Aug 09 2014 &#45; 14:25</text>
<text text-anchor="start" x="521.312" y="-546.1" font-family="Times,serif" font-size="13.00">Migration version: 20140626141545</text>
<text text-anchor="start" x="521.312" y="-533.1" font-family="Times,serif" font-size="13.00">Generated by RailRoady 1.1.1</text>
<text text-anchor="start" x="521.312" y="-520.1" font-family="Times,serif" font-size="13.00">http://railroady.prestonlee.com</text>
</g>
<!-- Api::V1::AddressesController -->
<g id="node2" class="node"><title>Api::V1::AddressesController</title>
<path fill="none" stroke="black" d="M-412.734,234.364C-412.734,234.364 -251.975,234.364 -251.975,234.364 -245.975,234.364 -239.975,228.364 -239.975,222.364 -239.975,222.364 -239.975,100.364 -239.975,100.364 -239.975,94.364 -245.975,88.364 -251.975,88.364 -251.975,88.364 -412.734,88.364 -412.734,88.364 -418.734,88.364 -424.734,94.364 -424.734,100.364 -424.734,100.364 -424.734,222.364 -424.734,222.364 -424.734,228.364 -418.734,234.364 -412.734,234.364"/>
<text text-anchor="middle" x="-332.354" y="103.564" font-family="Times,serif" font-size="14.00">Api::V1::AddressesController</text>
<polyline fill="none" stroke="black" points="-424.734,110.364 -239.975,110.364 "/>
<text text-anchor="start" x="-416.734" y="125.564" font-family="Times,serif" font-size="14.00">create</text>
<text text-anchor="start" x="-416.734" y="139.564" font-family="Times,serif" font-size="14.00">index</text>
<text text-anchor="start" x="-416.734" y="153.564" font-family="Times,serif" font-size="14.00">show</text>
<text text-anchor="start" x="-416.734" y="167.564" font-family="Times,serif" font-size="14.00">update</text>
<polyline fill="none" stroke="black" points="-424.734,174.364 -239.975,174.364 "/>
<polyline fill="none" stroke="black" points="-424.734,198.364 -239.975,198.364 "/>
<text text-anchor="start" x="-416.734" y="213.564" font-family="Times,serif" font-size="14.00">_layout</text>
<text text-anchor="start" x="-416.734" y="227.564" font-family="Times,serif" font-size="14.00">address_params</text>
</g>
<!-- Api::V1::BaseController -->
<g id="node3" class="node"><title>Api::V1::BaseController</title>
<path fill="none" stroke="black" d="M-176.89,-38.1761C-176.89,-38.1761 -46.4626,-38.1761 -46.4626,-38.1761 -40.4626,-38.1761 -34.4626,-44.1761 -34.4626,-50.1761 -34.4626,-50.1761 -34.4626,-130.176 -34.4626,-130.176 -34.4626,-136.176 -40.4626,-142.176 -46.4626,-142.176 -46.4626,-142.176 -176.89,-142.176 -176.89,-142.176 -182.89,-142.176 -188.89,-136.176 -188.89,-130.176 -188.89,-130.176 -188.89,-50.1761 -188.89,-50.1761 -188.89,-44.1761 -182.89,-38.1761 -176.89,-38.1761"/>
<text text-anchor="middle" x="-111.676" y="-126.976" font-family="Times,serif" font-size="14.00">Api::V1::BaseController</text>
<polyline fill="none" stroke="black" points="-188.89,-120.176 -34.4626,-120.176 "/>
<text text-anchor="start" x="-180.89" y="-104.976" font-family="Times,serif" font-size="14.00">current_user</text>
<polyline fill="none" stroke="black" points="-188.89,-98.1761 -34.4626,-98.1761 "/>
<polyline fill="none" stroke="black" points="-188.89,-74.1761 -34.4626,-74.1761 "/>
<text text-anchor="start" x="-180.89" y="-58.9761" font-family="Times,serif" font-size="14.00">_layout</text>
<text text-anchor="start" x="-180.89" y="-44.9761" font-family="Times,serif" font-size="14.00">validate_token</text>
</g>
<!-- Api::V1::BaseController&#45;&gt;Api::V1::AddressesController -->
<g id="edge1" class="edge"><title>Api::V1::BaseController&#45;&gt;Api::V1::AddressesController</title>
<path fill="none" stroke="black" d="M-157.401,-38.0568C-189.467,-1.5058 -232.775,47.859 -268.28,88.3284"/>
</g>
<!-- Api::V1::CommentsController -->
<g id="node4" class="node"><title>Api::V1::CommentsController</title>
<path fill="none" stroke="black" d="M-182.389,602.831C-182.389,602.831 -18.5062,602.831 -18.5062,602.831 -12.5062,602.831 -6.50619,596.831 -6.50619,590.831 -6.50619,590.831 -6.50619,468.831 -6.50619,468.831 -6.50619,462.831 -12.5062,456.831 -18.5062,456.831 -18.5062,456.831 -182.389,456.831 -182.389,456.831 -188.389,456.831 -194.389,462.831 -194.389,468.831 -194.389,468.831 -194.389,590.831 -194.389,590.831 -194.389,596.831 -188.389,602.831 -182.389,602.831"/>
<text text-anchor="middle" x="-100.448" y="472.031" font-family="Times,serif" font-size="14.00">Api::V1::CommentsController</text>
<polyline fill="none" stroke="black" points="-194.389,478.831 -6.50619,478.831 "/>
<text text-anchor="start" x="-186.389" y="494.031" font-family="Times,serif" font-size="14.00">create</text>
<text text-anchor="start" x="-186.389" y="508.031" font-family="Times,serif" font-size="14.00">index</text>
<text text-anchor="start" x="-186.389" y="522.031" font-family="Times,serif" font-size="14.00">show</text>
<text text-anchor="start" x="-186.389" y="536.031" font-family="Times,serif" font-size="14.00">update</text>
<polyline fill="none" stroke="black" points="-194.389,542.831 -6.50619,542.831 "/>
<polyline fill="none" stroke="black" points="-194.389,566.831 -6.50619,566.831 "/>
<text text-anchor="start" x="-186.389" y="582.031" font-family="Times,serif" font-size="14.00">_layout</text>
<text text-anchor="start" x="-186.389" y="596.031" font-family="Times,serif" font-size="14.00">comment_params</text>
</g>
<!-- Api::V1::BaseController&#45;&gt;Api::V1::CommentsController -->
<g id="edge3" class="edge"><title>Api::V1::BaseController&#45;&gt;Api::V1::CommentsController</title>
<path fill="none" stroke="black" d="M-124.285,-38.0881C-132.737,-0.405772 -143.093,51.8767 -147.478,98.5193 -158.479,215.514 -163.565,246.514 -147.478,362.919 -143.151,394.233 -134.461,427.939 -125.716,456.807"/>
</g>
<!-- Api::V1::EndorsementRequestsController -->
<g id="node5" class="node"><title>Api::V1::EndorsementRequestsController</title>
<path fill="none" stroke="black" d="M-125.936,-377.228C-125.936,-377.228 101.699,-377.228 101.699,-377.228 107.699,-377.228 113.699,-383.228 113.699,-389.228 113.699,-389.228 113.699,-511.228 113.699,-511.228 113.699,-517.228 107.699,-523.228 101.699,-523.228 101.699,-523.228 -125.936,-523.228 -125.936,-523.228 -131.936,-523.228 -137.936,-517.228 -137.936,-511.228 -137.936,-511.228 -137.936,-389.228 -137.936,-389.228 -137.936,-383.228 -131.936,-377.228 -125.936,-377.228"/>
<text text-anchor="middle" x="-12.1186" y="-508.028" font-family="Times,serif" font-size="14.00">Api::V1::EndorsementRequestsController</text>
<polyline fill="none" stroke="black" points="-137.936,-501.228 113.699,-501.228 "/>
<text text-anchor="start" x="-129.936" y="-486.028" font-family="Times,serif" font-size="14.00">create</text>
<text text-anchor="start" x="-129.936" y="-472.028" font-family="Times,serif" font-size="14.00">index</text>
<text text-anchor="start" x="-129.936" y="-458.028" font-family="Times,serif" font-size="14.00">show</text>
<text text-anchor="start" x="-129.936" y="-444.028" font-family="Times,serif" font-size="14.00">update</text>
<polyline fill="none" stroke="black" points="-137.936,-437.228 113.699,-437.228 "/>
<polyline fill="none" stroke="black" points="-137.936,-413.228 113.699,-413.228 "/>
<text text-anchor="start" x="-129.936" y="-398.028" font-family="Times,serif" font-size="14.00">_layout</text>
<text text-anchor="start" x="-129.936" y="-384.028" font-family="Times,serif" font-size="14.00">endorsement_request_params</text>
</g>
<!-- Api::V1::BaseController&#45;&gt;Api::V1::EndorsementRequestsController -->
<g id="edge4" class="edge"><title>Api::V1::BaseController&#45;&gt;Api::V1::EndorsementRequestsController</title>
<path fill="none" stroke="black" d="M-97.1999,-142.531C-80.1311,-204.26 -51.6531,-307.252 -32.3938,-376.903"/>
</g>
<!-- Api::V1::PackagesController -->
<g id="node6" class="node"><title>Api::V1::PackagesController</title>
<path fill="none" stroke="black" d="M48.5321,145.224C48.5321,145.224 203.836,145.224 203.836,145.224 209.836,145.224 215.836,139.224 215.836,133.224 215.836,133.224 215.836,-2.77617 215.836,-2.77617 215.836,-8.77617 209.836,-14.7762 203.836,-14.7762 203.836,-14.7762 48.5321,-14.7762 48.5321,-14.7762 42.5321,-14.7762 36.5321,-8.77617 36.5321,-2.77617 36.5321,-2.77617 36.5321,133.224 36.5321,133.224 36.5321,139.224 42.5321,145.224 48.5321,145.224"/>
<text text-anchor="middle" x="126.184" y="0.423827" font-family="Times,serif" font-size="14.00">Api::V1::PackagesController</text>
<polyline fill="none" stroke="black" points="36.5321,7.22383 215.836,7.22383 "/>
<text text-anchor="start" x="44.5321" y="22.4238" font-family="Times,serif" font-size="14.00">create</text>
<text text-anchor="start" x="44.5321" y="36.4238" font-family="Times,serif" font-size="14.00">destroy</text>
<text text-anchor="start" x="44.5321" y="50.4238" font-family="Times,serif" font-size="14.00">index</text>
<text text-anchor="start" x="44.5321" y="64.4238" font-family="Times,serif" font-size="14.00">show</text>
<text text-anchor="start" x="44.5321" y="78.4238" font-family="Times,serif" font-size="14.00">update</text>
<polyline fill="none" stroke="black" points="36.5321,85.2238 215.836,85.2238 "/>
<polyline fill="none" stroke="black" points="36.5321,109.224 215.836,109.224 "/>
<text text-anchor="start" x="44.5321" y="124.424" font-family="Times,serif" font-size="14.00">_layout</text>
<text text-anchor="start" x="44.5321" y="138.424" font-family="Times,serif" font-size="14.00">package_params</text>
</g>
<!-- Api::V1::BaseController&#45;&gt;Api::V1::PackagesController -->
<g id="edge5" class="edge"><title>Api::V1::BaseController&#45;&gt;Api::V1::PackagesController</title>
<path fill="none" stroke="black" d="M-34.45,-39.7222C-11.7961,-24.9219 13.1691,-8.61146 36.5279,6.64939"/>
</g>
<!-- Api::V1::PartiesController -->
<g id="node7" class="node"><title>Api::V1::PartiesController</title>
<path fill="none" stroke="black" d="M-386.188,-285.376C-386.188,-285.376 -244.87,-285.376 -244.87,-285.376 -238.87,-285.376 -232.87,-291.376 -232.87,-297.376 -232.87,-297.376 -232.87,-573.376 -232.87,-573.376 -232.87,-579.376 -238.87,-585.376 -244.87,-585.376 -244.87,-585.376 -386.188,-585.376 -386.188,-585.376 -392.188,-585.376 -398.188,-579.376 -398.188,-573.376 -398.188,-573.376 -398.188,-297.376 -398.188,-297.376 -398.188,-291.376 -392.188,-285.376 -386.188,-285.376"/>
<text text-anchor="middle" x="-315.529" y="-570.176" font-family="Times,serif" font-size="14.00">Api::V1::PartiesController</text>
<polyline fill="none" stroke="black" points="-398.188,-563.376 -232.87,-563.376 "/>
<text text-anchor="start" x="-390.188" y="-548.176" font-family="Times,serif" font-size="14.00">add_package</text>
<text text-anchor="start" x="-390.188" y="-534.176" font-family="Times,serif" font-size="14.00">by_attendee</text>
<text text-anchor="start" x="-390.188" y="-520.176" font-family="Times,serif" font-size="14.00">by_organizer</text>
<text text-anchor="start" x="-390.188" y="-506.176" font-family="Times,serif" font-size="14.00">create</text>
<text text-anchor="start" x="-390.188" y="-492.176" font-family="Times,serif" font-size="14.00">destroy</text>
<text text-anchor="start" x="-390.188" y="-478.176" font-family="Times,serif" font-size="14.00">index</text>
<text text-anchor="start" x="-390.188" y="-464.176" font-family="Times,serif" font-size="14.00">invite</text>
<text text-anchor="start" x="-390.188" y="-450.176" font-family="Times,serif" font-size="14.00">remove_package</text>
<text text-anchor="start" x="-390.188" y="-436.176" font-family="Times,serif" font-size="14.00">rsvp</text>
<text text-anchor="start" x="-390.188" y="-422.176" font-family="Times,serif" font-size="14.00">search</text>
<text text-anchor="start" x="-390.188" y="-408.176" font-family="Times,serif" font-size="14.00">show</text>
<text text-anchor="start" x="-390.188" y="-394.176" font-family="Times,serif" font-size="14.00">unrsvp</text>
<text text-anchor="start" x="-390.188" y="-380.176" font-family="Times,serif" font-size="14.00">update</text>
<polyline fill="none" stroke="black" points="-398.188,-373.376 -232.87,-373.376 "/>
<polyline fill="none" stroke="black" points="-398.188,-349.376 -232.87,-349.376 "/>
<text text-anchor="start" x="-390.188" y="-334.176" font-family="Times,serif" font-size="14.00">_layout</text>
<text text-anchor="start" x="-390.188" y="-320.176" font-family="Times,serif" font-size="14.00">party_params</text>
<text text-anchor="start" x="-390.188" y="-306.176" font-family="Times,serif" font-size="14.00">rsvp_params</text>
<text text-anchor="start" x="-390.188" y="-292.176" font-family="Times,serif" font-size="14.00">search_parties</text>
</g>
<!-- Api::V1::BaseController&#45;&gt;Api::V1::PartiesController -->
<g id="edge6" class="edge"><title>Api::V1::BaseController&#45;&gt;Api::V1::PartiesController</title>
<path fill="none" stroke="black" d="M-142.416,-142.23C-166.385,-182.819 -200.845,-241.173 -232.719,-295.146"/>
</g>
<!-- Api::V1::PartyInvitationsController -->
<g id="node8" class="node"><title>Api::V1::PartyInvitationsController</title>
<path fill="none" stroke="black" d="M-443.803,547.865C-443.803,547.865 -251.155,547.865 -251.155,547.865 -245.155,547.865 -239.155,541.865 -239.155,535.865 -239.155,535.865 -239.155,427.865 -239.155,427.865 -239.155,421.865 -245.155,415.865 -251.155,415.865 -251.155,415.865 -443.803,415.865 -443.803,415.865 -449.803,415.865 -455.803,421.865 -455.803,427.865 -455.803,427.865 -455.803,535.865 -455.803,535.865 -455.803,541.865 -449.803,547.865 -443.803,547.865"/>
<text text-anchor="middle" x="-347.479" y="431.065" font-family="Times,serif" font-size="14.00">Api::V1::PartyInvitationsController</text>
<polyline fill="none" stroke="black" points="-455.803,437.865 -239.155,437.865 "/>
<text text-anchor="start" x="-447.803" y="453.065" font-family="Times,serif" font-size="14.00">accept</text>
<text text-anchor="start" x="-447.803" y="467.065" font-family="Times,serif" font-size="14.00">index</text>
<text text-anchor="start" x="-447.803" y="481.065" font-family="Times,serif" font-size="14.00">show</text>
<polyline fill="none" stroke="black" points="-455.803,487.865 -239.155,487.865 "/>
<polyline fill="none" stroke="black" points="-455.803,511.865 -239.155,511.865 "/>
<text text-anchor="start" x="-447.803" y="527.065" font-family="Times,serif" font-size="14.00">_layout</text>
<text text-anchor="start" x="-447.803" y="541.065" font-family="Times,serif" font-size="14.00">accept_params</text>
</g>
<!-- Api::V1::BaseController&#45;&gt;Api::V1::PartyInvitationsController -->
<g id="edge7" class="edge"><title>Api::V1::BaseController&#45;&gt;Api::V1::PartyInvitationsController</title>
<path fill="none" stroke="black" d="M-130.429,-38.1356C-154.094,26.8338 -196.577,141.16 -236.775,237.564 -262.177,298.486 -293.39,366.843 -316.19,415.723"/>
</g>
<!-- Api::V1::SportsController -->
<g id="node12" class="node"><title>Api::V1::SportsController</title>
<path fill="none" stroke="black" d="M277.122,296.249C277.122,296.249 416.122,296.249 416.122,296.249 422.122,296.249 428.122,290.249 428.122,284.249 428.122,284.249 428.122,120.249 428.122,120.249 428.122,114.249 422.122,108.249 416.122,108.249 416.122,108.249 277.122,108.249 277.122,108.249 271.122,108.249 265.122,114.249 265.122,120.249 265.122,120.249 265.122,284.249 265.122,284.249 265.122,290.249 271.122,296.249 277.122,296.249"/>
<text text-anchor="middle" x="346.622" y="123.449" font-family="Times,serif" font-size="14.00">Api::V1::SportsController</text>
<polyline fill="none" stroke="black" points="265.122,130.249 428.122,130.249 "/>
<text text-anchor="start" x="273.122" y="145.449" font-family="Times,serif" font-size="14.00">create</text>
<text text-anchor="start" x="273.122" y="159.449" font-family="Times,serif" font-size="14.00">destroy</text>
<text text-anchor="start" x="273.122" y="173.449" font-family="Times,serif" font-size="14.00">index</text>
<text text-anchor="start" x="273.122" y="187.449" font-family="Times,serif" font-size="14.00">show</text>
<text text-anchor="start" x="273.122" y="201.449" font-family="Times,serif" font-size="14.00">subscribe_user</text>
<text text-anchor="start" x="273.122" y="215.449" font-family="Times,serif" font-size="14.00">unsubscribe_user</text>
<text text-anchor="start" x="273.122" y="229.449" font-family="Times,serif" font-size="14.00">update</text>
<polyline fill="none" stroke="black" points="265.122,236.249 428.122,236.249 "/>
<polyline fill="none" stroke="black" points="265.122,260.249 428.122,260.249 "/>
<text text-anchor="start" x="273.122" y="275.449" font-family="Times,serif" font-size="14.00">_layout</text>
<text text-anchor="start" x="273.122" y="289.449" font-family="Times,serif" font-size="14.00">sport_params</text>
</g>
<!-- Api::V1::BaseController&#45;&gt;Api::V1::SportsController -->
<g id="edge11" class="edge"><title>Api::V1::BaseController&#45;&gt;Api::V1::SportsController</title>
<path fill="none" stroke="black" d="M-34.3057,-90.5008C37.6863,-87.0975 144.738,-72.1846 219.036,-17.9762 261.781,13.2112 292.454,63.4091 312.995,108.008"/>
</g>
<!-- Api::V1::TeamsController -->
<g id="node13" class="node"><title>Api::V1::TeamsController</title>
<path fill="none" stroke="black" d="M-132.278,359.719C-132.278,359.719 7.27543,359.719 7.27543,359.719 13.2754,359.719 19.2754,353.719 19.2754,347.719 19.2754,347.719 19.2754,113.719 19.2754,113.719 19.2754,107.719 13.2754,101.719 7.27543,101.719 7.27543,101.719 -132.278,101.719 -132.278,101.719 -138.278,101.719 -144.278,107.719 -144.278,113.719 -144.278,113.719 -144.278,347.719 -144.278,347.719 -144.278,353.719 -138.278,359.719 -132.278,359.719"/>
<text text-anchor="middle" x="-62.5014" y="116.919" font-family="Times,serif" font-size="14.00">Api::V1::TeamsController</text>
<polyline fill="none" stroke="black" points="-144.278,123.719 19.2754,123.719 "/>
<text text-anchor="start" x="-136.278" y="138.919" font-family="Times,serif" font-size="14.00">add_admin</text>
<text text-anchor="start" x="-136.278" y="152.919" font-family="Times,serif" font-size="14.00">add_host</text>
<text text-anchor="start" x="-136.278" y="166.919" font-family="Times,serif" font-size="14.00">create</text>
<text text-anchor="start" x="-136.278" y="180.919" font-family="Times,serif" font-size="14.00">destroy</text>
<text text-anchor="start" x="-136.278" y="194.919" font-family="Times,serif" font-size="14.00">index</text>
<text text-anchor="start" x="-136.278" y="208.919" font-family="Times,serif" font-size="14.00">remove_admin</text>
<text text-anchor="start" x="-136.278" y="222.919" font-family="Times,serif" font-size="14.00">remove_host</text>
<text text-anchor="start" x="-136.278" y="236.919" font-family="Times,serif" font-size="14.00">show</text>
<text text-anchor="start" x="-136.278" y="250.919" font-family="Times,serif" font-size="14.00">subscribe_user</text>
<text text-anchor="start" x="-136.278" y="264.919" font-family="Times,serif" font-size="14.00">unsubscribe_user</text>
<text text-anchor="start" x="-136.278" y="278.919" font-family="Times,serif" font-size="14.00">update</text>
<polyline fill="none" stroke="black" points="-144.278,285.719 19.2754,285.719 "/>
<polyline fill="none" stroke="black" points="-144.278,309.719 19.2754,309.719 "/>
<text text-anchor="start" x="-136.278" y="324.919" font-family="Times,serif" font-size="14.00">_layout</text>
<text text-anchor="start" x="-136.278" y="338.919" font-family="Times,serif" font-size="14.00">subscribe_params</text>
<text text-anchor="start" x="-136.278" y="352.919" font-family="Times,serif" font-size="14.00">team_params</text>
</g>
<!-- Api::V1::BaseController&#45;&gt;Api::V1::TeamsController -->
<g id="edge12" class="edge"><title>Api::V1::BaseController&#45;&gt;Api::V1::TeamsController</title>
<path fill="none" stroke="black" d="M-103.666,-37.9045C-97.8693,-0.0763965 -89.7713,52.768 -82.29,101.588"/>
</g>
<!-- Api::V1::UploadsController -->
<g id="node14" class="node"><title>Api::V1::UploadsController</title>
<path fill="none" stroke="black" d="M285.362,555.991C285.362,555.991 435.238,555.991 435.238,555.991 441.238,555.991 447.238,549.991 447.238,543.991 447.238,543.991 447.238,477.991 447.238,477.991 447.238,471.991 441.238,465.991 435.238,465.991 435.238,465.991 285.362,465.991 285.362,465.991 279.362,465.991 273.362,471.991 273.362,477.991 273.362,477.991 273.362,543.991 273.362,543.991 273.362,549.991 279.362,555.991 285.362,555.991"/>
<text text-anchor="middle" x="360.3" y="481.191" font-family="Times,serif" font-size="14.00">Api::V1::UploadsController</text>
<polyline fill="none" stroke="black" points="273.362,487.991 447.238,487.991 "/>
<text text-anchor="start" x="281.362" y="503.191" font-family="Times,serif" font-size="14.00">index</text>
<polyline fill="none" stroke="black" points="273.362,509.991 447.238,509.991 "/>
<polyline fill="none" stroke="black" points="273.362,533.991 447.238,533.991 "/>
<text text-anchor="start" x="281.362" y="549.191" font-family="Times,serif" font-size="14.00">_layout</text>
</g>
<!-- Api::V1::BaseController&#45;&gt;Api::V1::UploadsController -->
<g id="edge13" class="edge"><title>Api::V1::BaseController&#45;&gt;Api::V1::UploadsController</title>
<path fill="none" stroke="black" d="M-65.7696,-38.0176C-36.3697,-1.97923 0.297666,48.3354 22.4754,98.5193 31.6506,119.281 21.5023,129.052 33.3321,148.424 87.0308,236.359 142.697,219.801 212.34,295.735 261.536,349.375 307.203,420.366 334.429,465.868"/>
</g>
<!-- Api::V1::UsersController -->
<g id="node15" class="node"><title>Api::V1::UsersController</title>
<path fill="none" stroke="black" d="M58.1609,626.935C58.1609,626.935 197.14,626.935 197.14,626.935 203.14,626.935 209.14,620.935 209.14,614.935 209.14,614.935 209.14,310.935 209.14,310.935 209.14,304.935 203.14,298.935 197.14,298.935 197.14,298.935 58.1609,298.935 58.1609,298.935 52.1609,298.935 46.1609,304.935 46.1609,310.935 46.1609,310.935 46.1609,614.935 46.1609,614.935 46.1609,620.935 52.1609,626.935 58.1609,626.935"/>
<text text-anchor="middle" x="127.651" y="314.135" font-family="Times,serif" font-size="14.00">Api::V1::UsersController</text>
<polyline fill="none" stroke="black" points="46.1609,320.935 209.14,320.935 "/>
<text text-anchor="start" x="54.1609" y="336.135" font-family="Times,serif" font-size="14.00">current_password</text>
<text text-anchor="start" x="54.1609" y="350.135" font-family="Times,serif" font-size="14.00">follow_user</text>
<text text-anchor="start" x="54.1609" y="364.135" font-family="Times,serif" font-size="14.00">index</text>
<text text-anchor="start" x="54.1609" y="378.135" font-family="Times,serif" font-size="14.00">password</text>
<text text-anchor="start" x="54.1609" y="392.135" font-family="Times,serif" font-size="14.00">password_confirmation</text>
<text text-anchor="start" x="54.1609" y="406.135" font-family="Times,serif" font-size="14.00">password_confirmation=</text>
<text text-anchor="start" x="54.1609" y="420.135" font-family="Times,serif" font-size="14.00">search_users</text>
<text text-anchor="start" x="54.1609" y="434.135" font-family="Times,serif" font-size="14.00">show</text>
<text text-anchor="start" x="54.1609" y="448.135" font-family="Times,serif" font-size="14.00">unfollow_user</text>
<text text-anchor="start" x="54.1609" y="462.135" font-family="Times,serif" font-size="14.00">update</text>
<polyline fill="none" stroke="black" points="46.1609,468.935 209.14,468.935 "/>
<polyline fill="none" stroke="black" points="46.1609,492.935 209.14,492.935 "/>
<text text-anchor="start" x="54.1609" y="508.135" font-family="Times,serif" font-size="14.00">_layout</text>
<text text-anchor="start" x="54.1609" y="522.135" font-family="Times,serif" font-size="14.00">are_fans_of</text>
<text text-anchor="start" x="54.1609" y="536.135" font-family="Times,serif" font-size="14.00">changing_password</text>
<text text-anchor="start" x="54.1609" y="550.135" font-family="Times,serif" font-size="14.00">have_name_like</text>
<text text-anchor="start" x="54.1609" y="564.135" font-family="Times,serif" font-size="14.00">update_with_password</text>
<text text-anchor="start" x="54.1609" y="578.135" font-family="Times,serif" font-size="14.00">update_without_password</text>
<text text-anchor="start" x="54.1609" y="592.135" font-family="Times,serif" font-size="14.00">user_params</text>
<text text-anchor="start" x="54.1609" y="606.135" font-family="Times,serif" font-size="14.00">users_in_the_area</text>
<text text-anchor="start" x="54.1609" y="620.135" font-family="Times,serif" font-size="14.00">valid_password?</text>
</g>
<!-- Api::V1::BaseController&#45;&gt;Api::V1::UsersController -->
<g id="edge14" class="edge"><title>Api::V1::BaseController&#45;&gt;Api::V1::UsersController</title>
<path fill="none" stroke="black" d="M-65.7696,-38.0176C-36.3697,-1.97923 0.297666,48.3354 22.4754,98.5193 31.6506,119.281 27.6552,126.447 33.3321,148.424 46.0208,197.546 61.2867,250.526 75.8042,298.745"/>
</g>
<!-- Api::V1::VenuesController -->
<g id="node16" class="node"><title>Api::V1::VenuesController</title>
<path fill="none" stroke="black" d="M-421.287,-36.5764C-421.287,-36.5764 -277.639,-36.5764 -277.639,-36.5764 -271.639,-36.5764 -265.639,-42.5764 -265.639,-48.5764 -265.639,-48.5764 -265.639,-226.576 -265.639,-226.576 -265.639,-232.576 -271.639,-238.576 -277.639,-238.576 -277.639,-238.576 -421.287,-238.576 -421.287,-238.576 -427.287,-238.576 -433.287,-232.576 -433.287,-226.576 -433.287,-226.576 -433.287,-48.5764 -433.287,-48.5764 -433.287,-42.5764 -427.287,-36.5764 -421.287,-36.5764"/>
<text text-anchor="middle" x="-349.463" y="-223.376" font-family="Times,serif" font-size="14.00">Api::V1::VenuesController</text>
<polyline fill="none" stroke="black" points="-433.287,-216.576 -265.639,-216.576 "/>
<text text-anchor="start" x="-425.287" y="-201.376" font-family="Times,serif" font-size="14.00">add_manager</text>
<text text-anchor="start" x="-425.287" y="-187.376" font-family="Times,serif" font-size="14.00">create</text>
<text text-anchor="start" x="-425.287" y="-173.376" font-family="Times,serif" font-size="14.00">destroy</text>
<text text-anchor="start" x="-425.287" y="-159.376" font-family="Times,serif" font-size="14.00">index</text>
<text text-anchor="start" x="-425.287" y="-145.376" font-family="Times,serif" font-size="14.00">packages</text>
<text text-anchor="start" x="-425.287" y="-131.376" font-family="Times,serif" font-size="14.00">remove_manager</text>
<text text-anchor="start" x="-425.287" y="-117.376" font-family="Times,serif" font-size="14.00">show</text>
<text text-anchor="start" x="-425.287" y="-103.376" font-family="Times,serif" font-size="14.00">update</text>
<polyline fill="none" stroke="black" points="-433.287,-96.5764 -265.639,-96.5764 "/>
<polyline fill="none" stroke="black" points="-433.287,-72.5764 -265.639,-72.5764 "/>
<text text-anchor="start" x="-425.287" y="-57.3764" font-family="Times,serif" font-size="14.00">_layout</text>
<text text-anchor="start" x="-425.287" y="-43.3764" font-family="Times,serif" font-size="14.00">venue_params</text>
</g>
<!-- Api::V1::BaseController&#45;&gt;Api::V1::VenuesController -->
<g id="edge15" class="edge"><title>Api::V1::BaseController&#45;&gt;Api::V1::VenuesController</title>
<path fill="none" stroke="black" d="M-189.208,-105.631C-213.603,-110.494 -240.652,-115.886 -265.474,-120.834"/>
</g>
<!-- Api::V1::VouchersController -->
<g id="node17" class="node"><title>Api::V1::VouchersController</title>
<path fill="none" stroke="black" d="M289.504,-24.4107C289.504,-24.4107 444.562,-24.4107 444.562,-24.4107 450.562,-24.4107 456.562,-30.4107 456.562,-36.4107 456.562,-36.4107 456.562,-186.411 456.562,-186.411 456.562,-192.411 450.562,-198.411 444.562,-198.411 444.562,-198.411 289.504,-198.411 289.504,-198.411 283.504,-198.411 277.504,-192.411 277.504,-186.411 277.504,-186.411 277.504,-36.4107 277.504,-36.4107 277.504,-30.4107 283.504,-24.4107 289.504,-24.4107"/>
<text text-anchor="middle" x="367.033" y="-183.211" font-family="Times,serif" font-size="14.00">Api::V1::VouchersController</text>
<polyline fill="none" stroke="black" points="277.504,-176.411 456.562,-176.411 "/>
<text text-anchor="start" x="285.504" y="-161.211" font-family="Times,serif" font-size="14.00">by_user</text>
<text text-anchor="start" x="285.504" y="-147.211" font-family="Times,serif" font-size="14.00">create</text>
<text text-anchor="start" x="285.504" y="-133.211" font-family="Times,serif" font-size="14.00">index</text>
<text text-anchor="start" x="285.504" y="-119.211" font-family="Times,serif" font-size="14.00">redeem</text>
<text text-anchor="start" x="285.504" y="-105.211" font-family="Times,serif" font-size="14.00">show</text>
<text text-anchor="start" x="285.504" y="-91.2107" font-family="Times,serif" font-size="14.00">update</text>
<polyline fill="none" stroke="black" points="277.504,-84.4107 456.562,-84.4107 "/>
<polyline fill="none" stroke="black" points="277.504,-60.4107 456.562,-60.4107 "/>
<text text-anchor="start" x="285.504" y="-45.2107" font-family="Times,serif" font-size="14.00">_layout</text>
<text text-anchor="start" x="285.504" y="-31.2107" font-family="Times,serif" font-size="14.00">voucher_params</text>
</g>
<!-- Api::V1::BaseController&#45;&gt;Api::V1::VouchersController -->
<g id="edge16" class="edge"><title>Api::V1::BaseController&#45;&gt;Api::V1::VouchersController</title>
<path fill="none" stroke="black" d="M-34.2315,-93.6114C50.9759,-97.391 187.718,-103.457 277.472,-107.438"/>
</g>
<!-- Api::V1::PasswordsController -->
<g id="node9" class="node"><title>Api::V1::PasswordsController</title>
<path fill="none" stroke="black" d="M524.736,227.68C524.736,227.68 687.067,227.68 687.067,227.68 693.067,227.68 699.067,221.68 699.067,215.68 699.067,215.68 699.067,135.68 699.067,135.68 699.067,129.68 693.067,123.68 687.067,123.68 687.067,123.68 524.736,123.68 524.736,123.68 518.736,123.68 512.736,129.68 512.736,135.68 512.736,135.68 512.736,215.68 512.736,215.68 512.736,221.68 518.736,227.68 524.736,227.68"/>
<text text-anchor="middle" x="605.901" y="138.88" font-family="Times,serif" font-size="14.00">Api::V1::PasswordsController</text>
<polyline fill="none" stroke="black" points="512.736,145.68 699.067,145.68 "/>
<text text-anchor="start" x="520.736" y="160.88" font-family="Times,serif" font-size="14.00">create</text>
<text text-anchor="start" x="520.736" y="174.88" font-family="Times,serif" font-size="14.00">update</text>
<polyline fill="none" stroke="black" points="512.736,181.68 699.067,181.68 "/>
<polyline fill="none" stroke="black" points="512.736,205.68 699.067,205.68 "/>
<text text-anchor="start" x="520.736" y="220.88" font-family="Times,serif" font-size="14.00">_layout</text>
</g>
<!-- Api::V1::RegistrationsController -->
<g id="node10" class="node"><title>Api::V1::RegistrationsController</title>
<path fill="none" stroke="black" d="M467.907,-285.326C467.907,-285.326 645.003,-285.326 645.003,-285.326 651.003,-285.326 657.003,-291.326 657.003,-297.326 657.003,-297.326 657.003,-433.326 657.003,-433.326 657.003,-439.326 651.003,-445.326 645.003,-445.326 645.003,-445.326 467.907,-445.326 467.907,-445.326 461.907,-445.326 455.907,-439.326 455.907,-433.326 455.907,-433.326 455.907,-297.326 455.907,-297.326 455.907,-291.326 461.907,-285.326 467.907,-285.326"/>
<text text-anchor="middle" x="556.455" y="-430.126" font-family="Times,serif" font-size="14.00">Api::V1::RegistrationsController</text>
<polyline fill="none" stroke="black" points="455.907,-423.326 657.003,-423.326 "/>
<text text-anchor="start" x="463.907" y="-408.126" font-family="Times,serif" font-size="14.00">create</text>
<text text-anchor="start" x="463.907" y="-394.126" font-family="Times,serif" font-size="14.00">facebook_params</text>
<polyline fill="none" stroke="black" points="455.907,-387.326 657.003,-387.326 "/>
<polyline fill="none" stroke="black" points="455.907,-363.326 657.003,-363.326 "/>
<text text-anchor="start" x="463.907" y="-348.126" font-family="Times,serif" font-size="14.00">_layout</text>
<text text-anchor="start" x="463.907" y="-334.126" font-family="Times,serif" font-size="14.00">configure_permitted_parameters</text>
<text text-anchor="start" x="463.907" y="-320.126" font-family="Times,serif" font-size="14.00">creating_facebook_user?</text>
<text text-anchor="start" x="463.907" y="-306.126" font-family="Times,serif" font-size="14.00">set_facebook_user_password</text>
<text text-anchor="start" x="463.907" y="-292.126" font-family="Times,serif" font-size="14.00">sign_up_params</text>
</g>
<!-- Api::V1::SessionsController -->
<g id="node11" class="node"><title>Api::V1::SessionsController</title>
<path fill="none" stroke="black" d="M524.938,512.52C524.938,512.52 676.386,512.52 676.386,512.52 682.386,512.52 688.386,506.52 688.386,500.52 688.386,500.52 688.386,322.52 688.386,322.52 688.386,316.52 682.386,310.52 676.386,310.52 676.386,310.52 524.938,310.52 524.938,310.52 518.938,310.52 512.938,316.52 512.938,322.52 512.938,322.52 512.938,500.52 512.938,500.52 512.938,506.52 518.938,512.52 524.938,512.52"/>
<text text-anchor="middle" x="600.662" y="325.72" font-family="Times,serif" font-size="14.00">Api::V1::SessionsController</text>
<polyline fill="none" stroke="black" points="512.938,332.52 688.386,332.52 "/>
<text text-anchor="start" x="520.938" y="347.72" font-family="Times,serif" font-size="14.00">create</text>
<text text-anchor="start" x="520.938" y="361.72" font-family="Times,serif" font-size="14.00">destroy</text>
<polyline fill="none" stroke="black" points="512.938,368.52 688.386,368.52 "/>
<polyline fill="none" stroke="black" points="512.938,392.52 688.386,392.52 "/>
<text text-anchor="start" x="520.938" y="407.72" font-family="Times,serif" font-size="14.00">_layout</text>
<text text-anchor="start" x="520.938" y="421.72" font-family="Times,serif" font-size="14.00">invalid_credentials</text>
<text text-anchor="start" x="520.938" y="435.72" font-family="Times,serif" font-size="14.00">missing_params</text>
<text text-anchor="start" x="520.938" y="449.72" font-family="Times,serif" font-size="14.00">remember_token</text>
<text text-anchor="start" x="520.938" y="463.72" font-family="Times,serif" font-size="14.00">unconfirmed</text>
<text text-anchor="start" x="520.938" y="477.72" font-family="Times,serif" font-size="14.00">user_from_credentials</text>
<text text-anchor="start" x="520.938" y="491.72" font-family="Times,serif" font-size="14.00">user_from_facebook</text>
<text text-anchor="start" x="520.938" y="505.72" font-family="Times,serif" font-size="14.00">user_from_remember_token</text>
</g>
<!-- ApplicationController -->
<g id="node18" class="node"><title>ApplicationController</title>
<path fill="none" stroke="black" d="M30.2739,-138.475C30.2739,-138.475 197.205,-138.475 197.205,-138.475 203.205,-138.475 209.205,-144.475 209.205,-150.475 209.205,-150.475 209.205,-272.475 209.205,-272.475 209.205,-278.475 203.205,-284.475 197.205,-284.475 197.205,-284.475 30.2739,-284.475 30.2739,-284.475 24.2739,-284.475 18.2739,-278.475 18.2739,-272.475 18.2739,-272.475 18.2739,-150.475 18.2739,-150.475 18.2739,-144.475 24.2739,-138.475 30.2739,-138.475"/>
<text text-anchor="middle" x="113.74" y="-269.275" font-family="Times,serif" font-size="14.00">ApplicationController</text>
<polyline fill="none" stroke="black" points="18.2739,-262.475 209.205,-262.475 "/>
<text text-anchor="start" x="26.2739" y="-247.275" font-family="Times,serif" font-size="14.00">ssl_configured?</text>
<polyline fill="none" stroke="black" points="18.2739,-240.475 209.205,-240.475 "/>
<polyline fill="none" stroke="black" points="18.2739,-216.475 209.205,-216.475 "/>
<text text-anchor="start" x="26.2739" y="-201.275" font-family="Times,serif" font-size="14.00">_layout</text>
<text text-anchor="start" x="26.2739" y="-187.275" font-family="Times,serif" font-size="14.00">after_sign_out_path_for</text>
<text text-anchor="start" x="26.2739" y="-173.275" font-family="Times,serif" font-size="14.00">authenticate_user_from_token!</text>
<text text-anchor="start" x="26.2739" y="-159.275" font-family="Times,serif" font-size="14.00">callback_authenticate_tenant</text>
<text text-anchor="start" x="26.2739" y="-145.275" font-family="Times,serif" font-size="14.00">set_current_tenant</text>
</g>
<!-- ApplicationController&#45;&gt;Api::V1::BaseController -->
<g id="edge2" class="edge"><title>ApplicationController&#45;&gt;Api::V1::BaseController</title>
<path fill="none" stroke="black" d="M18.1429,-160.033C0.623744,-150.606 -17.4602,-140.875 -34.3622,-131.78"/>
</g>
<!-- HomeController -->
<g id="node19" class="node"><title>HomeController</title>
<path fill="none" stroke="black" d="M286.436,-373.817C286.436,-373.817 370.195,-373.817 370.195,-373.817 376.195,-373.817 382.195,-379.817 382.195,-385.817 382.195,-385.817 382.195,-493.817 382.195,-493.817 382.195,-499.817 376.195,-505.817 370.195,-505.817 370.195,-505.817 286.436,-505.817 286.436,-505.817 280.436,-505.817 274.436,-499.817 274.436,-493.817 274.436,-493.817 274.436,-385.817 274.436,-385.817 274.436,-379.817 280.436,-373.817 286.436,-373.817"/>
<text text-anchor="middle" x="328.316" y="-490.617" font-family="Times,serif" font-size="14.00">HomeController</text>
<polyline fill="none" stroke="black" points="274.436,-483.817 382.195,-483.817 "/>
<text text-anchor="start" x="282.436" y="-468.617" font-family="Times,serif" font-size="14.00">index</text>
<text text-anchor="start" x="282.436" y="-454.617" font-family="Times,serif" font-size="14.00">privacy</text>
<text text-anchor="start" x="282.436" y="-440.617" font-family="Times,serif" font-size="14.00">terms</text>
<text text-anchor="start" x="282.436" y="-426.617" font-family="Times,serif" font-size="14.00">welcome</text>
<polyline fill="none" stroke="black" points="274.436,-419.817 382.195,-419.817 "/>
<polyline fill="none" stroke="black" points="274.436,-395.817 382.195,-395.817 "/>
<text text-anchor="start" x="282.436" y="-380.617" font-family="Times,serif" font-size="14.00">_layout</text>
</g>
<!-- ApplicationController&#45;&gt;HomeController -->
<g id="edge17" class="edge"><title>ApplicationController&#45;&gt;HomeController</title>
<path fill="none" stroke="black" d="M182.518,-284.666C212.183,-316.234 246.377,-352.622 274.192,-382.221"/>
</g>
<!-- Devise::PasswordsController -->
<g id="node20" class="node"><title>Devise::PasswordsController</title>
<ellipse fill="none" stroke="black" cx="835.786" cy="175.681" rx="113.041" ry="18"/>
<text text-anchor="middle" x="835.786" y="179.881" font-family="Times,serif" font-size="14.00">Devise::PasswordsController</text>
</g>
<!-- Devise::PasswordsController&#45;&gt;Api::V1::PasswordsController -->
<g id="edge8" class="edge"><title>Devise::PasswordsController&#45;&gt;Api::V1::PasswordsController</title>
<path fill="none" stroke="black" d="M722.191,175.68C714.499,175.68 706.798,175.68 699.228,175.68"/>
</g>
<!-- Devise::RegistrationsController -->
<g id="node21" class="node"><title>Devise::RegistrationsController</title>
<ellipse fill="none" stroke="black" cx="799.487" cy="-365.313" rx="122.695" ry="18"/>
<text text-anchor="middle" x="799.487" y="-361.113" font-family="Times,serif" font-size="14.00">Devise::RegistrationsController</text>
</g>
<!-- Devise::RegistrationsController&#45;&gt;Api::V1::RegistrationsController -->
<g id="edge9" class="edge"><title>Devise::RegistrationsController&#45;&gt;Api::V1::RegistrationsController</title>
<path fill="none" stroke="black" d="M676.547,-365.32C670.072,-365.32 663.602,-365.32 657.211,-365.321"/>
</g>
<!-- Devise::SessionsController -->
<g id="node22" class="node"><title>Devise::SessionsController</title>
<ellipse fill="none" stroke="black" cx="820.178" cy="411.841" rx="106.292" ry="18"/>
<text text-anchor="middle" x="820.178" y="416.041" font-family="Times,serif" font-size="14.00">Devise::SessionsController</text>
</g>
<!-- Devise::SessionsController&#45;&gt;Api::V1::SessionsController -->
<g id="edge10" class="edge"><title>Devise::SessionsController&#45;&gt;Api::V1::SessionsController</title>
<path fill="none" stroke="black" d="M713.635,411.685C705.224,411.672 696.788,411.66 688.524,411.648"/>
</g>
</g>
</svg>
