<?xml version="1.0" encoding="UTF-8" standalone="no"?>
<!DOCTYPE svg PUBLIC "-//W3C//DTD SVG 1.1//EN"
 "http://www.w3.org/Graphics/SVG/1.1/DTD/svg11.dtd">
<!-- Generated by graphviz version 2.38.0 (20140413.2041)
 -->
<!-- Title: models_diagram Pages: 1 -->
<svg width="2544pt" height="644pt"
 viewBox="0.00 0.00 2543.92 644.00" xmlns="http://www.w3.org/2000/svg" xmlns:xlink="http://www.w3.org/1999/xlink">
<g id="graph0" class="graph" transform="scale(1 1) rotate(0) translate(4 640)">
<title>models_diagram</title>
<polygon fill="white" stroke="none" points="-4,4 -4,-640 2539.92,-640 2539.92,4 -4,4"/>
<!-- _diagram_info -->
<g id="node1" class="node"><title>_diagram_info</title>
<text text-anchor="start" x="8" y="-621.6" font-family="Times,serif" font-size="13.00">Models diagram</text>
<text text-anchor="start" x="8" y="-608.6" font-family="Times,serif" font-size="13.00">Date: Aug 09 2014 &#45; 14:25</text>
<text text-anchor="start" x="8" y="-595.6" font-family="Times,serif" font-size="13.00">Migration version: 20140626141545</text>
<text text-anchor="start" x="8" y="-582.6" font-family="Times,serif" font-size="13.00">Generated by RailRoady 1.1.1</text>
<text text-anchor="start" x="8" y="-569.6" font-family="Times,serif" font-size="13.00">http://railroady.prestonlee.com</text>
</g>
<!-- Ability -->
<g id="node2" class="node"><title>Ability</title>
<polygon fill="none" stroke="black" points="286.358,-526 231.018,-526 231.018,-490 286.358,-490 286.358,-526"/>
<text text-anchor="middle" x="258.688" y="-503.8" font-family="Times,serif" font-size="14.00">Ability</text>
</g>
<!-- Address -->
<g id="node3" class="node"><title>Address</title>
<ellipse fill="none" stroke="black" cx="542.688" cy="-91" rx="39.18" ry="18"/>
<text text-anchor="middle" x="542.688" y="-86.8" font-family="Times,serif" font-size="14.00">Address</text>
</g>
<!-- Comment -->
<g id="node4" class="node"><title>Comment</title>
<ellipse fill="none" stroke="black" cx="2004.69" cy="-91" rx="44.9768" ry="18"/>
<text text-anchor="middle" x="2004.69" y="-86.8" font-family="Times,serif" font-size="14.00">Comment</text>
</g>
<!-- Comment&#45;&gt;Comment -->
<g id="edge3" class="edge"><title>Comment&#45;&gt;Comment</title>
<path fill="none" stroke="#f3a571" d="M2054.84,-97.1551C2062.49,-96.2158 2067.68,-94.1641 2067.68,-91 2067.68,-88.0996 2063.32,-86.1339 2056.7,-85.1029"/>
<ellipse fill="none" stroke="#f3a571" cx="2050.47" cy="-97.4522" rx="4" ry="4"/>
<polygon fill="#f3a571" stroke="#f3a571" points="2056.45,-85.0828 2046.85,-79.791 2051.47,-84.6796 2046.48,-84.2764 2046.48,-84.2764 2046.48,-84.2764 2051.47,-84.6796 2046.12,-88.7617 2056.45,-85.0828 2056.45,-85.0828"/>
<text text-anchor="middle" x="2090.61" y="-86.8" font-family="Times,serif" font-size="14.00">children</text>
</g>
<!-- Concerns::TokenAuthenticatable -->
<g id="node5" class="node"><title>Concerns::TokenAuthenticatable</title>
<polygon fill="none" stroke="black" stroke-dasharray="1,5" points="2144.76,-617.5 1944.62,-617.5 1944.62,-581.5 2144.76,-581.5 2144.76,-617.5"/>
<text text-anchor="middle" x="2044.69" y="-595.3" font-family="Times,serif" font-size="14.00">Concerns::TokenAuthenticatable</text>
</g>
<!-- Endorsement -->
<g id="node6" class="node"><title>Endorsement</title>
<ellipse fill="none" stroke="black" cx="891.688" cy="-164" rx="56.5373" ry="18"/>
<text text-anchor="middle" x="891.688" y="-159.8" font-family="Times,serif" font-size="14.00">Endorsement</text>
</g>
<!-- EndorsementRequest -->
<g id="node7" class="node"><title>EndorsementRequest</title>
<ellipse fill="none" stroke="black" cx="693.688" cy="-164" rx="85.0187" ry="18"/>
<text text-anchor="middle" x="693.688" y="-159.8" font-family="Times,serif" font-size="14.00">EndorsementRequest</text>
</g>
<!-- Favorite -->
<g id="node8" class="node"><title>Favorite</title>
<ellipse fill="none" stroke="black" cx="1062.69" cy="-91" rx="39.6558" ry="18"/>
<text text-anchor="middle" x="1062.69" y="-86.8" font-family="Times,serif" font-size="14.00">Favorite</text>
</g>
<!-- Package -->
<g id="node9" class="node"><title>Package</title>
<ellipse fill="none" stroke="black" cx="2248.69" cy="-91" rx="39.6385" ry="18"/>
<text text-anchor="middle" x="2248.69" y="-86.8" font-family="Times,serif" font-size="14.00">Package</text>
</g>
<!-- Party -->
<g id="node10" class="node"><title>Party</title>
<ellipse fill="none" stroke="black" cx="1648.69" cy="-508" rx="28.5497" ry="18"/>
<text text-anchor="middle" x="1648.69" y="-503.8" font-family="Times,serif" font-size="14.00">Party</text>
</g>
<!-- Package&#45;&gt;Party -->
<g id="edge9" class="edge"><title>Package&#45;&gt;Party</title>
<path fill="none" stroke="#11913b" d="M2285.47,-108.993C2305.27,-120.922 2325.69,-139.032 2325.69,-163 2325.69,-294 2325.69,-294 2325.69,-294 2325.69,-330.782 2301.01,-336.439 2268.69,-354 2242.07,-368.462 2029.05,-393.363 2000.69,-404 1971.21,-415.054 1968.05,-426.348 1939.69,-440 1903.69,-457.326 1894.24,-461.508 1855.69,-472 1797.82,-487.751 1728.82,-497.714 1686.9,-502.822"/>
<polygon fill="#11913b" stroke="#11913b" points="2285.21,-108.845 2278.69,-100.025 2280.85,-106.397 2276.49,-103.948 2276.49,-103.948 2276.49,-103.948 2280.85,-106.397 2274.28,-107.871 2285.21,-108.845 2285.21,-108.845"/>
<polygon fill="#11913b" stroke="#11913b" points="1686.79,-502.836 1676.32,-499.548 1681.82,-503.426 1676.86,-504.017 1676.86,-504.017 1676.86,-504.017 1681.82,-503.426 1677.39,-508.485 1686.79,-502.836 1686.79,-502.836"/>
</g>
<!-- PartyPackage -->
<g id="node12" class="node"><title>PartyPackage</title>
<ellipse fill="none" stroke="black" cx="2477.69" cy="-18" rx="58.4737" ry="18"/>
<text text-anchor="middle" x="2477.69" y="-13.8" font-family="Times,serif" font-size="14.00">PartyPackage</text>
</g>
<!-- Package&#45;&gt;PartyPackage -->
<g id="edge8" class="edge"><title>Package&#45;&gt;PartyPackage</title>
<path fill="none" stroke="#c0ad14" d="M2288.33,-77.7091C2327.17,-65.6674 2386.46,-47.2834 2428.34,-34.3009"/>
<ellipse fill="none" stroke="#c0ad14" cx="2284.35" cy="-78.9432" rx="4.00001" ry="4.00001"/>
<polygon fill="#c0ad14" stroke="#c0ad14" points="2428.5,-34.2502 2439.38,-35.5869 2433.28,-32.7694 2438.05,-31.2887 2438.05,-31.2887 2438.05,-31.2887 2433.28,-32.7694 2436.72,-26.9906 2428.5,-34.2502 2428.5,-34.2502"/>
</g>
<!-- Voucher -->
<g id="node21" class="node"><title>Voucher</title>
<ellipse fill="none" stroke="black" cx="409.688" cy="-18" rx="39.3277" ry="18"/>
<text text-anchor="middle" x="409.688" y="-13.8" font-family="Times,serif" font-size="14.00">Voucher</text>
</g>
<!-- Package&#45;&gt;Voucher -->
<g id="edge10" class="edge"><title>Package&#45;&gt;Voucher</title>
<path fill="none" stroke="#d23085" d="M2204.13,-82.909C2179.83,-79.326 2149.18,-75.2673 2121.69,-73 1465.9,-18.907 664.71,-17.9813 459.436,-18.7254"/>
<ellipse fill="none" stroke="#d23085" cx="2208.16" cy="-83.5112" rx="4.00001" ry="4.00001"/>
<polygon fill="#d23085" stroke="#d23085" points="459.273,-18.7259 449.256,-14.2655 454.274,-18.7457 449.274,-18.7654 449.274,-18.7654 449.274,-18.7654 454.274,-18.7457 449.291,-23.2654 459.273,-18.7259 459.273,-18.7259"/>
</g>
<!-- Party&#45;&gt;Address -->
<g id="edge19" class="edge"><title>Party&#45;&gt;Address</title>
<path fill="none" stroke="#cbcc09" d="M1611.81,-505.679C1469.98,-500.353 959.746,-478.849 802.688,-440 703.183,-415.387 658.291,-429.249 588.688,-354 527.049,-287.362 532.945,-168.599 539.007,-117.039"/>
<ellipse fill="none" stroke="#cbcc09" cx="1615.85" cy="-505.83" rx="4" ry="4"/>
<ellipse fill="#cbcc09" stroke="#cbcc09" cx="539.509" cy="-113.042" rx="4.00001" ry="4.00001"/>
</g>
<!-- Party&#45;&gt;Comment -->
<g id="edge12" class="edge"><title>Party&#45;&gt;Comment</title>
<path fill="none" stroke="#02cd34" d="M1685.19,-503.03C1721.77,-498.313 1779.31,-488.87 1826.69,-472 1853.62,-462.412 2045.69,-365.585 2045.69,-337 2045.69,-337 2045.69,-337 2045.69,-163 2045.69,-145.719 2036.47,-128.86 2026.77,-115.91"/>
<ellipse fill="none" stroke="#02cd34" cx="1680.78" cy="-503.579" rx="4.00001" ry="4.00001"/>
<polygon fill="#02cd34" stroke="#02cd34" points="2026.68,-115.799 2023.93,-105.183 2023.55,-111.899 2020.42,-107.999 2020.42,-107.999 2020.42,-107.999 2023.55,-111.899 2016.91,-110.816 2026.68,-115.799 2026.68,-115.799"/>
<text text-anchor="middle" x="2095.45" y="-288.8" font-family="Times,serif" font-size="14.00">comment_threads</text>
</g>
<!-- PartyInvitation -->
<g id="node11" class="node"><title>PartyInvitation</title>
<ellipse fill="none" stroke="black" cx="1954.69" cy="-336" rx="63.3184" ry="18"/>
<text text-anchor="middle" x="1954.69" y="-331.8" font-family="Times,serif" font-size="14.00">PartyInvitation</text>
</g>
<!-- Party&#45;&gt;PartyInvitation -->
<g id="edge15" class="edge"><title>Party&#45;&gt;PartyInvitation</title>
<path fill="none" stroke="#8baeba" d="M1685.44,-503.754C1717.57,-499.742 1764.74,-490.95 1801.69,-472 1856.37,-443.95 1907.21,-391.914 1934.3,-361.287"/>
<ellipse fill="none" stroke="#8baeba" cx="1681.17" cy="-504.253" rx="4.00001" ry="4.00001"/>
<polygon fill="#8baeba" stroke="#8baeba" points="1934.41,-361.162 1944.37,-356.578 1937.69,-357.392 1940.97,-353.622 1940.97,-353.622 1940.97,-353.622 1937.69,-357.392 1937.58,-350.666 1934.41,-361.162 1934.41,-361.162"/>
</g>
<!-- Party&#45;&gt;PartyPackage -->
<g id="edge17" class="edge"><title>Party&#45;&gt;PartyPackage</title>
<path fill="none" stroke="#39405f" d="M1685.29,-503.933C1733.22,-499.417 1819.61,-489.554 1891.69,-472 1933.75,-461.756 1943.19,-455.312 1983.69,-440 2023.21,-425.053 2031.3,-416.427 2071.69,-404 2108.6,-392.644 2118.91,-394.003 2156.69,-386 2223.8,-371.783 2241.65,-372.567 2307.69,-354 2384.82,-332.315 2477.69,-374.123 2477.69,-294 2477.69,-294 2477.69,-294 2477.69,-90 2477.69,-75.6513 2477.69,-59.6715 2477.69,-46.5107"/>
<ellipse fill="none" stroke="#39405f" cx="1681.07" cy="-504.322" rx="4" ry="4"/>
<polygon fill="#39405f" stroke="#39405f" points="2477.69,-46.2164 2482.19,-36.2163 2477.69,-41.2164 2477.69,-36.2164 2477.69,-36.2164 2477.69,-36.2164 2477.69,-41.2164 2473.19,-36.2164 2477.69,-46.2164 2477.69,-46.2164"/>
</g>
<!-- PartyReservation -->
<g id="node13" class="node"><title>PartyReservation</title>
<ellipse fill="none" stroke="black" cx="679.688" cy="-336" rx="71.0272" ry="18"/>
<text text-anchor="middle" x="679.688" y="-331.8" font-family="Times,serif" font-size="14.00">PartyReservation</text>
</g>
<!-- Party&#45;&gt;PartyReservation -->
<g id="edge13" class="edge"><title>Party&#45;&gt;PartyReservation</title>
<path fill="none" stroke="#af6bf4" d="M1611.83,-504.569C1463.01,-494.37 906.604,-452.463 744.688,-386 730.065,-379.998 715.812,-369.886 704.396,-360.402"/>
<ellipse fill="none" stroke="#af6bf4" cx="1615.84" cy="-504.842" rx="4" ry="4"/>
<polygon fill="#af6bf4" stroke="#af6bf4" points="704.184,-360.218 699.566,-350.272 700.403,-356.947 696.621,-353.675 696.621,-353.675 696.621,-353.675 700.403,-356.947 693.677,-357.078 704.184,-360.218 704.184,-360.218"/>
</g>
<!-- User -->
<g id="node18" class="node"><title>User</title>
<ellipse fill="none" stroke="black" cx="1443.69" cy="-422" rx="27" ry="18"/>
<text text-anchor="middle" x="1443.69" y="-417.8" font-family="Times,serif" font-size="14.00">User</text>
</g>
<!-- Party&#45;&gt;User -->
<g id="edge14" class="edge"><title>Party&#45;&gt;User</title>
<path fill="none" stroke="#ed4aaa" d="M1609.95,-504.227C1561.86,-500.043 1483.51,-490.55 1461.6,-472 1454.92,-466.341 1450.73,-457.967 1448.1,-449.736"/>
<polygon fill="#ed4aaa" stroke="#ed4aaa" points="1610.04,-504.235 1619.63,-509.549 1615.03,-504.65 1620.01,-505.064 1620.01,-505.064 1620.01,-505.064 1615.03,-504.65 1620.38,-500.58 1610.04,-504.235 1610.04,-504.235"/>
<polygon fill="#ed4aaa" stroke="#ed4aaa" points="1448.08,-449.649 1449.97,-438.847 1446.85,-444.804 1445.61,-439.959 1445.61,-439.959 1445.61,-439.959 1446.85,-444.804 1441.25,-441.07 1448.08,-449.649 1448.08,-449.649"/>
<text text-anchor="middle" x="1487.73" y="-460.8" font-family="Times,serif" font-size="14.00">attendees</text>
</g>
<!-- Party&#45;&gt;User -->
<g id="edge16" class="edge"><title>Party&#45;&gt;User</title>
<path fill="none" stroke="#b54cf6" d="M1612.64,-498.002C1590.4,-491.889 1561.56,-482.935 1537.14,-472 1526.06,-467.038 1524.34,-463.83 1513.69,-458 1500.87,-450.981 1486.46,-443.68 1474.06,-437.574"/>
<polygon fill="#b54cf6" stroke="#b54cf6" points="1612.7,-498.017 1621.19,-504.954 1617.53,-499.312 1622.36,-500.608 1622.36,-500.608 1622.36,-500.608 1617.53,-499.312 1623.52,-496.261 1612.7,-498.017 1612.7,-498.017"/>
<polygon fill="#b54cf6" stroke="#b54cf6" points="1474.02,-437.553 1467.01,-429.119 1469.53,-435.358 1465.04,-433.162 1465.04,-433.162 1465.04,-433.162 1469.53,-435.358 1463.06,-437.205 1474.02,-437.553 1474.02,-437.553"/>
<text text-anchor="middle" x="1559.46" y="-460.8" font-family="Times,serif" font-size="14.00">invitees</text>
</g>
<!-- Party&#45;&gt;Voucher -->
<g id="edge18" class="edge"><title>Party&#45;&gt;Voucher</title>
<path fill="none" stroke="#713235" d="M1611.82,-506.061C1441.88,-501.53 738.622,-480.457 649.688,-440 509.02,-376.008 390.688,-362.54 390.688,-208 390.688,-208 390.688,-208 390.688,-90 390.688,-74.9979 394.695,-58.8002 399.029,-45.6694"/>
<ellipse fill="none" stroke="#713235" cx="1615.96" cy="-506.171" rx="4" ry="4"/>
<polygon fill="#713235" stroke="#713235" points="399.16,-45.3017 406.745,-37.3829 400.832,-40.5897 402.505,-35.8777 402.505,-35.8777 402.505,-35.8777 400.832,-40.5897 398.264,-34.3724 399.16,-45.3017 399.16,-45.3017"/>
</g>
<!-- Role -->
<g id="node14" class="node"><title>Role</title>
<ellipse fill="none" stroke="black" cx="1787.69" cy="-91" rx="27" ry="18"/>
<text text-anchor="middle" x="1787.69" y="-86.8" font-family="Times,serif" font-size="14.00">Role</text>
</g>
<!-- Role&#45;&gt;User -->
<g id="edge25" class="edge"><title>Role&#45;&gt;User</title>
<path fill="none" stroke="#8d5acc" d="M1802.92,-116.72C1815.04,-137.929 1831.03,-169.767 1837.69,-200 1853.82,-273.245 1830.79,-311.947 1768.69,-354 1721.86,-385.711 1555.68,-408.192 1480.78,-416.947"/>
<polygon fill="#8d5acc" stroke="#8d5acc" points="1802.89,-116.671 1801.72,-105.768 1800.36,-112.357 1797.84,-108.043 1797.84,-108.043 1797.84,-108.043 1800.36,-112.357 1793.95,-110.317 1802.89,-116.671 1802.89,-116.671"/>
<polygon fill="#8d5acc" stroke="#8d5acc" points="1480.35,-416.996 1469.9,-413.668 1475.38,-417.567 1470.42,-418.138 1470.42,-418.138 1470.42,-418.138 1475.38,-417.567 1470.93,-422.609 1480.35,-416.996 1480.35,-416.996"/>
</g>
<!-- RolesUser -->
<g id="node24" class="node"><title>RolesUser</title>
<ellipse fill="none" stroke="black" cx="1787.69" cy="-18" rx="46.8977" ry="18"/>
<text text-anchor="middle" x="1787.69" y="-13.8" font-family="Times,serif" font-size="14.00">RolesUser</text>
</g>
<!-- Role&#45;&gt;RolesUser -->
<g id="edge24" class="edge"><title>Role&#45;&gt;RolesUser</title>
<path fill="none" stroke="#42b014" d="M1787.69,-64.791C1787.69,-58.832 1787.69,-52.4496 1787.69,-46.3988"/>
<ellipse fill="none" stroke="#42b014" cx="1787.69" cy="-68.8129" rx="4" ry="4"/>
<polygon fill="#42b014" stroke="#42b014" points="1787.69,-46.0288 1792.19,-36.0288 1787.69,-41.0288 1787.69,-36.0288 1787.69,-36.0288 1787.69,-36.0288 1787.69,-41.0288 1783.19,-36.0289 1787.69,-46.0288 1787.69,-46.0288"/>
</g>
<!-- Sport -->
<g id="node15" class="node"><title>Sport</title>
<ellipse fill="none" stroke="black" cx="1566.69" cy="-336" rx="29.0429" ry="18"/>
<text text-anchor="middle" x="1566.69" y="-331.8" font-family="Times,serif" font-size="14.00">Sport</text>
</g>
<!-- Sport&#45;&gt;Favorite -->
<g id="edge28" class="edge"><title>Sport&#45;&gt;Favorite</title>
<path fill="none" stroke="#80b32a" d="M1536.93,-320.65C1449.29,-278.396 1192.41,-154.544 1098.01,-109.032"/>
<ellipse fill="none" stroke="#80b32a" cx="1540.78" cy="-322.508" rx="4.00002" ry="4.00002"/>
<polygon fill="#80b32a" stroke="#80b32a" points="1097.88,-108.969 1090.83,-100.573 1093.38,-106.798 1088.88,-104.626 1088.88,-104.626 1088.88,-104.626 1093.38,-106.798 1086.92,-108.68 1097.88,-108.969 1097.88,-108.969"/>
</g>
<!-- Team -->
<g id="node16" class="node"><title>Team</title>
<ellipse fill="none" stroke="black" cx="1062.69" cy="-250" rx="29.7411" ry="18"/>
<text text-anchor="middle" x="1062.69" y="-245.8" font-family="Times,serif" font-size="14.00">Team</text>
</g>
<!-- Sport&#45;&gt;Team -->
<g id="edge27" class="edge"><title>Sport&#45;&gt;Team</title>
<path fill="none" stroke="#f91334" d="M1537.45,-320.804C1534.54,-319.728 1531.58,-318.765 1528.69,-318 1447.96,-296.671 1421.94,-323.059 1341.69,-300 1328.32,-296.158 1326.98,-290.126 1313.69,-286 1241.31,-263.524 1152.7,-255.449 1102.46,-252.57"/>
<ellipse fill="none" stroke="#f91334" cx="1541.32" cy="-322.364" rx="4.00001" ry="4.00001"/>
<polygon fill="#f91334" stroke="#f91334" points="1102.33,-252.563 1092.59,-247.538 1097.34,-252.298 1092.35,-252.032 1092.35,-252.032 1092.35,-252.032 1097.34,-252.298 1092.11,-256.525 1102.33,-252.563 1102.33,-252.563"/>
</g>
<!-- Sport&#45;&gt;User -->
<g id="edge29" class="edge"><title>Sport&#45;&gt;User</title>
<path fill="none" stroke="#d16f5f" d="M1570.59,-364.339C1570.3,-372.041 1568.52,-379.957 1563.69,-386 1544.05,-410.581 1508.17,-418.546 1480.74,-420.831"/>
<polygon fill="#d16f5f" stroke="#d16f5f" points="1570.58,-364.158 1574.7,-353.995 1570.39,-359.162 1570.2,-354.165 1570.2,-354.165 1570.2,-354.165 1570.39,-359.162 1565.7,-354.336 1570.58,-364.158 1570.58,-364.158"/>
<polygon fill="#d16f5f" stroke="#d16f5f" points="1480.67,-420.835 1470.42,-416.96 1475.68,-421.143 1470.69,-421.451 1470.69,-421.451 1470.69,-421.451 1475.68,-421.143 1470.97,-425.943 1480.67,-420.835 1480.67,-420.835"/>
<text text-anchor="middle" x="1581.35" y="-374.8" font-family="Times,serif" font-size="14.00">fans</text>
</g>
<!-- Venue -->
<g id="node20" class="node"><title>Venue</title>
<ellipse fill="none" stroke="black" cx="1693.69" cy="-164" rx="32.415" ry="18"/>
<text text-anchor="middle" x="1693.69" y="-159.8" font-family="Times,serif" font-size="14.00">Venue</text>
</g>
<!-- Sport&#45;&gt;Venue -->
<g id="edge30" class="edge"><title>Sport&#45;&gt;Venue</title>
<path fill="none" stroke="#b7d21d" d="M1598.64,-319.526C1619.35,-307.98 1645.42,-290.362 1661.69,-268 1678.06,-245.487 1686.21,-214.384 1690.17,-192.261"/>
<polygon fill="#b7d21d" stroke="#b7d21d" points="1598.36,-319.673 1587.42,-320.433 1593.95,-322.036 1589.55,-324.399 1589.55,-324.399 1589.55,-324.399 1593.95,-322.036 1591.67,-328.365 1598.36,-319.673 1598.36,-319.673"/>
<polygon fill="#b7d21d" stroke="#b7d21d" points="1690.2,-192.072 1696.23,-182.915 1690.99,-187.136 1691.79,-182.199 1691.79,-182.199 1691.79,-182.199 1690.99,-187.136 1687.34,-181.483 1690.2,-192.072 1690.2,-192.072"/>
<text text-anchor="middle" x="1710.56" y="-245.8" font-family="Times,serif" font-size="14.00">venue_fans</text>
</g>
<!-- Team&#45;&gt;Address -->
<g id="edge40" class="edge"><title>Team&#45;&gt;Address</title>
<path fill="none" stroke="#ab0803" d="M1046.83,-226.389C1028.42,-202.09 995.682,-164.475 957.688,-146 893.627,-114.85 684.231,-99.7382 589.721,-94.3706"/>
<ellipse fill="none" stroke="#ab0803" cx="1049.25" cy="-229.651" rx="4.00002" ry="4.00002"/>
<ellipse fill="#ab0803" stroke="#ab0803" cx="585.478" cy="-94.1339" rx="4" ry="4"/>
</g>
<!-- Team&#45;&gt;Endorsement -->
<g id="edge36" class="edge"><title>Team&#45;&gt;Endorsement</title>
<path fill="none" stroke="#3b8379" d="M1028.17,-239.423C1008.46,-233.344 983.583,-224.624 962.688,-214 947.827,-206.444 932.466,-196.195 919.85,-187.023"/>
<ellipse fill="none" stroke="#3b8379" cx="1032.17" cy="-240.629" rx="4.00001" ry="4.00001"/>
<polygon fill="#3b8379" stroke="#3b8379" points="919.622,-186.854 914.276,-177.279 915.608,-183.873 911.593,-180.892 911.593,-180.892 911.593,-180.892 915.608,-183.873 908.911,-184.505 919.622,-186.854 919.622,-186.854"/>
</g>
<!-- Team&#45;&gt;EndorsementRequest -->
<g id="edge38" class="edge"><title>Team&#45;&gt;EndorsementRequest</title>
<path fill="none" stroke="#deafc9" d="M1027.42,-240.971C965.802,-226.945 837.672,-197.777 759.328,-179.942"/>
<ellipse fill="none" stroke="#deafc9" cx="1031.35" cy="-241.867" rx="4.00001" ry="4.00001"/>
<polygon fill="#deafc9" stroke="#deafc9" points="759.308,-179.938 750.557,-173.331 754.433,-178.828 749.558,-177.718 749.558,-177.718 749.558,-177.718 754.433,-178.828 748.559,-182.106 759.308,-179.938 759.308,-179.938"/>
</g>
<!-- Team&#45;&gt;Favorite -->
<g id="edge33" class="edge"><title>Team&#45;&gt;Favorite</title>
<path fill="none" stroke="#a02da2" d="M1062.69,-223.852C1062.69,-195.193 1062.69,-148.523 1062.69,-119.082"/>
<ellipse fill="none" stroke="#a02da2" cx="1062.69" cy="-227.899" rx="4" ry="4"/>
<polygon fill="#a02da2" stroke="#a02da2" points="1062.69,-119.08 1067.19,-109.079 1062.69,-114.08 1062.69,-109.08 1062.69,-109.08 1062.69,-109.08 1062.69,-114.08 1058.19,-109.08 1062.69,-119.08 1062.69,-119.08"/>
</g>
<!-- Team&#45;&gt;Role -->
<g id="edge32" class="edge"><title>Team&#45;&gt;Role</title>
<path fill="none" stroke="#35b30d" d="M1098.13,-241.326C1221.23,-214.666 1629.54,-126.247 1752.41,-99.64"/>
<ellipse fill="none" stroke="#35b30d" cx="1094.13" cy="-242.191" rx="4.00001" ry="4.00001"/>
<polygon fill="#35b30d" stroke="#35b30d" points="1752.64,-99.5907 1763.36,-101.872 1757.52,-98.5324 1762.41,-97.4742 1762.41,-97.4742 1762.41,-97.4742 1757.52,-98.5324 1761.46,-93.0761 1752.64,-99.5907 1752.64,-99.5907"/>
</g>
<!-- Team&#45;&gt;User -->
<g id="edge34" class="edge"><title>Team&#45;&gt;User</title>
<path fill="none" stroke="#edf6dc" d="M1025.96,-260.689C998.897,-270.16 964.728,-287.694 952.364,-318 939.794,-348.809 953.526,-371.947 983.688,-386 1058.47,-420.844 1310.82,-422.273 1406.49,-421.503"/>
<polygon fill="#edf6dc" stroke="#edf6dc" points="1026.06,-260.659 1036.96,-261.834 1030.81,-259.107 1035.56,-257.556 1035.56,-257.556 1035.56,-257.556 1030.81,-259.107 1034.17,-253.278 1026.06,-260.659 1026.06,-260.659"/>
<polygon fill="#edf6dc" stroke="#edf6dc" points="1406.58,-421.502 1416.62,-425.908 1411.58,-421.455 1416.58,-421.409 1416.58,-421.409 1416.58,-421.409 1411.58,-421.455 1416.53,-416.909 1406.58,-421.502 1406.58,-421.502"/>
<text text-anchor="middle" x="964.35" y="-331.8" font-family="Times,serif" font-size="14.00">fans</text>
</g>
<!-- Team&#45;&gt;User -->
<g id="edge37" class="edge"><title>Team&#45;&gt;User</title>
<path fill="none" stroke="#e192e4" d="M1040.23,-272.912C1029.42,-285.054 1017.59,-301.09 1011.9,-318 1000.95,-350.57 1017.07,-372.551 1048.69,-386 1112.62,-413.193 1321.27,-419.263 1406.7,-420.615"/>
<polygon fill="#e192e4" stroke="#e192e4" points="1040.3,-272.841 1050.41,-268.594 1043.71,-269.183 1047.12,-265.526 1047.12,-265.526 1047.12,-265.526 1043.71,-269.183 1043.83,-262.458 1040.3,-272.841 1040.3,-272.841"/>
<polygon fill="#e192e4" stroke="#e192e4" points="1406.73,-420.615 1416.67,-425.26 1411.73,-420.688 1416.73,-420.76 1416.73,-420.76 1416.73,-420.76 1411.73,-420.688 1416.8,-416.261 1406.73,-420.615 1406.73,-420.615"/>
<text text-anchor="middle" x="1027.08" y="-331.8" font-family="Times,serif" font-size="14.00">hosts</text>
</g>
<!-- Team&#45;&gt;User -->
<g id="edge39" class="edge"><title>Team&#45;&gt;User</title>
<path fill="none" stroke="#7950c3" d="M1089.73,-270.003C1108.41,-283.249 1133.75,-301.444 1155.69,-318 1176.29,-333.548 1178.52,-341.785 1201.26,-354 1268.81,-390.29 1357.77,-408.32 1406.97,-416.065"/>
<polygon fill="#7950c3" stroke="#7950c3" points="1089.56,-269.882 1083.99,-260.434 1085.47,-266.995 1081.39,-264.108 1081.39,-264.108 1081.39,-264.108 1085.47,-266.995 1078.79,-267.782 1089.56,-269.882 1089.56,-269.882"/>
<polygon fill="#7950c3" stroke="#7950c3" points="1407.25,-416.107 1416.46,-422.056 1412.19,-416.857 1417.14,-417.607 1417.14,-417.607 1417.14,-417.607 1412.19,-416.857 1417.81,-413.157 1407.25,-416.107 1407.25,-416.107"/>
<text text-anchor="middle" x="1246.4" y="-331.8" font-family="Times,serif" font-size="14.00">requested_hosts</text>
</g>
<!-- Team&#45;&gt;Venue -->
<g id="edge35" class="edge"><title>Team&#45;&gt;Venue</title>
<path fill="none" stroke="#eda9a5" d="M1101.28,-242.532C1161.07,-232.628 1279.78,-213.442 1380.94,-200 1477.76,-187.134 1591.86,-175.17 1651.9,-169.122"/>
<polygon fill="#eda9a5" stroke="#eda9a5" points="1101.02,-242.574 1090.42,-239.773 1096.09,-243.393 1091.16,-244.212 1091.16,-244.212 1091.16,-244.212 1096.09,-243.393 1091.9,-248.651 1101.02,-242.574 1101.02,-242.574"/>
<polygon fill="#eda9a5" stroke="#eda9a5" points="1652.17,-169.095 1662.57,-172.575 1657.14,-168.596 1662.12,-168.097 1662.12,-168.097 1662.12,-168.097 1657.14,-168.596 1661.67,-163.62 1652.17,-169.095 1652.17,-169.095"/>
<text text-anchor="middle" x="1413.56" y="-202.8" font-family="Times,serif" font-size="14.00">venue_fans</text>
</g>
<!-- Tenant -->
<g id="node17" class="node"><title>Tenant</title>
<ellipse fill="none" stroke="black" cx="2114.69" cy="-508" rx="34.0841" ry="18"/>
<text text-anchor="middle" x="2114.69" y="-503.8" font-family="Times,serif" font-size="14.00">Tenant</text>
</g>
<!-- Tenant&#45;&gt;User -->
<g id="edge43" class="edge"><title>Tenant&#45;&gt;User</title>
<path fill="none" stroke="#90d274" d="M2072.01,-501.301C2002.15,-492.007 1859.01,-473.106 1737.69,-458 1644.96,-446.455 1535.68,-433.658 1480.11,-427.208"/>
<polygon fill="#90d274" stroke="#90d274" points="2072.26,-501.335 2081.58,-507.115 2077.22,-501.995 2082.18,-502.655 2082.18,-502.655 2082.18,-502.655 2077.22,-501.995 2082.77,-498.194 2072.26,-501.335 2072.26,-501.335"/>
<polygon fill="#90d274" stroke="#90d274" points="1479.99,-427.194 1470.57,-421.572 1475.02,-426.618 1470.05,-426.042 1470.05,-426.042 1470.05,-426.042 1475.02,-426.618 1469.54,-430.512 1479.99,-427.194 1479.99,-427.194"/>
</g>
<!-- TenantsUser -->
<g id="node25" class="node"><title>TenantsUser</title>
<ellipse fill="none" stroke="black" cx="2134.69" cy="-422" rx="54.3639" ry="18"/>
<text text-anchor="middle" x="2134.69" y="-417.8" font-family="Times,serif" font-size="14.00">TenantsUser</text>
</g>
<!-- Tenant&#45;&gt;TenantsUser -->
<g id="edge42" class="edge"><title>Tenant&#45;&gt;TenantsUser</title>
<path fill="none" stroke="#026ca2" d="M2120.64,-481.991C2123.06,-471.824 2125.86,-460.058 2128.33,-449.721"/>
<ellipse fill="none" stroke="#026ca2" cx="2119.66" cy="-486.11" rx="4.00001" ry="4.00001"/>
<polygon fill="#026ca2" stroke="#026ca2" points="2128.33,-449.701 2135.02,-441.016 2129.49,-444.837 2130.65,-439.973 2130.65,-439.973 2130.65,-439.973 2129.49,-444.837 2126.27,-438.931 2128.33,-449.701 2128.33,-449.701"/>
</g>
<!-- User&#45;&gt;Address -->
<g id="edge63" class="edge"><title>User&#45;&gt;Address</title>
<path fill="none" stroke="#349ca5" d="M1408.3,-420.694C1308.51,-419.492 1026.44,-413.671 938.688,-386 854.836,-359.559 662.564,-243.456 599.688,-182 580.071,-162.827 564.053,-135.661 554.047,-116.2"/>
<ellipse fill="none" stroke="#349ca5" cx="1412.55" cy="-420.742" rx="4" ry="4"/>
<ellipse fill="#349ca5" stroke="#349ca5" cx="552.178" cy="-112.47" rx="4.00002" ry="4.00002"/>
</g>
<!-- User&#45;&gt;Comment -->
<g id="edge47" class="edge"><title>User&#45;&gt;Comment</title>
<path fill="none" stroke="#7d41ca" d="M1478.68,-420.198C1511.73,-417.877 1561.35,-410.2 1596.69,-386 1626.79,-365.384 1615.07,-341.842 1642.69,-318 1681.51,-284.488 1702.83,-294.585 1746.69,-268 1789.86,-241.828 1796.24,-228.836 1837.69,-200 1883.74,-167.958 1938.61,-133.084 1972.55,-111.88"/>
<ellipse fill="none" stroke="#7d41ca" cx="1474.65" cy="-420.44" rx="4" ry="4"/>
<polygon fill="#7d41ca" stroke="#7d41ca" points="1972.64,-111.824 1983.5,-110.354 1976.88,-109.179 1981.12,-106.535 1981.12,-106.535 1981.12,-106.535 1976.88,-109.179 1978.74,-102.716 1972.64,-111.824 1972.64,-111.824"/>
</g>
<!-- User&#45;&gt;Endorsement -->
<g id="edge53" class="edge"><title>User&#45;&gt;Endorsement</title>
<path fill="none" stroke="#ab78b0" d="M1408.52,-420.537C1303.17,-418.864 995.186,-411.794 958.688,-386 896.287,-341.901 889.664,-240.975 890.353,-192.277"/>
<ellipse fill="none" stroke="#ab78b0" cx="1412.62" cy="-420.599" rx="4" ry="4"/>
<polygon fill="#ab78b0" stroke="#ab78b0" points="890.356,-192.167 895.112,-182.287 890.485,-187.169 890.614,-182.171 890.614,-182.171 890.614,-182.171 890.485,-187.169 886.115,-182.055 890.356,-192.167 890.356,-192.167"/>
</g>
<!-- User&#45;&gt;Favorite -->
<g id="edge48" class="edge"><title>User&#45;&gt;Favorite</title>
<path fill="none" stroke="#ab945c" d="M1408.3,-420.175C1282.27,-417.079 861.644,-405.33 840.688,-386 801.409,-349.768 789.03,-184.882 825.688,-146 851.001,-119.151 952.331,-103.784 1014.01,-96.7421"/>
<ellipse fill="none" stroke="#ab945c" cx="1412.52" cy="-420.277" rx="4" ry="4"/>
<polygon fill="#ab945c" stroke="#ab945c" points="1014.35,-96.7041 1024.78,-100.075 1019.32,-96.1534 1024.29,-95.6028 1024.29,-95.6028 1024.29,-95.6028 1019.32,-96.1534 1023.79,-91.1302 1014.35,-96.7041 1014.35,-96.7041"/>
</g>
<!-- User&#45;&gt;Package -->
<g id="edge61" class="edge"><title>User&#45;&gt;Package</title>
<path fill="none" stroke="#7e0d28" d="M1480.77,-418.763C1533.4,-415.015 1632.5,-405.834 1714.69,-386 1755.55,-376.139 1765.63,-371.852 1803.69,-354 1967.53,-277.137 2149.68,-158.583 2219.39,-111.881"/>
<polygon fill="#7e0d28" stroke="#7e0d28" points="1480.56,-418.778 1470.27,-414.973 1475.57,-419.12 1470.58,-419.462 1470.58,-419.462 1470.58,-419.462 1475.57,-419.12 1470.89,-423.952 1480.56,-418.778 1480.56,-418.778"/>
<polygon fill="#7e0d28" stroke="#7e0d28" points="2219.4,-111.869 2230.21,-110.027 2223.55,-109.081 2227.7,-106.292 2227.7,-106.292 2227.7,-106.292 2223.55,-109.081 2225.19,-102.557 2219.4,-111.869 2219.4,-111.869"/>
</g>
<!-- User&#45;&gt;Party -->
<g id="edge56" class="edge"><title>User&#45;&gt;Party</title>
<path fill="none" stroke="#9de08d" d="M1479.81,-428.42C1508.19,-433.565 1548.21,-442.816 1580.69,-458 1589.53,-462.133 1607.78,-475.391 1623.15,-487.075"/>
<polygon fill="#9de08d" stroke="#9de08d" points="1479.77,-428.413 1470.69,-422.272 1474.85,-427.56 1469.92,-426.706 1469.92,-426.706 1469.92,-426.706 1474.85,-427.56 1469.15,-431.14 1479.77,-428.413 1479.77,-428.413"/>
<polygon fill="#9de08d" stroke="#9de08d" points="1623.38,-487.251 1628.57,-496.907 1627.34,-490.293 1631.31,-493.336 1631.31,-493.336 1631.31,-493.336 1627.34,-490.293 1634.05,-489.766 1623.38,-487.251 1623.38,-487.251"/>
<text text-anchor="middle" x="1634.51" y="-460.8" font-family="Times,serif" font-size="14.00">reservations</text>
</g>
<!-- User&#45;&gt;Party -->
<g id="edge58" class="edge"><title>User&#45;&gt;Party</title>
<path fill="none" stroke="#225923" d="M1481.02,-423.097C1539.25,-424.13 1647.56,-429.891 1671.69,-458 1678.27,-465.674 1675.26,-475.554 1669.55,-484.43"/>
<polygon fill="#225923" stroke="#225923" points="1480.76,-423.093 1470.82,-418.455 1475.76,-423.024 1470.76,-422.954 1470.76,-422.954 1470.76,-422.954 1475.76,-423.024 1470.7,-427.454 1480.76,-423.093 1480.76,-423.093"/>
<polygon fill="#225923" stroke="#225923" points="1669.48,-484.527 1659.88,-489.828 1666.48,-488.528 1663.48,-492.528 1663.48,-492.528 1663.48,-492.528 1666.48,-488.528 1667.08,-495.228 1669.48,-484.527 1669.48,-484.527"/>
<text text-anchor="middle" x="1704.24" y="-460.8" font-family="Times,serif" font-size="14.00">invitations</text>
</g>
<!-- User&#45;&gt;Party -->
<g id="edge59" class="edge"><title>User&#45;&gt;Party</title>
<path fill="none" stroke="#06f8a9" d="M1439.92,-448.262C1440.05,-456.752 1441.9,-465.665 1447.69,-472 1468.91,-495.249 1557.57,-503.087 1609.78,-505.706"/>
<ellipse fill="none" stroke="#06f8a9" cx="1440.11" cy="-444.02" rx="4" ry="4"/>
<polygon fill="#06f8a9" stroke="#06f8a9" points="1610.03,-505.717 1619.81,-510.671 1615.03,-505.946 1620.02,-506.176 1620.02,-506.176 1620.02,-506.176 1615.03,-505.946 1620.23,-501.681 1610.03,-505.717 1610.03,-505.717"/>
</g>
<!-- User&#45;&gt;PartyInvitation -->
<g id="edge57" class="edge"><title>User&#45;&gt;PartyInvitation</title>
<path fill="none" stroke="#6f8ebf" d="M1479.03,-419.853C1566.32,-416.73 1790.23,-406.875 1861.69,-386 1883.02,-379.768 1905.1,-368.378 1922.39,-358.147"/>
<ellipse fill="none" stroke="#6f8ebf" cx="1474.77" cy="-420.002" rx="4" ry="4"/>
<polygon fill="#6f8ebf" stroke="#6f8ebf" points="1922.42,-358.129 1933.3,-356.781 1926.69,-355.532 1930.97,-352.935 1930.97,-352.935 1930.97,-352.935 1926.69,-355.532 1928.63,-349.09 1922.42,-358.129 1922.42,-358.129"/>
</g>
<!-- User&#45;&gt;PartyReservation -->
<g id="edge55" class="edge"><title>User&#45;&gt;PartyReservation</title>
<path fill="none" stroke="#2a647d" d="M1408.49,-421.222C1287.81,-421.665 891.507,-420.401 769.688,-386 766.689,-385.153 740.017,-370.558 716.481,-357.515"/>
<ellipse fill="none" stroke="#2a647d" cx="1412.7" cy="-421.204" rx="4" ry="4"/>
<polygon fill="#2a647d" stroke="#2a647d" points="716.414,-357.478 709.854,-348.69 712.042,-355.051 707.671,-352.625 707.671,-352.625 707.671,-352.625 712.042,-355.051 705.487,-356.559 716.414,-357.478 716.414,-357.478"/>
</g>
<!-- User&#45;&gt;Sport -->
<g id="edge49" class="edge"><title>User&#45;&gt;Sport</title>
<path fill="none" stroke="#f2dd9c" d="M1452.76,-394.84C1456.76,-386.546 1462.23,-377.987 1469.47,-372 1490.68,-354.476 1502.92,-363.635 1528.69,-354 1530.57,-353.297 1532.48,-352.547 1534.41,-351.769"/>
<polygon fill="#f2dd9c" stroke="#f2dd9c" points="1452.66,-395.087 1444.59,-402.518 1450.69,-399.686 1448.73,-404.284 1448.73,-404.284 1448.73,-404.284 1450.69,-399.686 1452.87,-406.051 1452.66,-395.087 1452.66,-395.087"/>
<polygon fill="#f2dd9c" stroke="#f2dd9c" points="1534.76,-351.619 1545.73,-351.863 1539.37,-349.669 1543.97,-347.719 1543.97,-347.719 1543.97,-347.719 1539.37,-349.669 1542.22,-343.575 1534.76,-351.619 1534.76,-351.619"/>
<text text-anchor="middle" x="1514.79" y="-374.8" font-family="Times,serif" font-size="14.00">followed_sports</text>
</g>
<!-- User&#45;&gt;Team -->
<g id="edge50" class="edge"><title>User&#45;&gt;Team</title>
<path fill="none" stroke="#6d1c6a" d="M1406.46,-420.293C1319.27,-417.769 1105.91,-406.267 1062.27,-354 1044.77,-333.05 1048.29,-300.469 1053.98,-277.573"/>
<polygon fill="#6d1c6a" stroke="#6d1c6a" points="1406.69,-420.299 1416.57,-425.063 1411.69,-420.432 1416.69,-420.564 1416.69,-420.564 1416.69,-420.564 1411.69,-420.432 1416.81,-416.066 1406.69,-420.299 1406.69,-420.299"/>
<polygon fill="#6d1c6a" stroke="#6d1c6a" points="1054.01,-277.449 1061.02,-269.011 1055.35,-272.63 1056.68,-267.811 1056.68,-267.811 1056.68,-267.811 1055.35,-272.63 1052.34,-266.612 1054.01,-277.449 1054.01,-277.449"/>
<text text-anchor="middle" x="1107.4" y="-331.8" font-family="Times,serif" font-size="14.00">followed_teams</text>
</g>
<!-- User&#45;&gt;Team -->
<g id="edge54" class="edge"><title>User&#45;&gt;Team</title>
<path fill="none" stroke="#b93f5e" d="M1411.79,-407.308C1386.03,-395.378 1349.61,-376.488 1321.82,-354 1305.37,-340.696 1308.48,-329.447 1290.69,-318 1231.38,-279.832 1149.6,-262.762 1101.82,-255.633"/>
<polygon fill="#b93f5e" stroke="#b93f5e" points="1412,-407.401 1419.25,-415.631 1416.55,-409.467 1421.11,-411.533 1421.11,-411.533 1421.11,-411.533 1416.55,-409.467 1422.97,-407.435 1412,-407.401 1412,-407.401"/>
<polygon fill="#b93f5e" stroke="#b93f5e" points="1101.77,-255.626 1092.5,-249.764 1096.82,-254.923 1091.87,-254.22 1091.87,-254.22 1091.87,-254.22 1096.82,-254.923 1091.24,-258.675 1101.77,-255.626 1101.77,-255.626"/>
<text text-anchor="middle" x="1370.12" y="-331.8" font-family="Times,serif" font-size="14.00">endorsing_teams</text>
</g>
<!-- User&#45;&gt;User -->
<g id="edge51" class="edge"><title>User&#45;&gt;User</title>
<path fill="none" stroke="#9d4ee5" d="M1480.63,-425.467C1485.48,-424.873 1488.69,-423.718 1488.69,-422 1488.69,-420.282 1485.48,-419.127 1480.63,-418.533"/>
<polygon fill="#9d4ee5" stroke="#9d4ee5" points="1480.47,-425.474 1470.28,-421.434 1475.48,-425.701 1470.48,-425.929 1470.48,-425.929 1470.48,-425.929 1475.48,-425.701 1470.69,-430.424 1480.47,-425.474 1480.47,-425.474"/>
<polygon fill="#9d4ee5" stroke="#9d4ee5" points="1480.47,-418.526 1470.69,-413.576 1475.48,-418.299 1470.48,-418.071 1470.48,-418.071 1470.48,-418.071 1475.48,-418.299 1470.28,-422.566 1480.47,-418.526 1480.47,-418.526"/>
<text text-anchor="middle" x="1515.9" y="-417.8" font-family="Times,serif" font-size="14.00">followees</text>
</g>
<!-- User&#45;&gt;User -->
<g id="edge52" class="edge"><title>User&#45;&gt;User</title>
<path fill="none" stroke="#7711e5" d="M1479.63,-429.064C1508.91,-431.289 1543.12,-428.934 1543.12,-422 1543.12,-415.066 1508.91,-412.711 1479.63,-414.936"/>
<polygon fill="#7711e5" stroke="#7711e5" points="1479.49,-429.052 1469.98,-423.607 1474.52,-428.569 1469.54,-428.086 1469.54,-428.086 1469.54,-428.086 1474.52,-428.569 1469.11,-432.565 1479.49,-429.052 1479.49,-429.052"/>
<polygon fill="#7711e5" stroke="#7711e5" points="1479.49,-414.948 1469.11,-411.435 1474.52,-415.431 1469.54,-415.914 1469.54,-415.914 1469.54,-415.914 1474.52,-415.431 1469.98,-420.393 1479.49,-414.948 1479.49,-414.948"/>
<text text-anchor="middle" x="1569.55" y="-417.8" font-family="Times,serif" font-size="14.00">followers</text>
</g>
<!-- UserPurchasedPackage -->
<g id="node19" class="node"><title>UserPurchasedPackage</title>
<ellipse fill="none" stroke="black" cx="2166.69" cy="-336" rx="92.7256" ry="18"/>
<text text-anchor="middle" x="2166.69" y="-331.8" font-family="Times,serif" font-size="14.00">UserPurchasedPackage</text>
</g>
<!-- User&#45;&gt;UserPurchasedPackage -->
<g id="edge60" class="edge"><title>User&#45;&gt;UserPurchasedPackage</title>
<path fill="none" stroke="#89234d" d="M1478.88,-419.446C1554.75,-415.836 1739.23,-405.654 1892.69,-386 1962.18,-377.1 2040.84,-362.566 2095.99,-351.633"/>
<ellipse fill="none" stroke="#89234d" cx="1474.6" cy="-419.647" rx="4" ry="4"/>
<polygon fill="#89234d" stroke="#89234d" points="2096.2,-351.591 2106.89,-354.049 2101.11,-350.613 2106.01,-349.635 2106.01,-349.635 2106.01,-349.635 2101.11,-350.613 2105.13,-345.222 2096.2,-351.591 2096.2,-351.591"/>
</g>
<!-- User&#45;&gt;Voucher -->
<g id="edge62" class="edge"><title>User&#45;&gt;Voucher</title>
<path fill="none" stroke="#7f1c31" d="M1408.39,-420.474C1285.31,-418.438 879.665,-409.96 826.688,-386 788.03,-368.516 795.157,-341.282 759.688,-318 652.531,-247.662 582.441,-303.507 490.688,-214 442.65,-167.138 421.895,-87.5823 413.968,-46.0543"/>
<ellipse fill="none" stroke="#7f1c31" cx="1412.42" cy="-420.539" rx="4" ry="4"/>
<polygon fill="#7f1c31" stroke="#7f1c31" points="413.952,-45.9624 416.609,-35.3234 413.066,-41.0415 412.18,-36.1206 412.18,-36.1206 412.18,-36.1206 413.066,-41.0415 407.751,-36.9178 413.952,-45.9624 413.952,-45.9624"/>
</g>
<!-- UsersRole -->
<g id="node26" class="node"><title>UsersRole</title>
<ellipse fill="none" stroke="black" cx="1472.69" cy="-336" rx="46.8977" ry="18"/>
<text text-anchor="middle" x="1472.69" y="-331.8" font-family="Times,serif" font-size="14.00">UsersRole</text>
</g>
<!-- User&#45;&gt;UsersRole -->
<g id="edge45" class="edge"><title>User&#45;&gt;UsersRole</title>
<path fill="none" stroke="#fd6ac2" d="M1447.35,-395.811C1448.87,-388.042 1450.94,-379.549 1453.69,-372 1454.82,-368.882 1456.2,-365.702 1457.69,-362.594"/>
<ellipse fill="none" stroke="#fd6ac2" cx="1446.61" cy="-399.94" rx="4.00001" ry="4.00001"/>
<polygon fill="#fd6ac2" stroke="#fd6ac2" points="1457.75,-362.488 1466.35,-355.694 1460.05,-358.053 1462.36,-353.617 1462.36,-353.617 1462.36,-353.617 1460.05,-358.053 1458.37,-351.54 1457.75,-362.488 1457.75,-362.488"/>
</g>
<!-- UsersTenant -->
<g id="node27" class="node"><title>UsersTenant</title>
<ellipse fill="none" stroke="black" cx="1705.69" cy="-336" rx="54.3639" ry="18"/>
<text text-anchor="middle" x="1705.69" y="-331.8" font-family="Times,serif" font-size="14.00">UsersTenant</text>
</g>
<!-- User&#45;&gt;UsersTenant -->
<g id="edge46" class="edge"><title>User&#45;&gt;UsersTenant</title>
<path fill="none" stroke="#2154c9" d="M1478.91,-419.33C1518.83,-416.389 1585.19,-408.286 1637.69,-386 1652.92,-379.532 1668.05,-369.138 1680.15,-359.583"/>
<ellipse fill="none" stroke="#2154c9" cx="1474.79" cy="-419.61" rx="4" ry="4"/>
<polygon fill="#2154c9" stroke="#2154c9" points="1680.26,-359.489 1690.85,-356.646 1684.13,-356.325 1688.01,-353.161 1688.01,-353.161 1688.01,-353.161 1684.13,-356.325 1685.16,-349.677 1680.26,-359.489 1680.26,-359.489"/>
</g>
<!-- Venue&#45;&gt;Address -->
<g id="edge73" class="edge"><title>Venue&#45;&gt;Address</title>
<path fill="none" stroke="#fc629d" d="M1653.63,-160.529C1478.15,-149.704 777.531,-106.486 589.392,-94.881"/>
<ellipse fill="none" stroke="#fc629d" cx="1657.71" cy="-160.781" rx="4" ry="4"/>
<ellipse fill="#fc629d" stroke="#fc629d" cx="585.337" cy="-94.6309" rx="4" ry="4"/>
</g>
<!-- Venue&#45;&gt;Comment -->
<g id="edge67" class="edge"><title>Venue&#45;&gt;Comment</title>
<path fill="none" stroke="#929b20" d="M1723.03,-146.836C1737.07,-139.743 1754.36,-131.925 1770.69,-127 1830.59,-108.934 1902.05,-99.9756 1950.11,-95.6826"/>
<ellipse fill="none" stroke="#929b20" cx="1719.14" cy="-148.844" rx="4.00002" ry="4.00002"/>
<polygon fill="#929b20" stroke="#929b20" points="1950.33,-95.6636 1960.68,-99.2948 1955.32,-95.2374 1960.3,-94.8112 1960.3,-94.8112 1960.3,-94.8112 1955.32,-95.2374 1959.91,-90.3276 1950.33,-95.6636 1950.33,-95.6636"/>
</g>
<!-- Venue&#45;&gt;Favorite -->
<g id="edge69" class="edge"><title>Venue&#45;&gt;Favorite</title>
<path fill="none" stroke="#b41956" d="M1654.27,-158.564C1543.77,-146.131 1231.27,-110.968 1110.84,-97.4179"/>
<ellipse fill="none" stroke="#b41956" cx="1658.42" cy="-159.032" rx="4.00001" ry="4.00001"/>
<polygon fill="#b41956" stroke="#b41956" points="1110.74,-97.4075 1101.31,-91.8174 1105.78,-96.8483 1100.81,-96.2892 1100.81,-96.2892 1100.81,-96.2892 1105.78,-96.8483 1100.3,-100.761 1110.74,-97.4075 1110.74,-97.4075"/>
</g>
<!-- Venue&#45;&gt;Package -->
<g id="edge72" class="edge"><title>Venue&#45;&gt;Package</title>
<path fill="none" stroke="#200768" d="M1733.14,-158.123C1808.62,-148.772 1978.66,-127.595 2121.69,-109 2147.92,-105.59 2177.18,-101.68 2201,-98.4705"/>
<ellipse fill="none" stroke="#200768" cx="1728.82" cy="-158.659" rx="4.00001" ry="4.00001"/>
<polygon fill="#200768" stroke="#200768" points="2201.28,-98.4329 2211.79,-101.555 2206.23,-97.7642 2211.19,-97.0955 2211.19,-97.0955 2211.19,-97.0955 2206.23,-97.7642 2210.59,-92.6359 2201.28,-98.4329 2201.28,-98.4329"/>
</g>
<!-- Venue&#45;&gt;Party -->
<g id="edge68" class="edge"><title>Venue&#45;&gt;Party</title>
<path fill="none" stroke="#4aa1e3" d="M1714.38,-186.321C1725.42,-198.753 1738.39,-215.25 1746.69,-232 1771.14,-281.373 1775.75,-299.357 1768.69,-354 1761.74,-407.777 1773.71,-431.468 1737.69,-472 1724.6,-486.732 1704.51,-495.327 1686.73,-500.309"/>
<ellipse fill="none" stroke="#4aa1e3" cx="1711.52" cy="-183.169" rx="4.00002" ry="4.00002"/>
<polygon fill="#4aa1e3" stroke="#4aa1e3" points="1686.3,-500.417 1675.51,-498.479 1681.45,-501.63 1676.6,-502.844 1676.6,-502.844 1676.6,-502.844 1681.45,-501.63 1677.69,-507.209 1686.3,-500.417 1686.3,-500.417"/>
</g>
<!-- Venue&#45;&gt;Role -->
<g id="edge66" class="edge"><title>Venue&#45;&gt;Role</title>
<path fill="none" stroke="#f4bdf2" d="M1717.55,-143.512C1724.32,-138.09 1731.75,-132.25 1738.69,-127 1745.88,-121.561 1753.79,-115.814 1761.11,-110.584"/>
<ellipse fill="none" stroke="#f4bdf2" cx="1714.15" cy="-146.248" rx="4.00002" ry="4.00002"/>
<polygon fill="#f4bdf2" stroke="#f4bdf2" points="1761.21,-110.516 1771.97,-108.402 1765.29,-107.624 1769.37,-104.732 1769.37,-104.732 1769.37,-104.732 1765.29,-107.624 1766.76,-101.061 1761.21,-110.516 1761.21,-110.516"/>
</g>
<!-- Venue&#45;&gt;Sport -->
<g id="edge70" class="edge"><title>Venue&#45;&gt;Sport</title>
<path fill="none" stroke="#285940" d="M1654.48,-174.242C1624.9,-183.488 1586.31,-200.937 1567.47,-232 1553.69,-254.732 1555.65,-285.799 1559.72,-307.854"/>
<polygon fill="#285940" stroke="#285940" points="1654.53,-174.228 1665.39,-175.731 1659.32,-172.821 1664.12,-171.413 1664.12,-171.413 1664.12,-171.413 1659.32,-172.821 1662.86,-167.095 1654.53,-174.228 1654.53,-174.228"/>
<polygon fill="#285940" stroke="#285940" points="1559.77,-308.095 1557.42,-318.806 1560.79,-312.988 1561.82,-317.881 1561.82,-317.881 1561.82,-317.881 1560.79,-312.988 1566.23,-316.956 1559.77,-308.095 1559.77,-308.095"/>
<text text-anchor="middle" x="1612.79" y="-245.8" font-family="Times,serif" font-size="14.00">followed_sports</text>
</g>
<!-- Venue&#45;&gt;Team -->
<g id="edge71" class="edge"><title>Venue&#45;&gt;Team</title>
<path fill="none" stroke="#dfa1c9" d="M1651.55,-166.494C1605.11,-169.275 1528.83,-177.234 1467.27,-200 1456.19,-204.095 1455.88,-210.25 1444.69,-214 1382.08,-234.968 1187.31,-244.451 1102.65,-247.662"/>
<polygon fill="#dfa1c9" stroke="#dfa1c9" points="1651.57,-166.493 1661.8,-170.44 1656.56,-166.22 1661.55,-165.947 1661.55,-165.947 1661.55,-165.947 1656.56,-166.22 1661.31,-161.454 1651.57,-166.493 1651.57,-166.493"/>
<polygon fill="#dfa1c9" stroke="#dfa1c9" points="1102.41,-247.671 1092.25,-243.543 1097.41,-247.856 1092.41,-248.04 1092.41,-248.04 1092.41,-248.04 1097.41,-247.856 1092.58,-252.537 1102.41,-247.671 1102.41,-247.671"/>
<text text-anchor="middle" x="1512.4" y="-202.8" font-family="Times,serif" font-size="14.00">followed_teams</text>
</g>
<!-- Object -->
<g id="node22" class="node"><title>Object</title>
<ellipse fill="none" stroke="black" cx="258.688" cy="-599.5" rx="33.8596" ry="18"/>
<text text-anchor="middle" x="258.688" y="-595.3" font-family="Times,serif" font-size="14.00">Object</text>
</g>
<!-- Object&#45;&gt;Ability -->
<g id="edge1" class="edge"><title>Object&#45;&gt;Ability</title>
<path fill="none" stroke="black" d="M258.688,-581.243C258.688,-565.395 258.688,-542.035 258.688,-526.204"/>
</g>
<!-- ActiveRecord::Base -->
<g id="node23" class="node"><title>ActiveRecord::Base</title>
<ellipse fill="none" stroke="black" cx="1845.69" cy="-599.5" rx="81.1422" ry="18"/>
<text text-anchor="middle" x="1845.69" y="-595.3" font-family="Times,serif" font-size="14.00">ActiveRecord::Base</text>
</g>
<!-- ActiveRecord::Base&#45;&gt;Address -->
<g id="edge2" class="edge"><title>ActiveRecord::Base&#45;&gt;Address</title>
<path fill="none" stroke="black" d="M1764.28,-598.517C1494.69,-597.954 642.191,-591.003 538.688,-526 418.74,-450.67 364.683,-364.139 415.688,-232 437.077,-176.587 491.707,-129.547 521.881,-106.74"/>
</g>
<!-- ActiveRecord::Base&#45;&gt;Comment -->
<g id="edge4" class="edge"><title>ActiveRecord::Base&#45;&gt;Comment</title>
<path fill="none" stroke="black" d="M1876,-582.617C1914.72,-561.264 1982.28,-520.344 2028.69,-472 2053.45,-446.203 2042.75,-425.001 2071.69,-404 2144.8,-350.946 2213.22,-425.299 2268.69,-354 2351.85,-247.095 2121.51,-139.489 2035.57,-104.097"/>
</g>
<!-- ActiveRecord::Base&#45;&gt;Endorsement -->
<g id="edge5" class="edge"><title>ActiveRecord::Base&#45;&gt;Endorsement</title>
<path fill="none" stroke="black" d="M1764.67,-597.193C1480,-592.072 542.688,-570.541 542.688,-509 542.688,-509 542.688,-509 542.688,-378 542.688,-271.158 723.346,-265.398 816.688,-214 835.081,-203.872 854.932,-190.799 869.588,-180.704"/>
</g>
<!-- ActiveRecord::Base&#45;&gt;EndorsementRequest -->
<g id="edge6" class="edge"><title>ActiveRecord::Base&#45;&gt;EndorsementRequest</title>
<path fill="none" stroke="black" d="M1764.25,-598.622C1462.79,-598.68 425.111,-595.219 376.688,-545 311.164,-477.047 591.712,-245.753 672.478,-181.613"/>
</g>
<!-- ActiveRecord::Base&#45;&gt;Favorite -->
<g id="edge7" class="edge"><title>ActiveRecord::Base&#45;&gt;Favorite</title>
<path fill="none" stroke="black" d="M1764.62,-597.503C1470.51,-593.625 473.827,-578.087 414.688,-545 397.906,-535.611 390.688,-528.23 390.688,-509 390.688,-509 390.688,-509 390.688,-378 390.688,-239.219 476.385,-209.693 599.688,-146 673.296,-107.977 925.335,-96.2329 1023.3,-93.0545"/>
</g>
<!-- ActiveRecord::Base&#45;&gt;Package -->
<g id="edge11" class="edge"><title>ActiveRecord::Base&#45;&gt;Package</title>
<path fill="none" stroke="black" d="M1877.8,-582.877C1894.63,-575.459 1915.82,-567.293 1935.69,-563 1990.74,-551.103 2439.69,-565.321 2439.69,-509 2439.69,-509 2439.69,-509 2439.69,-163 2439.69,-130.453 2341.02,-108.014 2285.51,-97.9661"/>
</g>
<!-- ActiveRecord::Base&#45;&gt;Party -->
<g id="edge20" class="edge"><title>ActiveRecord::Base&#45;&gt;Party</title>
<path fill="none" stroke="black" d="M1811.82,-583.114C1771.67,-564.872 1705.86,-534.973 1671.38,-519.309"/>
</g>
<!-- ActiveRecord::Base&#45;&gt;PartyInvitation -->
<g id="edge21" class="edge"><title>ActiveRecord::Base&#45;&gt;PartyInvitation</title>
<path fill="none" stroke="black" d="M1879.21,-582.942C1895.86,-575.821 1916.48,-567.896 1935.69,-563 2032.62,-538.291 2080.46,-589.57 2157.69,-526 2190.23,-499.21 2188.58,-481.16 2197.69,-440 2201.14,-424.378 2207.38,-416.729 2197.69,-404 2175.12,-374.364 2075.09,-354.514 2010.62,-344.541"/>
</g>
<!-- ActiveRecord::Base&#45;&gt;PartyPackage -->
<g id="edge22" class="edge"><title>ActiveRecord::Base&#45;&gt;PartyPackage</title>
<path fill="none" stroke="black" d="M1877.79,-582.829C1894.62,-575.398 1915.81,-567.236 1935.69,-563 1998.99,-549.511 2515.69,-573.723 2515.69,-509 2515.69,-509 2515.69,-509 2515.69,-90 2515.69,-69.4482 2503.16,-49.0882 2492.49,-35.4763"/>
</g>
<!-- ActiveRecord::Base&#45;&gt;PartyReservation -->
<g id="edge23" class="edge"><title>ActiveRecord::Base&#45;&gt;PartyReservation</title>
<path fill="none" stroke="black" d="M1764.74,-597.316C1585.63,-592.338 1144.56,-567.025 802.688,-440 760.381,-424.281 749.945,-416.511 716.688,-386 706.476,-376.632 697.095,-364.142 690.333,-354.118"/>
</g>
<!-- ActiveRecord::Base&#45;&gt;Role -->
<g id="edge26" class="edge"><title>ActiveRecord::Base&#45;&gt;Role</title>
<path fill="none" stroke="black" d="M1878.26,-582.868C1895.03,-575.544 1916.03,-567.465 1935.69,-563 1986.52,-551.454 2401.69,-561.124 2401.69,-509 2401.69,-509 2401.69,-509 2401.69,-378 2401.69,-349.279 2398.14,-338.167 2377.69,-318 2209.19,-151.831 1905.64,-105.227 1814.36,-94.6803"/>
</g>
<!-- ActiveRecord::Base&#45;&gt;Sport -->
<g id="edge31" class="edge"><title>ActiveRecord::Base&#45;&gt;Sport</title>
<path fill="none" stroke="black" d="M1844.53,-581.353C1841.75,-552.686 1832.46,-494.577 1801.69,-458 1745.26,-390.929 1642.22,-356.585 1593.53,-343.469"/>
</g>
<!-- ActiveRecord::Base&#45;&gt;Team -->
<g id="edge41" class="edge"><title>ActiveRecord::Base&#45;&gt;Team</title>
<path fill="none" stroke="black" d="M1766.85,-594.968C1579.13,-586.09 1109.91,-561.024 956.688,-526 784.994,-486.754 684.142,-508.552 599.688,-354 592.015,-339.959 588.82,-329.743 599.688,-318 617.249,-299.024 806.097,-303.691 831.688,-300 906.349,-289.233 993.02,-268.63 1035.87,-257.893"/>
</g>
<!-- ActiveRecord::Base&#45;&gt;Tenant -->
<g id="edge44" class="edge"><title>ActiveRecord::Base&#45;&gt;Tenant</title>
<path fill="none" stroke="black" d="M1879.24,-583.051C1895.89,-575.956 1916.51,-568.021 1935.69,-563 1992.54,-548.112 2012.33,-567.345 2066.69,-545 2078.44,-540.168 2089.89,-531.766 2098.66,-524.293"/>
</g>
<!-- ActiveRecord::Base&#45;&gt;User -->
<g id="edge64" class="edge"><title>ActiveRecord::Base&#45;&gt;User</title>
<path fill="none" stroke="black" d="M1782.12,-588.132C1678.07,-569.722 1478.82,-527.934 1437.69,-472 1430.88,-462.748 1432.85,-449.757 1436.26,-439.475"/>
</g>
<!-- ActiveRecord::Base&#45;&gt;UserPurchasedPackage -->
<g id="edge65" class="edge"><title>ActiveRecord::Base&#45;&gt;UserPurchasedPackage</title>
<path fill="none" stroke="black" d="M1878.29,-582.996C1895.07,-575.704 1916.07,-567.615 1935.69,-563 1990.36,-550.141 2147.39,-567.079 2185.69,-526 2223.62,-485.307 2230.44,-457.05 2213.69,-404 2207.66,-384.896 2194.01,-366.511 2182.97,-353.848"/>
</g>
<!-- ActiveRecord::Base&#45;&gt;Venue -->
<g id="edge74" class="edge"><title>ActiveRecord::Base&#45;&gt;Venue</title>
<path fill="none" stroke="black" d="M1878.27,-582.936C1895.05,-575.629 1916.05,-567.544 1935.69,-563 1996.19,-548.998 2168.26,-569.389 2212.69,-526 2281.18,-459.112 2326.93,-393.979 2268.69,-318 2200.58,-229.153 1835.6,-181.075 1725.29,-168.421"/>
</g>
<!-- ActiveRecord::Base&#45;&gt;Voucher -->
<g id="edge75" class="edge"><title>ActiveRecord::Base&#45;&gt;Voucher</title>
<path fill="none" stroke="black" d="M1764.29,-597.983C1474.87,-595.81 505.709,-585.551 372.688,-545 343.667,-536.153 314.688,-539.34 314.688,-509 314.688,-509 314.688,-509 314.688,-90 314.688,-57.9821 349.739,-38.6647 377.26,-28.432"/>
</g>
</g>
</svg>
