<?xml version="1.0" encoding="UTF-8" standalone="no"?>
<!DOCTYPE svg PUBLIC "-//W3C//DTD SVG 1.1//EN"
 "http://www.w3.org/Graphics/SVG/1.1/DTD/svg11.dtd">
<!-- Generated by graphviz version 2.38.0 (20140413.2041)
 -->
<!-- Title: models_diagram Pages: 1 -->
<svg width="2587pt" height="1813pt"
 viewBox="0.00 0.00 2587.19 1813.00" xmlns="http://www.w3.org/2000/svg" xmlns:xlink="http://www.w3.org/1999/xlink">
<g id="graph0" class="graph" transform="scale(1 1) rotate(0) translate(4 1809)">
<title>models_diagram</title>
<polygon fill="white" stroke="none" points="-4,4 -4,-1809 2583.19,-1809 2583.19,4 -4,4"/>
<!-- _diagram_info -->
<g id="node1" class="node"><title>_diagram_info</title>
<text text-anchor="start" x="8" y="-1790.6" font-family="Times,serif" font-size="13.00">Models diagram</text>
<text text-anchor="start" x="8" y="-1777.6" font-family="Times,serif" font-size="13.00">Date: Aug 09 2014 &#45; 14:26</text>
<text text-anchor="start" x="8" y="-1764.6" font-family="Times,serif" font-size="13.00">Migration version: 20140626141545</text>
<text text-anchor="start" x="8" y="-1751.6" font-family="Times,serif" font-size="13.00">Generated by RailRoady 1.1.1</text>
<text text-anchor="start" x="8" y="-1738.6" font-family="Times,serif" font-size="13.00">http://railroady.prestonlee.com</text>
</g>
<!-- Ability -->
<g id="node2" class="node"><title>Ability</title>
<polygon fill="none" stroke="black" points="230.853,-1573.5 230.853,-1617.5 286.522,-1617.5 286.522,-1573.5 230.853,-1573.5"/>
<text text-anchor="middle" x="258.688" y="-1602.3" font-family="Times,serif" font-size="14.00">Ability</text>
<polyline fill="none" stroke="black" points="230.853,-1595.5 286.522,-1595.5 "/>
<text text-anchor="middle" x="258.688" y="-1580.3" font-family="Times,serif" font-size="14.00"> </text>
</g>
<!-- Address -->
<g id="node3" class="node"><title>Address</title>
<path fill="none" stroke="black" d="M487.844,-159.5C487.844,-159.5 615.531,-159.5 615.531,-159.5 621.531,-159.5 627.531,-165.5 627.531,-171.5 627.531,-171.5 627.531,-345.5 627.531,-345.5 627.531,-351.5 621.531,-357.5 615.531,-357.5 615.531,-357.5 487.844,-357.5 487.844,-357.5 481.844,-357.5 475.844,-351.5 475.844,-345.5 475.844,-345.5 475.844,-171.5 475.844,-171.5 475.844,-165.5 481.844,-159.5 487.844,-159.5"/>
<text text-anchor="middle" x="551.688" y="-342.3" font-family="Times,serif" font-size="14.00">Address</text>
<polyline fill="none" stroke="black" points="475.844,-335.5 627.531,-335.5 "/>
<text text-anchor="start" x="483.844" y="-320.3" font-family="Times,serif" font-size="14.00">id :integer</text>
<text text-anchor="start" x="483.844" y="-306.3" font-family="Times,serif" font-size="14.00">addressable_id :integer</text>
<text text-anchor="start" x="483.844" y="-292.3" font-family="Times,serif" font-size="14.00">addressable_type :string</text>
<text text-anchor="start" x="483.844" y="-278.3" font-family="Times,serif" font-size="14.00">street1 :string</text>
<text text-anchor="start" x="483.844" y="-264.3" font-family="Times,serif" font-size="14.00">street2 :string</text>
<text text-anchor="start" x="483.844" y="-250.3" font-family="Times,serif" font-size="14.00">city :string</text>
<text text-anchor="start" x="483.844" y="-236.3" font-family="Times,serif" font-size="14.00">state :string</text>
<text text-anchor="start" x="483.844" y="-222.3" font-family="Times,serif" font-size="14.00">zip :string</text>
<text text-anchor="start" x="483.844" y="-208.3" font-family="Times,serif" font-size="14.00">latitude :float</text>
<text text-anchor="start" x="483.844" y="-194.3" font-family="Times,serif" font-size="14.00">longitude :float</text>
<text text-anchor="start" x="483.844" y="-180.3" font-family="Times,serif" font-size="14.00">created_at :datetime</text>
<text text-anchor="start" x="483.844" y="-166.3" font-family="Times,serif" font-size="14.00">updated_at :datetime</text>
</g>
<!-- Comment -->
<g id="node4" class="node"><title>Comment</title>
<path fill="none" stroke="black" d="M1962.79,-152.5C1962.79,-152.5 2100.59,-152.5 2100.59,-152.5 2106.59,-152.5 2112.59,-158.5 2112.59,-164.5 2112.59,-164.5 2112.59,-352.5 2112.59,-352.5 2112.59,-358.5 2106.59,-364.5 2100.59,-364.5 2100.59,-364.5 1962.79,-364.5 1962.79,-364.5 1956.79,-364.5 1950.79,-358.5 1950.79,-352.5 1950.79,-352.5 1950.79,-164.5 1950.79,-164.5 1950.79,-158.5 1956.79,-152.5 1962.79,-152.5"/>
<text text-anchor="middle" x="2031.69" y="-349.3" font-family="Times,serif" font-size="14.00">Comment</text>
<polyline fill="none" stroke="black" points="1950.79,-342.5 2112.59,-342.5 "/>
<text text-anchor="start" x="1958.79" y="-327.3" font-family="Times,serif" font-size="14.00">id :integer</text>
<text text-anchor="start" x="1958.79" y="-313.3" font-family="Times,serif" font-size="14.00">commentable_id :integer</text>
<text text-anchor="start" x="1958.79" y="-299.3" font-family="Times,serif" font-size="14.00">commentable_type :string</text>
<text text-anchor="start" x="1958.79" y="-285.3" font-family="Times,serif" font-size="14.00">commenter_id :integer</text>
<text text-anchor="start" x="1958.79" y="-271.3" font-family="Times,serif" font-size="14.00">commenter_type :string</text>
<text text-anchor="start" x="1958.79" y="-257.3" font-family="Times,serif" font-size="14.00">title :string</text>
<text text-anchor="start" x="1958.79" y="-243.3" font-family="Times,serif" font-size="14.00">body :text</text>
<text text-anchor="start" x="1958.79" y="-229.3" font-family="Times,serif" font-size="14.00">subject :string</text>
<text text-anchor="start" x="1958.79" y="-215.3" font-family="Times,serif" font-size="14.00">parent_id :integer</text>
<text text-anchor="start" x="1958.79" y="-201.3" font-family="Times,serif" font-size="14.00">lft :integer</text>
<text text-anchor="start" x="1958.79" y="-187.3" font-family="Times,serif" font-size="14.00">rgt :integer</text>
<text text-anchor="start" x="1958.79" y="-173.3" font-family="Times,serif" font-size="14.00">created_at :datetime</text>
<text text-anchor="start" x="1958.79" y="-159.3" font-family="Times,serif" font-size="14.00">updated_at :datetime</text>
</g>
<!-- Comment&#45;&gt;Comment -->
<g id="edge3" class="edge"><title>Comment&#45;&gt;Comment</title>
<path fill="none" stroke="#671067" d="M2120.48,-275.51C2126.76,-271.64 2130.59,-265.97 2130.59,-258.5 2130.59,-251.666 2127.38,-246.338 2122.03,-242.517"/>
<ellipse fill="none" stroke="#671067" cx="2116.43" cy="-277.35" rx="4.00002" ry="4.00002"/>
<polygon fill="#671067" stroke="#671067" points="2121.77,-242.388 2114.76,-233.954 2117.28,-240.193 2112.78,-237.997 2112.78,-237.997 2112.78,-237.997 2117.28,-240.193 2110.81,-242.04 2121.77,-242.388 2121.77,-242.388"/>
<text text-anchor="middle" x="2153.52" y="-254.3" font-family="Times,serif" font-size="14.00">children</text>
</g>
<!-- Concerns::TokenAuthenticatable -->
<g id="node5" class="node"><title>Concerns::TokenAuthenticatable</title>
<polygon fill="none" stroke="black" stroke-dasharray="1,5" points="2201.76,-1786.5 2001.62,-1786.5 2001.62,-1750.5 2201.76,-1750.5 2201.76,-1786.5"/>
<text text-anchor="middle" x="2101.69" y="-1764.3" font-family="Times,serif" font-size="14.00">Concerns::TokenAuthenticatable</text>
</g>
<!-- Endorsement -->
<g id="node6" class="node"><title>Endorsement</title>
<path fill="none" stroke="black" d="M822.176,-402.5C822.176,-402.5 945.2,-402.5 945.2,-402.5 951.2,-402.5 957.2,-408.5 957.2,-414.5 957.2,-414.5 957.2,-518.5 957.2,-518.5 957.2,-524.5 951.2,-530.5 945.2,-530.5 945.2,-530.5 822.176,-530.5 822.176,-530.5 816.176,-530.5 810.176,-524.5 810.176,-518.5 810.176,-518.5 810.176,-414.5 810.176,-414.5 810.176,-408.5 816.176,-402.5 822.176,-402.5"/>
<text text-anchor="middle" x="883.688" y="-515.3" font-family="Times,serif" font-size="14.00">Endorsement</text>
<polyline fill="none" stroke="black" points="810.176,-508.5 957.2,-508.5 "/>
<text text-anchor="start" x="818.176" y="-493.3" font-family="Times,serif" font-size="14.00">id :integer</text>
<text text-anchor="start" x="818.176" y="-479.3" font-family="Times,serif" font-size="14.00">endorsable_id :integer</text>
<text text-anchor="start" x="818.176" y="-465.3" font-family="Times,serif" font-size="14.00">endorsable_type :string</text>
<text text-anchor="start" x="818.176" y="-451.3" font-family="Times,serif" font-size="14.00">endorser_id :integer</text>
<text text-anchor="start" x="818.176" y="-437.3" font-family="Times,serif" font-size="14.00">endorser_type :string</text>
<text text-anchor="start" x="818.176" y="-423.3" font-family="Times,serif" font-size="14.00">created_at :datetime</text>
<text text-anchor="start" x="818.176" y="-409.3" font-family="Times,serif" font-size="14.00">updated_at :datetime</text>
</g>
<!-- EndorsementRequest -->
<g id="node7" class="node"><title>EndorsementRequest</title>
<path fill="none" stroke="black" d="M630.201,-409.5C630.201,-409.5 741.174,-409.5 741.174,-409.5 747.174,-409.5 753.174,-415.5 753.174,-421.5 753.174,-421.5 753.174,-511.5 753.174,-511.5 753.174,-517.5 747.174,-523.5 741.174,-523.5 741.174,-523.5 630.201,-523.5 630.201,-523.5 624.201,-523.5 618.201,-517.5 618.201,-511.5 618.201,-511.5 618.201,-421.5 618.201,-421.5 618.201,-415.5 624.201,-409.5 630.201,-409.5"/>
<text text-anchor="middle" x="685.688" y="-508.3" font-family="Times,serif" font-size="14.00">EndorsementRequest</text>
<polyline fill="none" stroke="black" points="618.201,-501.5 753.174,-501.5 "/>
<text text-anchor="start" x="626.201" y="-486.3" font-family="Times,serif" font-size="14.00">id :integer</text>
<text text-anchor="start" x="626.201" y="-472.3" font-family="Times,serif" font-size="14.00">user_id :integer</text>
<text text-anchor="start" x="626.201" y="-458.3" font-family="Times,serif" font-size="14.00">team_id :integer</text>
<text text-anchor="start" x="626.201" y="-444.3" font-family="Times,serif" font-size="14.00">status :string</text>
<text text-anchor="start" x="626.201" y="-430.3" font-family="Times,serif" font-size="14.00">created_at :datetime</text>
<text text-anchor="start" x="626.201" y="-416.3" font-family="Times,serif" font-size="14.00">updated_at :datetime</text>
</g>
<!-- Favorite -->
<g id="node8" class="node"><title>Favorite</title>
<path fill="none" stroke="black" d="M993.179,-194.5C993.179,-194.5 1116.2,-194.5 1116.2,-194.5 1122.2,-194.5 1128.2,-200.5 1128.2,-206.5 1128.2,-206.5 1128.2,-310.5 1128.2,-310.5 1128.2,-316.5 1122.2,-322.5 1116.2,-322.5 1116.2,-322.5 993.179,-322.5 993.179,-322.5 987.179,-322.5 981.179,-316.5 981.179,-310.5 981.179,-310.5 981.179,-206.5 981.179,-206.5 981.179,-200.5 987.179,-194.5 993.179,-194.5"/>
<text text-anchor="middle" x="1054.69" y="-307.3" font-family="Times,serif" font-size="14.00">Favorite</text>
<polyline fill="none" stroke="black" points="981.179,-300.5 1128.2,-300.5 "/>
<text text-anchor="start" x="989.179" y="-285.3" font-family="Times,serif" font-size="14.00">id :integer</text>
<text text-anchor="start" x="989.179" y="-271.3" font-family="Times,serif" font-size="14.00">favoritable_id :integer</text>
<text text-anchor="start" x="989.179" y="-257.3" font-family="Times,serif" font-size="14.00">favoritable_type :string</text>
<text text-anchor="start" x="989.179" y="-243.3" font-family="Times,serif" font-size="14.00">favoriter_id :integer</text>
<text text-anchor="start" x="989.179" y="-229.3" font-family="Times,serif" font-size="14.00">favoriter_type :string</text>
<text text-anchor="start" x="989.179" y="-215.3" font-family="Times,serif" font-size="14.00">created_at :datetime</text>
<text text-anchor="start" x="989.179" y="-201.3" font-family="Times,serif" font-size="14.00">updated_at :datetime</text>
</g>
<!-- Package -->
<g id="node9" class="node"><title>Package</title>
<path fill="none" stroke="black" d="M2269.18,-159.5C2269.18,-159.5 2378.19,-159.5 2378.19,-159.5 2384.19,-159.5 2390.19,-165.5 2390.19,-171.5 2390.19,-171.5 2390.19,-345.5 2390.19,-345.5 2390.19,-351.5 2384.19,-357.5 2378.19,-357.5 2378.19,-357.5 2269.18,-357.5 2269.18,-357.5 2263.18,-357.5 2257.18,-351.5 2257.18,-345.5 2257.18,-345.5 2257.18,-171.5 2257.18,-171.5 2257.18,-165.5 2263.18,-159.5 2269.18,-159.5"/>
<text text-anchor="middle" x="2323.69" y="-342.3" font-family="Times,serif" font-size="14.00">Package</text>
<polyline fill="none" stroke="black" points="2257.18,-335.5 2390.19,-335.5 "/>
<text text-anchor="start" x="2265.18" y="-320.3" font-family="Times,serif" font-size="14.00">id :integer</text>
<text text-anchor="start" x="2265.18" y="-306.3" font-family="Times,serif" font-size="14.00">name :string</text>
<text text-anchor="start" x="2265.18" y="-292.3" font-family="Times,serif" font-size="14.00">description :string</text>
<text text-anchor="start" x="2265.18" y="-278.3" font-family="Times,serif" font-size="14.00">image_url :string</text>
<text text-anchor="start" x="2265.18" y="-264.3" font-family="Times,serif" font-size="14.00">price :decimal</text>
<text text-anchor="start" x="2265.18" y="-250.3" font-family="Times,serif" font-size="14.00">active :boolean</text>
<text text-anchor="start" x="2265.18" y="-236.3" font-family="Times,serif" font-size="14.00">is_public :boolean</text>
<text text-anchor="start" x="2265.18" y="-222.3" font-family="Times,serif" font-size="14.00">start_date :datetime</text>
<text text-anchor="start" x="2265.18" y="-208.3" font-family="Times,serif" font-size="14.00">end_date :datetime</text>
<text text-anchor="start" x="2265.18" y="-194.3" font-family="Times,serif" font-size="14.00">venue_id :integer</text>
<text text-anchor="start" x="2265.18" y="-180.3" font-family="Times,serif" font-size="14.00">created_at :datetime</text>
<text text-anchor="start" x="2265.18" y="-166.3" font-family="Times,serif" font-size="14.00">updated_at :datetime</text>
</g>
<!-- Party -->
<g id="node10" class="node"><title>Party</title>
<path fill="none" stroke="black" d="M1622.24,-1496.5C1622.24,-1496.5 1749.13,-1496.5 1749.13,-1496.5 1755.13,-1496.5 1761.13,-1502.5 1761.13,-1508.5 1761.13,-1508.5 1761.13,-1682.5 1761.13,-1682.5 1761.13,-1688.5 1755.13,-1694.5 1749.13,-1694.5 1749.13,-1694.5 1622.24,-1694.5 1622.24,-1694.5 1616.24,-1694.5 1610.24,-1688.5 1610.24,-1682.5 1610.24,-1682.5 1610.24,-1508.5 1610.24,-1508.5 1610.24,-1502.5 1616.24,-1496.5 1622.24,-1496.5"/>
<text text-anchor="middle" x="1685.69" y="-1679.3" font-family="Times,serif" font-size="14.00">Party</text>
<polyline fill="none" stroke="black" points="1610.24,-1672.5 1761.13,-1672.5 "/>
<text text-anchor="start" x="1618.24" y="-1657.3" font-family="Times,serif" font-size="14.00">id :integer</text>
<text text-anchor="start" x="1618.24" y="-1643.3" font-family="Times,serif" font-size="14.00">name :string</text>
<text text-anchor="start" x="1618.24" y="-1629.3" font-family="Times,serif" font-size="14.00">is_private :boolean</text>
<text text-anchor="start" x="1618.24" y="-1615.3" font-family="Times,serif" font-size="14.00">verified :boolean</text>
<text text-anchor="start" x="1618.24" y="-1601.3" font-family="Times,serif" font-size="14.00">description :string</text>
<text text-anchor="start" x="1618.24" y="-1587.3" font-family="Times,serif" font-size="14.00">scheduled_for :datetime</text>
<text text-anchor="start" x="1618.24" y="-1573.3" font-family="Times,serif" font-size="14.00">organizer_id :integer</text>
<text text-anchor="start" x="1618.24" y="-1559.3" font-family="Times,serif" font-size="14.00">team_id :integer</text>
<text text-anchor="start" x="1618.24" y="-1545.3" font-family="Times,serif" font-size="14.00">sport_id :integer</text>
<text text-anchor="start" x="1618.24" y="-1531.3" font-family="Times,serif" font-size="14.00">venue_id :integer</text>
<text text-anchor="start" x="1618.24" y="-1517.3" font-family="Times,serif" font-size="14.00">created_at :datetime</text>
<text text-anchor="start" x="1618.24" y="-1503.3" font-family="Times,serif" font-size="14.00">updated_at :datetime</text>
</g>
<!-- Package&#45;&gt;Party -->
<g id="edge9" class="edge"><title>Package&#45;&gt;Party</title>
<path fill="none" stroke="#8571f3" d="M2350.54,-367.679C2356.3,-399.031 2360.69,-433.45 2360.69,-465.5 2360.69,-736 2360.69,-736 2360.69,-736 2360.69,-820.339 2366.13,-860.303 2303.69,-917 2264,-953.038 2104.01,-927.569 2067.69,-967 1922.29,-1124.85 2127.27,-1268.47 2006.69,-1446 1953.2,-1524.75 1846.76,-1562.58 1771.13,-1580.17"/>
<polygon fill="#8571f3" stroke="#8571f3" points="2350.49,-367.439 2353.04,-356.774 2349.56,-362.527 2348.62,-357.615 2348.62,-357.615 2348.62,-357.615 2349.56,-362.527 2344.2,-358.456 2350.49,-367.439 2350.49,-367.439"/>
<polygon fill="#8571f3" stroke="#8571f3" points="1770.89,-1580.23 1760.15,-1578.03 1766.01,-1581.32 1761.14,-1582.42 1761.14,-1582.42 1761.14,-1582.42 1766.01,-1581.32 1762.12,-1586.81 1770.89,-1580.23 1770.89,-1580.23"/>
</g>
<!-- PartyPackage -->
<g id="node12" class="node"><title>PartyPackage</title>
<path fill="none" stroke="black" d="M2458.18,-7.5C2458.18,-7.5 2567.19,-7.5 2567.19,-7.5 2573.19,-7.5 2579.19,-13.5 2579.19,-19.5 2579.19,-19.5 2579.19,-95.5 2579.19,-95.5 2579.19,-101.5 2573.19,-107.5 2567.19,-107.5 2567.19,-107.5 2458.18,-107.5 2458.18,-107.5 2452.18,-107.5 2446.18,-101.5 2446.18,-95.5 2446.18,-95.5 2446.18,-19.5 2446.18,-19.5 2446.18,-13.5 2452.18,-7.5 2458.18,-7.5"/>
<text text-anchor="middle" x="2512.69" y="-92.3" font-family="Times,serif" font-size="14.00">PartyPackage</text>
<polyline fill="none" stroke="black" points="2446.18,-85.5 2579.19,-85.5 "/>
<text text-anchor="start" x="2454.18" y="-70.3" font-family="Times,serif" font-size="14.00">id :integer</text>
<text text-anchor="start" x="2454.18" y="-56.3" font-family="Times,serif" font-size="14.00">party_id :integer</text>
<text text-anchor="start" x="2454.18" y="-42.3" font-family="Times,serif" font-size="14.00">package_id :integer</text>
<text text-anchor="start" x="2454.18" y="-28.3" font-family="Times,serif" font-size="14.00">created_at :datetime</text>
<text text-anchor="start" x="2454.18" y="-14.3" font-family="Times,serif" font-size="14.00">updated_at :datetime</text>
</g>
<!-- Package&#45;&gt;PartyPackage -->
<g id="edge8" class="edge"><title>Package&#45;&gt;PartyPackage</title>
<path fill="none" stroke="#ef9776" d="M2395.93,-181.439C2416.83,-159.427 2439.28,-135.792 2458.85,-115.184"/>
<ellipse fill="none" stroke="#ef9776" cx="2393.08" cy="-184.44" rx="4.00002" ry="4.00002"/>
<polygon fill="#ef9776" stroke="#ef9776" points="2459.04,-114.989 2469.19,-110.837 2462.48,-111.363 2465.92,-107.738 2465.92,-107.738 2465.92,-107.738 2462.48,-111.363 2462.66,-104.639 2459.04,-114.989 2459.04,-114.989"/>
</g>
<!-- Voucher -->
<g id="node21" class="node"><title>Voucher</title>
<path fill="none" stroke="black" d="M364.182,-0.5C364.182,-0.5 473.193,-0.5 473.193,-0.5 479.193,-0.5 485.193,-6.5 485.193,-12.5 485.193,-12.5 485.193,-102.5 485.193,-102.5 485.193,-108.5 479.193,-114.5 473.193,-114.5 473.193,-114.5 364.182,-114.5 364.182,-114.5 358.182,-114.5 352.182,-108.5 352.182,-102.5 352.182,-102.5 352.182,-12.5 352.182,-12.5 352.182,-6.5 358.182,-0.5 364.182,-0.5"/>
<text text-anchor="middle" x="418.688" y="-99.3" font-family="Times,serif" font-size="14.00">Voucher</text>
<polyline fill="none" stroke="black" points="352.182,-92.5 485.193,-92.5 "/>
<text text-anchor="start" x="360.182" y="-77.3" font-family="Times,serif" font-size="14.00">id :integer</text>
<text text-anchor="start" x="360.182" y="-63.3" font-family="Times,serif" font-size="14.00">redeemed :boolean</text>
<text text-anchor="start" x="360.182" y="-49.3" font-family="Times,serif" font-size="14.00">user_id :integer</text>
<text text-anchor="start" x="360.182" y="-35.3" font-family="Times,serif" font-size="14.00">package_id :integer</text>
<text text-anchor="start" x="360.182" y="-21.3" font-family="Times,serif" font-size="14.00">created_at :datetime</text>
<text text-anchor="start" x="360.182" y="-7.3" font-family="Times,serif" font-size="14.00">updated_at :datetime</text>
</g>
<!-- Package&#45;&gt;Voucher -->
<g id="edge10" class="edge"><title>Package&#45;&gt;Voucher</title>
<path fill="none" stroke="#2c7dd4" d="M2250.75,-189.441C2230.72,-174.476 2208.05,-160.555 2184.69,-152 2104.36,-122.582 825.159,-73.5114 495.63,-61.311"/>
<ellipse fill="none" stroke="#2c7dd4" cx="2253.98" cy="-191.904" rx="4.00002" ry="4.00002"/>
<polygon fill="#2c7dd4" stroke="#2c7dd4" points="495.227,-61.2961 485.4,-56.4297 490.23,-61.1114 485.233,-60.9266 485.233,-60.9266 485.233,-60.9266 490.23,-61.1114 485.067,-65.4235 495.227,-61.2961 495.227,-61.2961"/>
</g>
<!-- Party&#45;&gt;Address -->
<g id="edge19" class="edge"><title>Party&#45;&gt;Address</title>
<path fill="none" stroke="#28f2a5" d="M1601.95,-1591.66C1399.75,-1583.16 892.18,-1551.58 765.688,-1446 443.937,-1177.45 494.579,-603.164 531.918,-365.675"/>
<ellipse fill="none" stroke="#28f2a5" cx="1606.19" cy="-1591.83" rx="4" ry="4"/>
<ellipse fill="#28f2a5" stroke="#28f2a5" cx="532.556" cy="-361.664" rx="4.00001" ry="4.00001"/>
</g>
<!-- Party&#45;&gt;Comment -->
<g id="edge12" class="edge"><title>Party&#45;&gt;Comment</title>
<path fill="none" stroke="#0d15f9" d="M1769.11,-1570.71C1830.71,-1548.65 1911.27,-1509.47 1955.69,-1446 2079.2,-1269.51 1915.53,-1149.68 2029.69,-967 2050.33,-933.961 2079.62,-949.108 2101.69,-917 2121.77,-887.772 2120.69,-874.964 2120.69,-839.5 2120.69,-839.5 2120.69,-839.5 2120.69,-465.5 2120.69,-434.476 2112.08,-402.821 2100.21,-373.928"/>
<ellipse fill="none" stroke="#0d15f9" cx="1765.09" cy="-1572.12" rx="4.00001" ry="4.00001"/>
<polygon fill="#0d15f9" stroke="#0d15f9" points="2100.18,-373.846 2100.39,-362.883 2098.21,-369.248 2096.25,-364.649 2096.25,-364.649 2096.25,-364.649 2098.21,-369.248 2092.11,-366.415 2100.18,-373.846 2100.18,-373.846"/>
<text text-anchor="middle" x="2170.45" y="-730.8" font-family="Times,serif" font-size="14.00">comment_threads</text>
</g>
<!-- PartyInvitation -->
<g id="node11" class="node"><title>PartyInvitation</title>
<path fill="none" stroke="black" d="M1971.18,-760.5C1971.18,-760.5 2080.19,-760.5 2080.19,-760.5 2086.19,-760.5 2092.19,-766.5 2092.19,-772.5 2092.19,-772.5 2092.19,-904.5 2092.19,-904.5 2092.19,-910.5 2086.19,-916.5 2080.19,-916.5 2080.19,-916.5 1971.18,-916.5 1971.18,-916.5 1965.18,-916.5 1959.18,-910.5 1959.18,-904.5 1959.18,-904.5 1959.18,-772.5 1959.18,-772.5 1959.18,-766.5 1965.18,-760.5 1971.18,-760.5"/>
<text text-anchor="middle" x="2025.69" y="-901.3" font-family="Times,serif" font-size="14.00">PartyInvitation</text>
<polyline fill="none" stroke="black" points="1959.18,-894.5 2092.19,-894.5 "/>
<text text-anchor="start" x="1967.18" y="-879.3" font-family="Times,serif" font-size="14.00">id :integer</text>
<text text-anchor="start" x="1967.18" y="-865.3" font-family="Times,serif" font-size="14.00">email :string</text>
<text text-anchor="start" x="1967.18" y="-851.3" font-family="Times,serif" font-size="14.00">uuid :string</text>
<text text-anchor="start" x="1967.18" y="-837.3" font-family="Times,serif" font-size="14.00">status :string</text>
<text text-anchor="start" x="1967.18" y="-823.3" font-family="Times,serif" font-size="14.00">inviter_id :integer</text>
<text text-anchor="start" x="1967.18" y="-809.3" font-family="Times,serif" font-size="14.00">user_id :integer</text>
<text text-anchor="start" x="1967.18" y="-795.3" font-family="Times,serif" font-size="14.00">party_id :integer</text>
<text text-anchor="start" x="1967.18" y="-781.3" font-family="Times,serif" font-size="14.00">created_at :datetime</text>
<text text-anchor="start" x="1967.18" y="-767.3" font-family="Times,serif" font-size="14.00">updated_at :datetime</text>
</g>
<!-- Party&#45;&gt;PartyInvitation -->
<g id="edge15" class="edge"><title>Party&#45;&gt;PartyInvitation</title>
<path fill="none" stroke="#9e0193" d="M1768.32,-1559.41C1804.14,-1540.27 1843.55,-1513.2 1868.69,-1478 2004.43,-1287.89 1934.26,-1193.43 1991.69,-967 1995.02,-953.867 1998.63,-939.996 2002.2,-926.43"/>
<ellipse fill="none" stroke="#9e0193" cx="1764.75" cy="-1561.28" rx="4.00002" ry="4.00002"/>
<polygon fill="#9e0193" stroke="#9e0193" points="2002.24,-926.288 2009.15,-917.772 2003.52,-921.455 2004.8,-916.621 2004.8,-916.621 2004.8,-916.621 2003.52,-921.455 2000.45,-915.47 2002.24,-926.288 2002.24,-926.288"/>
</g>
<!-- Party&#45;&gt;PartyPackage -->
<g id="edge17" class="edge"><title>Party&#45;&gt;PartyPackage</title>
<path fill="none" stroke="#e37637" d="M1769.12,-1568.74C1833.54,-1547.63 1924.13,-1515.23 1999.69,-1478 2023.69,-1466.17 2035.67,-1468.14 2050.69,-1446 2172.2,-1266.87 1989.92,-1124.23 2138.69,-967 2154.95,-949.813 2325.29,-928.988 2345.69,-917 2440.05,-861.544 2512.69,-845.454 2512.69,-736 2512.69,-736 2512.69,-736 2512.69,-257.5 2512.69,-210.463 2512.69,-157.171 2512.69,-117.582"/>
<ellipse fill="none" stroke="#e37637" cx="1765.2" cy="-1570.02" rx="4.00001" ry="4.00001"/>
<polygon fill="#e37637" stroke="#e37637" points="2512.69,-117.568 2517.19,-107.568 2512.69,-112.568 2512.69,-107.568 2512.69,-107.568 2512.69,-107.568 2512.69,-112.568 2508.19,-107.568 2512.69,-117.568 2512.69,-117.568"/>
</g>
<!-- PartyReservation -->
<g id="node13" class="node"><title>PartyReservation</title>
<path fill="none" stroke="black" d="M621.182,-781.5C621.182,-781.5 730.193,-781.5 730.193,-781.5 736.193,-781.5 742.193,-787.5 742.193,-793.5 742.193,-793.5 742.193,-883.5 742.193,-883.5 742.193,-889.5 736.193,-895.5 730.193,-895.5 730.193,-895.5 621.182,-895.5 621.182,-895.5 615.182,-895.5 609.182,-889.5 609.182,-883.5 609.182,-883.5 609.182,-793.5 609.182,-793.5 609.182,-787.5 615.182,-781.5 621.182,-781.5"/>
<text text-anchor="middle" x="675.688" y="-880.3" font-family="Times,serif" font-size="14.00">PartyReservation</text>
<polyline fill="none" stroke="black" points="609.182,-873.5 742.193,-873.5 "/>
<text text-anchor="start" x="617.182" y="-858.3" font-family="Times,serif" font-size="14.00">id :integer</text>
<text text-anchor="start" x="617.182" y="-844.3" font-family="Times,serif" font-size="14.00">email :string</text>
<text text-anchor="start" x="617.182" y="-830.3" font-family="Times,serif" font-size="14.00">user_id :integer</text>
<text text-anchor="start" x="617.182" y="-816.3" font-family="Times,serif" font-size="14.00">party_id :integer</text>
<text text-anchor="start" x="617.182" y="-802.3" font-family="Times,serif" font-size="14.00">created_at :datetime</text>
<text text-anchor="start" x="617.182" y="-788.3" font-family="Times,serif" font-size="14.00">updated_at :datetime</text>
</g>
<!-- Party&#45;&gt;PartyReservation -->
<g id="edge13" class="edge"><title>Party&#45;&gt;PartyReservation</title>
<path fill="none" stroke="#144ddd" d="M1602.65,-1565.43C1532.21,-1539.06 1429.81,-1496.63 1347.69,-1446 1052.64,-1264.1 977.198,-1207.85 746.688,-949 734.546,-935.366 723.014,-919.466 712.91,-904.078"/>
<ellipse fill="none" stroke="#144ddd" cx="1606.47" cy="-1566.85" rx="4.00001" ry="4.00001"/>
<polygon fill="#144ddd" stroke="#144ddd" points="712.864,-904.006 711.232,-893.162 710.157,-899.803 707.449,-895.599 707.449,-895.599 707.449,-895.599 710.157,-899.803 703.666,-898.036 712.864,-904.006 712.864,-904.006"/>
</g>
<!-- User -->
<g id="node18" class="node"><title>User</title>
<path fill="none" stroke="black" d="M1368.63,-967.5C1368.63,-967.5 1592.75,-967.5 1592.75,-967.5 1598.75,-967.5 1604.75,-973.5 1604.75,-979.5 1604.75,-979.5 1604.75,-1433.5 1604.75,-1433.5 1604.75,-1439.5 1598.75,-1445.5 1592.75,-1445.5 1592.75,-1445.5 1368.63,-1445.5 1368.63,-1445.5 1362.63,-1445.5 1356.63,-1439.5 1356.63,-1433.5 1356.63,-1433.5 1356.63,-979.5 1356.63,-979.5 1356.63,-973.5 1362.63,-967.5 1368.63,-967.5"/>
<text text-anchor="middle" x="1480.69" y="-1430.3" font-family="Times,serif" font-size="14.00">User</text>
<polyline fill="none" stroke="black" points="1356.63,-1423.5 1604.75,-1423.5 "/>
<text text-anchor="start" x="1364.63" y="-1408.3" font-family="Times,serif" font-size="14.00">id :integer</text>
<text text-anchor="start" x="1364.63" y="-1394.3" font-family="Times,serif" font-size="14.00">email :string</text>
<text text-anchor="start" x="1364.63" y="-1380.3" font-family="Times,serif" font-size="14.00">encrypted_password :string</text>
<text text-anchor="start" x="1364.63" y="-1366.3" font-family="Times,serif" font-size="14.00">reset_password_token :string</text>
<text text-anchor="start" x="1364.63" y="-1352.3" font-family="Times,serif" font-size="14.00">reset_password_sent_at :datetime</text>
<text text-anchor="start" x="1364.63" y="-1338.3" font-family="Times,serif" font-size="14.00">remember_created_at :datetime</text>
<text text-anchor="start" x="1364.63" y="-1324.3" font-family="Times,serif" font-size="14.00">sign_in_count :integer</text>
<text text-anchor="start" x="1364.63" y="-1310.3" font-family="Times,serif" font-size="14.00">current_sign_in_at :datetime</text>
<text text-anchor="start" x="1364.63" y="-1296.3" font-family="Times,serif" font-size="14.00">last_sign_in_at :datetime</text>
<text text-anchor="start" x="1364.63" y="-1282.3" font-family="Times,serif" font-size="14.00">current_sign_in_ip :string</text>
<text text-anchor="start" x="1364.63" y="-1268.3" font-family="Times,serif" font-size="14.00">last_sign_in_ip :string</text>
<text text-anchor="start" x="1364.63" y="-1254.3" font-family="Times,serif" font-size="14.00">confirmation_token :string</text>
<text text-anchor="start" x="1364.63" y="-1240.3" font-family="Times,serif" font-size="14.00">confirmed_at :datetime</text>
<text text-anchor="start" x="1364.63" y="-1226.3" font-family="Times,serif" font-size="14.00">confirmation_sent_at :datetime</text>
<text text-anchor="start" x="1364.63" y="-1212.3" font-family="Times,serif" font-size="14.00">unconfirmed_email :string</text>
<text text-anchor="start" x="1364.63" y="-1198.3" font-family="Times,serif" font-size="14.00">failed_attempts :integer</text>
<text text-anchor="start" x="1364.63" y="-1184.3" font-family="Times,serif" font-size="14.00">unlock_token :string</text>
<text text-anchor="start" x="1364.63" y="-1170.3" font-family="Times,serif" font-size="14.00">locked_at :datetime</text>
<text text-anchor="start" x="1364.63" y="-1156.3" font-family="Times,serif" font-size="14.00">skip_confirm_change_password :boolean</text>
<text text-anchor="start" x="1364.63" y="-1142.3" font-family="Times,serif" font-size="14.00">tenant_id :integer</text>
<text text-anchor="start" x="1364.63" y="-1128.3" font-family="Times,serif" font-size="14.00">authentication_token :string</text>
<text text-anchor="start" x="1364.63" y="-1114.3" font-family="Times,serif" font-size="14.00">first_name :string</text>
<text text-anchor="start" x="1364.63" y="-1100.3" font-family="Times,serif" font-size="14.00">last_name :string</text>
<text text-anchor="start" x="1364.63" y="-1086.3" font-family="Times,serif" font-size="14.00">role :string</text>
<text text-anchor="start" x="1364.63" y="-1072.3" font-family="Times,serif" font-size="14.00">username :string</text>
<text text-anchor="start" x="1364.63" y="-1058.3" font-family="Times,serif" font-size="14.00">provider :string</text>
<text text-anchor="start" x="1364.63" y="-1044.3" font-family="Times,serif" font-size="14.00">uid :string</text>
<text text-anchor="start" x="1364.63" y="-1030.3" font-family="Times,serif" font-size="14.00">customer_id :string</text>
<text text-anchor="start" x="1364.63" y="-1016.3" font-family="Times,serif" font-size="14.00">facebook_access_token :string</text>
<text text-anchor="start" x="1364.63" y="-1002.3" font-family="Times,serif" font-size="14.00">image_url :string</text>
<text text-anchor="start" x="1364.63" y="-988.3" font-family="Times,serif" font-size="14.00">created_at :datetime</text>
<text text-anchor="start" x="1364.63" y="-974.3" font-family="Times,serif" font-size="14.00">updated_at :datetime</text>
</g>
<!-- Party&#45;&gt;User -->
<g id="edge14" class="edge"><title>Party&#45;&gt;User</title>
<path fill="none" stroke="#1f0078" d="M1601.03,-1562.99C1563.08,-1544.3 1521.73,-1516.59 1498.6,-1478 1494.21,-1470.67 1490.35,-1463.03 1486.97,-1455.14"/>
<polygon fill="#1f0078" stroke="#1f0078" points="1601.06,-1563.01 1608.14,-1571.38 1605.57,-1565.16 1610.08,-1567.32 1610.08,-1567.32 1610.08,-1567.32 1605.57,-1565.16 1612.02,-1563.26 1601.06,-1563.01 1601.06,-1563.01"/>
<polygon fill="#1f0078" stroke="#1f0078" points="1486.94,-1455.06 1487.4,-1444.11 1485.08,-1450.42 1483.22,-1445.78 1483.22,-1445.78 1483.22,-1445.78 1485.08,-1450.42 1479.05,-1447.45 1486.94,-1455.06 1486.94,-1455.06"/>
<text text-anchor="middle" x="1524.73" y="-1466.8" font-family="Times,serif" font-size="14.00">attendees</text>
</g>
<!-- Party&#45;&gt;User -->
<g id="edge16" class="edge"><title>Party&#45;&gt;User</title>
<path fill="none" stroke="#4b73ae" d="M1603.43,-1517.54C1592.65,-1505.02 1582.48,-1491.66 1574.14,-1478 1569.53,-1470.45 1565.11,-1462.64 1560.88,-1454.65"/>
<polygon fill="#4b73ae" stroke="#4b73ae" points="1603.59,-1517.72 1606.83,-1528.2 1606.9,-1521.47 1610.2,-1525.22 1610.2,-1525.22 1610.2,-1525.22 1606.9,-1521.47 1613.58,-1522.25 1603.59,-1517.72 1603.59,-1517.72"/>
<polygon fill="#4b73ae" stroke="#4b73ae" points="1560.77,-1454.44 1560.17,-1443.49 1558.47,-1450 1556.18,-1445.55 1556.18,-1445.55 1556.18,-1445.55 1558.47,-1450 1552.18,-1447.62 1560.77,-1454.44 1560.77,-1454.44"/>
<text text-anchor="middle" x="1596.46" y="-1466.8" font-family="Times,serif" font-size="14.00">invitees</text>
</g>
<!-- Party&#45;&gt;Voucher -->
<g id="edge18" class="edge"><title>Party&#45;&gt;Voucher</title>
<path fill="none" stroke="#2f3c52" d="M1601.78,-1589.63C1347.4,-1574.09 597.495,-1522.16 520.688,-1446 502.99,-1428.45 399.688,-581.922 399.688,-557 399.688,-557 399.688,-557 399.688,-257.5 399.688,-213.057 404.442,-163.283 409.194,-124.631"/>
<ellipse fill="none" stroke="#2f3c52" cx="1605.9" cy="-1589.88" rx="4" ry="4"/>
<polygon fill="#2f3c52" stroke="#2f3c52" points="409.214,-124.469 414.929,-115.11 409.839,-119.508 410.465,-114.548 410.465,-114.548 410.465,-114.548 409.839,-119.508 406,-113.985 409.214,-124.469 409.214,-124.469"/>
</g>
<!-- Role -->
<g id="node14" class="node"><title>Role</title>
<path fill="none" stroke="black" d="M1747.79,-201.5C1747.79,-201.5 1857.59,-201.5 1857.59,-201.5 1863.59,-201.5 1869.59,-207.5 1869.59,-213.5 1869.59,-213.5 1869.59,-303.5 1869.59,-303.5 1869.59,-309.5 1863.59,-315.5 1857.59,-315.5 1857.59,-315.5 1747.79,-315.5 1747.79,-315.5 1741.79,-315.5 1735.79,-309.5 1735.79,-303.5 1735.79,-303.5 1735.79,-213.5 1735.79,-213.5 1735.79,-207.5 1741.79,-201.5 1747.79,-201.5"/>
<text text-anchor="middle" x="1802.69" y="-300.3" font-family="Times,serif" font-size="14.00">Role</text>
<polyline fill="none" stroke="black" points="1735.79,-293.5 1869.59,-293.5 "/>
<text text-anchor="start" x="1743.79" y="-278.3" font-family="Times,serif" font-size="14.00">id :integer</text>
<text text-anchor="start" x="1743.79" y="-264.3" font-family="Times,serif" font-size="14.00">name :string</text>
<text text-anchor="start" x="1743.79" y="-250.3" font-family="Times,serif" font-size="14.00">resource_id :integer</text>
<text text-anchor="start" x="1743.79" y="-236.3" font-family="Times,serif" font-size="14.00">resource_type :string</text>
<text text-anchor="start" x="1743.79" y="-222.3" font-family="Times,serif" font-size="14.00">created_at :datetime</text>
<text text-anchor="start" x="1743.79" y="-208.3" font-family="Times,serif" font-size="14.00">updated_at :datetime</text>
</g>
<!-- Role&#45;&gt;User -->
<g id="edge25" class="edge"><title>Role&#45;&gt;User</title>
<path fill="none" stroke="#d5803d" d="M1847.29,-324.338C1869.92,-363.431 1892.69,-415.247 1892.69,-465.5 1892.69,-839.5 1892.69,-839.5 1892.69,-839.5 1892.69,-991.258 1734.52,-1095.47 1614.18,-1152.79"/>
<polygon fill="#d5803d" stroke="#d5803d" points="1847.26,-324.295 1846.03,-313.398 1844.71,-319.994 1842.16,-315.692 1842.16,-315.692 1842.16,-315.692 1844.71,-319.994 1838.29,-317.987 1847.26,-324.295 1847.26,-324.295"/>
<polygon fill="#d5803d" stroke="#d5803d" points="1613.91,-1152.92 1602.95,-1153.1 1609.38,-1155.05 1604.86,-1157.17 1604.86,-1157.17 1604.86,-1157.17 1609.38,-1155.05 1606.77,-1161.25 1613.91,-1152.92 1613.91,-1152.92"/>
</g>
<!-- RolesUser -->
<g id="node24" class="node"><title>RolesUser</title>
<ellipse fill="none" stroke="black" cx="1802.69" cy="-57.5" rx="46.8977" ry="18"/>
<text text-anchor="middle" x="1802.69" y="-53.3" font-family="Times,serif" font-size="14.00">RolesUser</text>
</g>
<!-- Role&#45;&gt;RolesUser -->
<g id="edge24" class="edge"><title>Role&#45;&gt;RolesUser</title>
<path fill="none" stroke="#1aaa07" d="M1802.69,-193.155C1802.69,-156.738 1802.69,-113.109 1802.69,-85.5929"/>
<ellipse fill="none" stroke="#1aaa07" cx="1802.69" cy="-197.273" rx="4" ry="4"/>
<polygon fill="#1aaa07" stroke="#1aaa07" points="1802.69,-85.5412 1807.19,-75.5412 1802.69,-80.5412 1802.69,-75.5412 1802.69,-75.5412 1802.69,-75.5412 1802.69,-80.5412 1798.19,-75.5413 1802.69,-85.5412 1802.69,-85.5412"/>
</g>
<!-- Sport -->
<g id="node15" class="node"><title>Sport</title>
<path fill="none" stroke="black" d="M1541.18,-788.5C1541.18,-788.5 1650.19,-788.5 1650.19,-788.5 1656.19,-788.5 1662.19,-794.5 1662.19,-800.5 1662.19,-800.5 1662.19,-876.5 1662.19,-876.5 1662.19,-882.5 1656.19,-888.5 1650.19,-888.5 1650.19,-888.5 1541.18,-888.5 1541.18,-888.5 1535.18,-888.5 1529.18,-882.5 1529.18,-876.5 1529.18,-876.5 1529.18,-800.5 1529.18,-800.5 1529.18,-794.5 1535.18,-788.5 1541.18,-788.5"/>
<text text-anchor="middle" x="1595.69" y="-873.3" font-family="Times,serif" font-size="14.00">Sport</text>
<polyline fill="none" stroke="black" points="1529.18,-866.5 1662.19,-866.5 "/>
<text text-anchor="start" x="1537.18" y="-851.3" font-family="Times,serif" font-size="14.00">id :integer</text>
<text text-anchor="start" x="1537.18" y="-837.3" font-family="Times,serif" font-size="14.00">name :string</text>
<text text-anchor="start" x="1537.18" y="-823.3" font-family="Times,serif" font-size="14.00">image_url :string</text>
<text text-anchor="start" x="1537.18" y="-809.3" font-family="Times,serif" font-size="14.00">created_at :datetime</text>
<text text-anchor="start" x="1537.18" y="-795.3" font-family="Times,serif" font-size="14.00">updated_at :datetime</text>
</g>
<!-- Sport&#45;&gt;Favorite -->
<g id="edge28" class="edge"><title>Sport&#45;&gt;Favorite</title>
<path fill="none" stroke="#de59a8" d="M1543.97,-782.25C1445.28,-676.811 1230.21,-447.032 1121.07,-330.425"/>
<ellipse fill="none" stroke="#de59a8" cx="1546.83" cy="-785.3" rx="4.00002" ry="4.00002"/>
<polygon fill="#de59a8" stroke="#de59a8" points="1120.87,-330.211 1117.32,-319.835 1117.46,-326.56 1114.04,-322.91 1114.04,-322.91 1114.04,-322.91 1117.46,-326.56 1110.75,-325.985 1120.87,-330.211 1120.87,-330.211"/>
</g>
<!-- Team -->
<g id="node16" class="node"><title>Team</title>
<path fill="none" stroke="black" d="M1000.18,-581.5C1000.18,-581.5 1109.19,-581.5 1109.19,-581.5 1115.19,-581.5 1121.19,-587.5 1121.19,-593.5 1121.19,-593.5 1121.19,-697.5 1121.19,-697.5 1121.19,-703.5 1115.19,-709.5 1109.19,-709.5 1109.19,-709.5 1000.18,-709.5 1000.18,-709.5 994.182,-709.5 988.182,-703.5 988.182,-697.5 988.182,-697.5 988.182,-593.5 988.182,-593.5 988.182,-587.5 994.182,-581.5 1000.18,-581.5"/>
<text text-anchor="middle" x="1054.69" y="-694.3" font-family="Times,serif" font-size="14.00">Team</text>
<polyline fill="none" stroke="black" points="988.182,-687.5 1121.19,-687.5 "/>
<text text-anchor="start" x="996.182" y="-672.3" font-family="Times,serif" font-size="14.00">id :integer</text>
<text text-anchor="start" x="996.182" y="-658.3" font-family="Times,serif" font-size="14.00">name :string</text>
<text text-anchor="start" x="996.182" y="-644.3" font-family="Times,serif" font-size="14.00">image_url :string</text>
<text text-anchor="start" x="996.182" y="-630.3" font-family="Times,serif" font-size="14.00">information :text</text>
<text text-anchor="start" x="996.182" y="-616.3" font-family="Times,serif" font-size="14.00">sport_id :integer</text>
<text text-anchor="start" x="996.182" y="-602.3" font-family="Times,serif" font-size="14.00">created_at :datetime</text>
<text text-anchor="start" x="996.182" y="-588.3" font-family="Times,serif" font-size="14.00">updated_at :datetime</text>
</g>
<!-- Sport&#45;&gt;Team -->
<g id="edge27" class="edge"><title>Sport&#45;&gt;Team</title>
<path fill="none" stroke="#5efcf0" d="M1552.58,-782.798C1543.03,-773.823 1532.26,-765.629 1520.69,-760 1451.17,-726.185 1422.05,-763.119 1347.69,-742 1333.92,-738.09 1332.01,-733.237 1318.69,-728 1256.7,-703.629 1184.29,-681.718 1130.99,-666.769"/>
<ellipse fill="none" stroke="#5efcf0" cx="1555.52" cy="-785.671" rx="4.00002" ry="4.00002"/>
<polygon fill="#5efcf0" stroke="#5efcf0" points="1130.91,-666.744 1122.48,-659.724 1126.09,-665.402 1121.27,-664.059 1121.27,-664.059 1121.27,-664.059 1126.09,-665.402 1120.07,-668.394 1130.91,-666.744 1130.91,-666.744"/>
</g>
<!-- Sport&#45;&gt;User -->
<g id="edge29" class="edge"><title>Sport&#45;&gt;User</title>
<path fill="none" stroke="#1d765e" d="M1595.53,-898.591C1594.51,-915.073 1592.48,-932.877 1588.69,-949 1588.01,-951.866 1587.31,-954.741 1586.58,-957.623"/>
<polygon fill="#1d765e" stroke="#1d765e" points="1595.53,-898.514 1600.53,-888.755 1595.78,-893.52 1596.04,-888.527 1596.04,-888.527 1596.04,-888.527 1595.78,-893.52 1591.54,-888.298 1595.53,-898.514 1595.53,-898.514"/>
<polygon fill="#1d765e" stroke="#1d765e" points="1586.54,-957.774 1579.64,-966.297 1585.26,-962.609 1583.99,-967.444 1583.99,-967.444 1583.99,-967.444 1585.26,-962.609 1588.34,-968.591 1586.54,-957.774 1586.54,-957.774"/>
<text text-anchor="middle" x="1603.35" y="-937.8" font-family="Times,serif" font-size="14.00">fans</text>
</g>
<!-- Venue -->
<g id="node20" class="node"><title>Venue</title>
<path fill="none" stroke="black" d="M1658.18,-402.5C1658.18,-402.5 1767.19,-402.5 1767.19,-402.5 1773.19,-402.5 1779.19,-408.5 1779.19,-414.5 1779.19,-414.5 1779.19,-518.5 1779.19,-518.5 1779.19,-524.5 1773.19,-530.5 1767.19,-530.5 1767.19,-530.5 1658.18,-530.5 1658.18,-530.5 1652.18,-530.5 1646.18,-524.5 1646.18,-518.5 1646.18,-518.5 1646.18,-414.5 1646.18,-414.5 1646.18,-408.5 1652.18,-402.5 1658.18,-402.5"/>
<text text-anchor="middle" x="1712.69" y="-515.3" font-family="Times,serif" font-size="14.00">Venue</text>
<polyline fill="none" stroke="black" points="1646.18,-508.5 1779.19,-508.5 "/>
<text text-anchor="start" x="1654.18" y="-493.3" font-family="Times,serif" font-size="14.00">id :integer</text>
<text text-anchor="start" x="1654.18" y="-479.3" font-family="Times,serif" font-size="14.00">name :string</text>
<text text-anchor="start" x="1654.18" y="-465.3" font-family="Times,serif" font-size="14.00">description :string</text>
<text text-anchor="start" x="1654.18" y="-451.3" font-family="Times,serif" font-size="14.00">image_url :string</text>
<text text-anchor="start" x="1654.18" y="-437.3" font-family="Times,serif" font-size="14.00">user_id :integer</text>
<text text-anchor="start" x="1654.18" y="-423.3" font-family="Times,serif" font-size="14.00">created_at :datetime</text>
<text text-anchor="start" x="1654.18" y="-409.3" font-family="Times,serif" font-size="14.00">updated_at :datetime</text>
</g>
<!-- Sport&#45;&gt;Venue -->
<g id="edge30" class="edge"><title>Sport&#45;&gt;Venue</title>
<path fill="none" stroke="#b9bef3" d="M1641.98,-780.193C1656.65,-759.244 1671.43,-734.622 1680.69,-710 1701.13,-655.634 1708.86,-590.141 1711.63,-540.929"/>
<polygon fill="#b9bef3" stroke="#b9bef3" points="1641.98,-780.198 1632.5,-785.716 1639.07,-784.266 1636.16,-788.333 1636.16,-788.333 1636.16,-788.333 1639.07,-784.266 1639.82,-790.95 1641.98,-780.198 1641.98,-780.198"/>
<polygon fill="#b9bef3" stroke="#b9bef3" points="1711.64,-540.671 1716.64,-530.912 1711.9,-535.678 1712.15,-530.684 1712.15,-530.684 1712.15,-530.684 1711.9,-535.678 1707.65,-530.457 1711.64,-540.671 1711.64,-540.671"/>
<text text-anchor="middle" x="1739.56" y="-641.3" font-family="Times,serif" font-size="14.00">venue_fans</text>
</g>
<!-- Team&#45;&gt;Address -->
<g id="edge40" class="edge"><title>Team&#45;&gt;Address</title>
<path fill="none" stroke="#60919d" d="M1045.59,-573.261C1035.17,-519.561 1013.1,-447.612 966.688,-402 876.413,-313.278 728.498,-279.696 635.795,-267.052"/>
<ellipse fill="none" stroke="#60919d" cx="1046.37" cy="-577.448" rx="4.00001" ry="4.00001"/>
<ellipse fill="#60919d" stroke="#60919d" cx="631.799" cy="-266.523" rx="4.00001" ry="4.00001"/>
</g>
<!-- Team&#45;&gt;Endorsement -->
<g id="edge36" class="edge"><title>Team&#45;&gt;Endorsement</title>
<path fill="none" stroke="#9f37b8" d="M983.895,-575.46C979.743,-571.265 975.649,-567.089 971.688,-563 963.923,-554.984 955.87,-546.498 947.932,-538.023"/>
<ellipse fill="none" stroke="#9f37b8" cx="986.764" cy="-578.348" rx="4.00002" ry="4.00002"/>
<polygon fill="#9f37b8" stroke="#9f37b8" points="947.818,-537.901 944.286,-527.519 944.407,-534.245 940.996,-530.59 940.996,-530.59 940.996,-530.59 944.407,-534.245 937.706,-533.66 947.818,-537.901 947.818,-537.901"/>
</g>
<!-- Team&#45;&gt;EndorsementRequest -->
<g id="edge38" class="edge"><title>Team&#45;&gt;EndorsementRequest</title>
<path fill="none" stroke="#5170fb" d="M980.524,-613.321C929.456,-591.376 860.327,-560.725 800.688,-531 788.205,-524.778 775.123,-517.905 762.441,-511.047"/>
<ellipse fill="none" stroke="#5170fb" cx="984.249" cy="-614.918" rx="4.00002" ry="4.00002"/>
<polygon fill="#5170fb" stroke="#5170fb" points="762.074,-510.848 755.443,-502.114 757.682,-508.457 753.291,-506.066 753.291,-506.066 753.291,-506.066 757.682,-508.457 751.139,-510.018 762.074,-510.848 762.074,-510.848"/>
</g>
<!-- Team&#45;&gt;Favorite -->
<g id="edge33" class="edge"><title>Team&#45;&gt;Favorite</title>
<path fill="none" stroke="#3e59de" d="M1054.69,-573.222C1054.69,-504.872 1054.69,-402.142 1054.69,-333.045"/>
<ellipse fill="none" stroke="#3e59de" cx="1054.69" cy="-577.356" rx="4" ry="4"/>
<polygon fill="#3e59de" stroke="#3e59de" points="1054.69,-332.678 1059.19,-322.678 1054.69,-327.678 1054.69,-322.678 1054.69,-322.678 1054.69,-322.678 1054.69,-327.678 1050.19,-322.678 1054.69,-332.678 1054.69,-332.678"/>
</g>
<!-- Team&#45;&gt;Role -->
<g id="edge32" class="edge"><title>Team&#45;&gt;Role</title>
<path fill="none" stroke="#4e2e0f" d="M1128.62,-606.448C1271.07,-533.127 1582.23,-372.971 1726.47,-298.73"/>
<ellipse fill="none" stroke="#4e2e0f" cx="1124.95" cy="-608.334" rx="4.00002" ry="4.00002"/>
<polygon fill="#4e2e0f" stroke="#4e2e0f" points="1726.83,-298.542 1737.78,-297.967 1731.28,-296.254 1735.73,-293.966 1735.73,-293.966 1735.73,-293.966 1731.28,-296.254 1733.67,-289.965 1726.83,-298.542 1726.83,-298.542"/>
</g>
<!-- Team&#45;&gt;User -->
<g id="edge34" class="edge"><title>Team&#45;&gt;User</title>
<path fill="none" stroke="#630720" d="M980.656,-705.882C965.886,-721.75 952.446,-740.088 944.364,-760 918.119,-824.654 918.005,-852.392 944.364,-917 1009.58,-1076.85 1209.8,-1150.16 1346.27,-1182.29"/>
<polygon fill="#630720" stroke="#630720" points="981.043,-705.482 991.23,-701.424 984.519,-701.888 987.996,-698.295 987.996,-698.295 987.996,-698.295 984.519,-701.888 984.761,-695.166 981.043,-705.482 981.043,-705.482"/>
<polygon fill="#630720" stroke="#630720" points="1346.65,-1182.37 1355.38,-1189.01 1351.52,-1183.5 1356.39,-1184.62 1356.39,-1184.62 1356.39,-1184.62 1351.52,-1183.5 1357.41,-1180.24 1346.65,-1182.37 1346.65,-1182.37"/>
<text text-anchor="middle" x="956.35" y="-834.3" font-family="Times,serif" font-size="14.00">fans</text>
</g>
<!-- Team&#45;&gt;User -->
<g id="edge37" class="edge"><title>Team&#45;&gt;User</title>
<path fill="none" stroke="#45ef65" d="M1018.17,-719.28C995.318,-775.428 975.16,-853.903 1003.9,-917 1066.27,-1053.91 1228.79,-1130.94 1346.78,-1170.32"/>
<polygon fill="#45ef65" stroke="#45ef65" points="1018.3,-718.99 1026.31,-711.506 1020.23,-714.379 1022.16,-709.767 1022.16,-709.767 1022.16,-709.767 1020.23,-714.379 1018.01,-708.028 1018.3,-718.99 1018.3,-718.99"/>
<polygon fill="#45ef65" stroke="#45ef65" points="1347.12,-1170.44 1355.22,-1177.83 1351.87,-1172 1356.62,-1173.56 1356.62,-1173.56 1356.62,-1173.56 1351.87,-1172 1358.03,-1169.28 1347.12,-1170.44 1347.12,-1170.44"/>
<text text-anchor="middle" x="1019.08" y="-834.3" font-family="Times,serif" font-size="14.00">hosts</text>
</g>
<!-- Team&#45;&gt;User -->
<g id="edge39" class="edge"><title>Team&#45;&gt;User</title>
<path fill="none" stroke="#6e1a91" d="M1120.26,-717.807C1130.43,-731.184 1140.07,-745.532 1147.69,-760 1181.53,-824.296 1156.34,-854.421 1193.26,-917 1233.58,-985.336 1293.78,-1049.2 1348.69,-1099.38"/>
<polygon fill="#6e1a91" stroke="#6e1a91" points="1120.02,-717.496 1117.42,-706.843 1116.94,-713.553 1113.87,-709.61 1113.87,-709.61 1113.87,-709.61 1116.94,-713.553 1110.32,-712.377 1120.02,-717.496 1120.02,-717.496"/>
<polygon fill="#6e1a91" stroke="#6e1a91" points="1348.99,-1099.65 1353.38,-1109.7 1352.69,-1103.01 1356.4,-1106.37 1356.4,-1106.37 1356.4,-1106.37 1352.69,-1103.01 1359.42,-1103.03 1348.99,-1099.65 1348.99,-1099.65"/>
<text text-anchor="middle" x="1238.4" y="-834.3" font-family="Times,serif" font-size="14.00">requested_hosts</text>
</g>
<!-- Team&#45;&gt;Venue -->
<g id="edge35" class="edge"><title>Team&#45;&gt;Venue</title>
<path fill="none" stroke="#b3dff7" d="M1131.43,-622.624C1200.72,-602.984 1305.51,-573.551 1396.94,-549 1478.42,-527.118 1572.04,-503.093 1636.05,-486.836"/>
<polygon fill="#b3dff7" stroke="#b3dff7" points="1131.09,-622.72 1120.25,-621.119 1126.28,-624.084 1121.47,-625.449 1121.47,-625.449 1121.47,-625.449 1126.28,-624.084 1122.7,-629.778 1131.09,-622.72 1131.09,-622.72"/>
<polygon fill="#b3dff7" stroke="#b3dff7" points="1636.37,-486.755 1647.17,-488.657 1641.21,-485.525 1646.06,-484.295 1646.06,-484.295 1646.06,-484.295 1641.21,-485.525 1644.95,-479.934 1636.37,-486.755 1636.37,-486.755"/>
<text text-anchor="middle" x="1429.56" y="-551.8" font-family="Times,serif" font-size="14.00">venue_fans</text>
</g>
<!-- Tenant -->
<g id="node17" class="node"><title>Tenant</title>
<path fill="none" stroke="black" d="M2134.18,-1538.5C2134.18,-1538.5 2243.19,-1538.5 2243.19,-1538.5 2249.19,-1538.5 2255.19,-1544.5 2255.19,-1550.5 2255.19,-1550.5 2255.19,-1640.5 2255.19,-1640.5 2255.19,-1646.5 2249.19,-1652.5 2243.19,-1652.5 2243.19,-1652.5 2134.18,-1652.5 2134.18,-1652.5 2128.18,-1652.5 2122.18,-1646.5 2122.18,-1640.5 2122.18,-1640.5 2122.18,-1550.5 2122.18,-1550.5 2122.18,-1544.5 2128.18,-1538.5 2134.18,-1538.5"/>
<text text-anchor="middle" x="2188.69" y="-1637.3" font-family="Times,serif" font-size="14.00">Tenant</text>
<polyline fill="none" stroke="black" points="2122.18,-1630.5 2255.19,-1630.5 "/>
<text text-anchor="start" x="2130.18" y="-1615.3" font-family="Times,serif" font-size="14.00">id :integer</text>
<text text-anchor="start" x="2130.18" y="-1601.3" font-family="Times,serif" font-size="14.00">tenant_id :integer</text>
<text text-anchor="start" x="2130.18" y="-1587.3" font-family="Times,serif" font-size="14.00">name :string</text>
<text text-anchor="start" x="2130.18" y="-1573.3" font-family="Times,serif" font-size="14.00">api_token :string</text>
<text text-anchor="start" x="2130.18" y="-1559.3" font-family="Times,serif" font-size="14.00">created_at :datetime</text>
<text text-anchor="start" x="2130.18" y="-1545.3" font-family="Times,serif" font-size="14.00">updated_at :datetime</text>
</g>
<!-- Tenant&#45;&gt;User -->
<g id="edge43" class="edge"><title>Tenant&#45;&gt;User</title>
<path fill="none" stroke="#06716a" d="M2113.19,-1553.23C1994.26,-1488.23 1761.67,-1361.09 1614.1,-1280.43"/>
<polygon fill="#06716a" stroke="#06716a" points="2113.31,-1553.3 2119.92,-1562.04 2117.69,-1555.69 2122.08,-1558.09 2122.08,-1558.09 2122.08,-1558.09 2117.69,-1555.69 2124.24,-1554.14 2113.31,-1553.3 2113.31,-1553.3"/>
<polygon fill="#06716a" stroke="#06716a" points="1613.72,-1280.22 1607.11,-1271.47 1609.33,-1277.82 1604.95,-1275.42 1604.95,-1275.42 1604.95,-1275.42 1609.33,-1277.82 1602.79,-1279.37 1613.72,-1280.22 1613.72,-1280.22"/>
</g>
<!-- TenantsUser -->
<g id="node25" class="node"><title>TenantsUser</title>
<ellipse fill="none" stroke="black" cx="2201.69" cy="-1206.5" rx="54.3639" ry="18"/>
<text text-anchor="middle" x="2201.69" y="-1202.3" font-family="Times,serif" font-size="14.00">TenantsUser</text>
</g>
<!-- Tenant&#45;&gt;TenantsUser -->
<g id="edge42" class="edge"><title>Tenant&#45;&gt;TenantsUser</title>
<path fill="none" stroke="#741486" d="M2190.85,-1530.18C2193.74,-1444.24 2198.72,-1295.73 2200.77,-1234.8"/>
<ellipse fill="none" stroke="#741486" cx="2190.71" cy="-1534.23" rx="4" ry="4"/>
<polygon fill="#741486" stroke="#741486" points="2200.77,-1234.79 2205.6,-1224.95 2200.94,-1229.8 2201.11,-1224.8 2201.11,-1224.8 2201.11,-1224.8 2200.94,-1229.8 2196.61,-1224.65 2200.77,-1234.79 2200.77,-1234.79"/>
</g>
<!-- User&#45;&gt;Address -->
<g id="edge63" class="edge"><title>User&#45;&gt;Address</title>
<path fill="none" stroke="#96564c" d="M1349.33,-1110.23C1272.43,-1059.32 1171.32,-1000.42 1072.69,-967 987.133,-938.013 938.988,-981.443 875.688,-917 819.171,-859.463 829.486,-827.066 784.688,-760 713.537,-653.484 664.238,-646.898 609.688,-531 585.382,-479.359 571.152,-417.402 562.877,-365.721"/>
<ellipse fill="none" stroke="#96564c" cx="1352.89" cy="-1112.6" rx="4.00002" ry="4.00002"/>
<ellipse fill="#96564c" stroke="#96564c" cx="562.215" cy="-361.471" rx="4.00001" ry="4.00001"/>
</g>
<!-- User&#45;&gt;Comment -->
<g id="edge47" class="edge"><title>User&#45;&gt;Comment</title>
<path fill="none" stroke="#83ef72" d="M1609.22,-1032.27C1632.46,-995.518 1654.68,-956.007 1671.69,-917 1700.38,-851.19 1670.35,-820.053 1709.69,-760 1729.85,-729.217 1751.43,-737.676 1775.69,-710 1800.53,-681.653 1902.57,-497.326 1970.08,-373.409"/>
<ellipse fill="none" stroke="#83ef72" cx="1607.01" cy="-1035.72" rx="4.00002" ry="4.00002"/>
<polygon fill="#83ef72" stroke="#83ef72" points="1970.1,-373.377 1978.83,-366.746 1972.49,-368.986 1974.88,-364.594 1974.88,-364.594 1974.88,-364.594 1972.49,-368.986 1970.93,-362.442 1970.1,-373.377 1970.1,-373.377"/>
</g>
<!-- User&#45;&gt;Endorsement -->
<g id="edge53" class="edge"><title>User&#45;&gt;Endorsement</title>
<path fill="none" stroke="#180d42" d="M1349.47,-1111.39C1272.42,-1060.7 1171.11,-1001.63 1072.69,-967 1005.6,-943.395 950.064,-981.766 920.688,-917 864.961,-794.14 867.485,-633.053 875.094,-540.843"/>
<ellipse fill="none" stroke="#180d42" cx="1353.04" cy="-1113.75" rx="4.00002" ry="4.00002"/>
<polygon fill="#180d42" stroke="#180d42" points="875.103,-540.732 880.451,-531.158 875.536,-535.75 875.968,-530.769 875.968,-530.769 875.968,-530.769 875.536,-535.75 871.485,-530.38 875.103,-540.732 875.103,-540.732"/>
</g>
<!-- User&#45;&gt;Favorite -->
<g id="edge48" class="edge"><title>User&#45;&gt;Favorite</title>
<path fill="none" stroke="#365db5" d="M1349.5,-1108.06C1272.85,-1056.62 1171.92,-997.906 1072.69,-967 1047.16,-959.048 851.611,-967.895 832.688,-949 789.605,-905.983 769.922,-454.536 800.688,-402 837.235,-339.59 912.238,-302.435 971.313,-281.796"/>
<ellipse fill="none" stroke="#365db5" cx="1353.05" cy="-1110.46" rx="4.00002" ry="4.00002"/>
<polygon fill="#365db5" stroke="#365db5" points="971.552,-281.715 982.468,-282.763 976.287,-280.109 981.022,-278.502 981.022,-278.502 981.022,-278.502 976.287,-280.109 979.575,-274.24 971.552,-281.715 971.552,-281.715"/>
</g>
<!-- User&#45;&gt;Package -->
<g id="edge61" class="edge"><title>User&#45;&gt;Package</title>
<path fill="none" stroke="#47029d" d="M1613.93,-1139.7C1697.23,-1094.08 1803.05,-1027.54 1880.69,-949 1926.68,-902.47 1935.4,-787.983 1949.69,-760 2032.42,-597.984 2167.26,-433.446 2250.44,-339.222"/>
<polygon fill="#47029d" stroke="#47029d" points="1613.7,-1139.82 1602.76,-1140.64 1609.31,-1142.21 1604.91,-1144.6 1604.91,-1144.6 1604.91,-1144.6 1609.31,-1142.21 1607.06,-1148.55 1613.7,-1139.82 1613.7,-1139.82"/>
<polygon fill="#47029d" stroke="#47029d" points="2250.45,-339.209 2260.45,-334.706 2253.76,-335.466 2257.08,-331.723 2257.08,-331.723 2257.08,-331.723 2253.76,-335.466 2253.71,-328.739 2250.45,-339.209 2250.45,-339.209"/>
</g>
<!-- User&#45;&gt;Party -->
<g id="edge56" class="edge"><title>User&#45;&gt;Party</title>
<path fill="none" stroke="#75d527" d="M1609.45,-1448.4C1612.22,-1453.65 1614.97,-1458.85 1617.69,-1464 1621.72,-1471.63 1625.86,-1479.53 1630.03,-1487.47"/>
<polygon fill="#75d527" stroke="#75d527" points="1609.43,-1448.37 1608.73,-1437.43 1607.09,-1443.95 1604.76,-1439.53 1604.76,-1439.53 1604.76,-1439.53 1607.09,-1443.95 1600.78,-1441.64 1609.43,-1448.37 1609.43,-1448.37"/>
<polygon fill="#75d527" stroke="#75d527" points="1630.1,-1487.6 1630.75,-1498.55 1632.42,-1492.03 1634.74,-1496.46 1634.74,-1496.46 1634.74,-1496.46 1632.42,-1492.03 1638.73,-1494.37 1630.1,-1487.6 1630.1,-1487.6"/>
<text text-anchor="middle" x="1656.51" y="-1466.8" font-family="Times,serif" font-size="14.00">reservations</text>
</g>
<!-- User&#45;&gt;Party -->
<g id="edge58" class="edge"><title>User&#45;&gt;Party</title>
<path fill="none" stroke="#162892" d="M1611.51,-1329.28C1645.18,-1368.66 1676.91,-1414.93 1694.69,-1464 1697.27,-1471.13 1699.03,-1478.61 1700.13,-1486.24"/>
<polygon fill="#162892" stroke="#162892" points="1611.3,-1329.05 1608.15,-1318.55 1608.03,-1325.28 1604.75,-1321.5 1604.75,-1321.5 1604.75,-1321.5 1608.03,-1325.28 1601.35,-1324.45 1611.3,-1329.05 1611.3,-1329.05"/>
<polygon fill="#162892" stroke="#162892" points="1700.14,-1486.4 1696.74,-1496.82 1700.68,-1491.37 1701.21,-1496.34 1701.21,-1496.34 1701.21,-1496.34 1700.68,-1491.37 1705.69,-1495.86 1700.14,-1486.4 1700.14,-1486.4"/>
<text text-anchor="middle" x="1727.24" y="-1466.8" font-family="Times,serif" font-size="14.00">invitations</text>
</g>
<!-- User&#45;&gt;Party -->
<g id="edge59" class="edge"><title>User&#45;&gt;Party</title>
<path fill="none" stroke="#6623a6" d="M1475.65,-1453.28C1479.04,-1461.82 1483.03,-1470.1 1487.69,-1478 1512.53,-1520.17 1559.06,-1548.68 1600.77,-1566.94"/>
<ellipse fill="none" stroke="#6623a6" cx="1474.22" cy="-1449.46" rx="4.00001" ry="4.00001"/>
<polygon fill="#6623a6" stroke="#6623a6" points="1600.93,-1567.01 1608.38,-1575.05 1605.53,-1568.96 1610.14,-1570.91 1610.14,-1570.91 1610.14,-1570.91 1605.53,-1568.96 1611.89,-1566.76 1600.93,-1567.01 1600.93,-1567.01"/>
</g>
<!-- User&#45;&gt;PartyInvitation -->
<g id="edge57" class="edge"><title>User&#45;&gt;PartyInvitation</title>
<path fill="none" stroke="#b66de0" d="M1612.15,-1144.59C1705.45,-1098.05 1830.95,-1028.51 1928.69,-949 1938.09,-941.349 1947.36,-932.744 1956.22,-923.806"/>
<ellipse fill="none" stroke="#b66de0" cx="1608.51" cy="-1146.4" rx="4.00002" ry="4.00002"/>
<polygon fill="#b66de0" stroke="#b66de0" points="1956.27,-923.757 1966.46,-919.713 1959.75,-920.168 1963.23,-916.579 1963.23,-916.579 1963.23,-916.579 1959.75,-920.168 1960,-913.446 1956.27,-923.757 1956.27,-923.757"/>
</g>
<!-- User&#45;&gt;PartyReservation -->
<g id="edge55" class="edge"><title>User&#45;&gt;PartyReservation</title>
<path fill="none" stroke="#9b49cf" d="M1348.51,-1180.41C1197.02,-1146.86 946.418,-1076.3 765.688,-949 748.226,-936.701 732.259,-920.154 718.78,-903.654"/>
<ellipse fill="none" stroke="#9b49cf" cx="1352.64" cy="-1181.32" rx="4.00001" ry="4.00001"/>
<polygon fill="#9b49cf" stroke="#9b49cf" points="718.586,-903.409 715.892,-892.778 715.477,-899.492 712.368,-895.576 712.368,-895.576 712.368,-895.576 715.477,-899.492 708.844,-898.374 718.586,-903.409 718.586,-903.409"/>
</g>
<!-- User&#45;&gt;Sport -->
<g id="edge49" class="edge"><title>User&#45;&gt;Sport</title>
<path fill="none" stroke="#c5caa3" d="M1483.68,-957.68C1486.81,-949.879 1490.39,-942.294 1494.47,-935 1501.37,-922.666 1509.89,-926.124 1520.69,-917 1528.41,-910.473 1536.21,-903.251 1543.71,-895.918"/>
<polygon fill="#c5caa3" stroke="#c5caa3" points="1483.59,-957.93 1475.87,-965.72 1481.84,-962.613 1480.09,-967.296 1480.09,-967.296 1480.09,-967.296 1481.84,-962.613 1484.3,-968.873 1483.59,-957.93 1483.59,-957.93"/>
<polygon fill="#c5caa3" stroke="#c5caa3" points="1544.01,-895.621 1554.28,-891.761 1547.56,-892.095 1551.1,-888.57 1551.1,-888.57 1551.1,-888.57 1547.56,-892.095 1547.93,-885.379 1544.01,-895.621 1544.01,-895.621"/>
<text text-anchor="middle" x="1539.79" y="-937.8" font-family="Times,serif" font-size="14.00">followed_sports</text>
</g>
<!-- User&#45;&gt;Team -->
<g id="edge50" class="edge"><title>User&#45;&gt;Team</title>
<path fill="none" stroke="#e99192" d="M1347.18,-1155.83C1246.52,-1110.48 1115.68,-1032.7 1054.27,-917 1036.81,-884.104 1041.14,-788.137 1046.97,-719.879"/>
<polygon fill="#e99192" stroke="#e99192" points="1347.38,-1155.92 1354.69,-1164.1 1351.95,-1157.96 1356.51,-1159.99 1356.51,-1159.99 1356.51,-1159.99 1351.95,-1157.96 1358.34,-1155.88 1347.38,-1155.92 1347.38,-1155.92"/>
<polygon fill="#e99192" stroke="#e99192" points="1047,-719.56 1052.36,-709.994 1047.44,-714.579 1047.88,-709.598 1047.88,-709.598 1047.88,-709.598 1047.44,-714.579 1043.39,-709.203 1047,-719.56 1047,-719.56"/>
<text text-anchor="middle" x="1099.4" y="-834.3" font-family="Times,serif" font-size="14.00">followed_teams</text>
</g>
<!-- User&#45;&gt;Team -->
<g id="edge54" class="edge"><title>User&#45;&gt;Team</title>
<path fill="none" stroke="#8f0679" d="M1351.78,-1001.33C1337.54,-973.654 1324.4,-945.096 1313.82,-917 1288.75,-850.425 1325.87,-816.53 1282.69,-760 1245.43,-711.227 1181.55,-681.977 1130.86,-665.417"/>
<polygon fill="#8f0679" stroke="#8f0679" points="1351.82,-1001.42 1352.44,-1012.36 1354.13,-1005.85 1356.44,-1010.29 1356.44,-1010.29 1356.44,-1010.29 1354.13,-1005.85 1360.43,-1008.21 1351.82,-1001.42 1351.82,-1001.42"/>
<polygon fill="#8f0679" stroke="#8f0679" points="1130.77,-665.388 1122.6,-658.081 1126.01,-663.88 1121.24,-662.371 1121.24,-662.371 1121.24,-662.371 1126.01,-663.88 1119.88,-666.662 1130.77,-665.388 1130.77,-665.388"/>
<text text-anchor="middle" x="1362.12" y="-834.3" font-family="Times,serif" font-size="14.00">endorsing_teams</text>
</g>
<!-- User&#45;&gt;User -->
<g id="edge51" class="edge"><title>User&#45;&gt;User</title>
<path fill="none" stroke="#625801" d="M1613.9,-1221.45C1619.5,-1217.6 1622.75,-1212.61 1622.75,-1206.5 1622.75,-1200.39 1619.5,-1195.4 1613.9,-1191.55"/>
<polygon fill="#625801" stroke="#625801" points="1613.82,-1221.49 1602.86,-1221.97 1609.35,-1223.74 1604.89,-1225.99 1604.89,-1225.99 1604.89,-1225.99 1609.35,-1223.74 1606.92,-1230.01 1613.82,-1221.49 1613.82,-1221.49"/>
<polygon fill="#625801" stroke="#625801" points="1613.82,-1191.51 1606.92,-1182.99 1609.35,-1189.26 1604.89,-1187.01 1604.89,-1187.01 1604.89,-1187.01 1609.35,-1189.26 1602.86,-1191.03 1613.82,-1191.51 1613.82,-1191.51"/>
<text text-anchor="middle" x="1649.96" y="-1202.3" font-family="Times,serif" font-size="14.00">followees</text>
</g>
<!-- User&#45;&gt;User -->
<g id="edge52" class="edge"><title>User&#45;&gt;User</title>
<path fill="none" stroke="#e0c217" d="M1614.95,-1255.18C1650.02,-1251.48 1677.18,-1235.25 1677.18,-1206.5 1677.18,-1177.75 1650.02,-1161.52 1614.95,-1157.82"/>
<polygon fill="#e0c217" stroke="#e0c217" points="1614.84,-1255.19 1604.55,-1251.4 1609.85,-1255.54 1604.86,-1255.89 1604.86,-1255.89 1604.86,-1255.89 1609.85,-1255.54 1605.18,-1260.38 1614.84,-1255.19 1614.84,-1255.19"/>
<polygon fill="#e0c217" stroke="#e0c217" points="1614.84,-1157.81 1605.18,-1152.62 1609.85,-1157.46 1604.86,-1157.11 1604.86,-1157.11 1604.86,-1157.11 1609.85,-1157.46 1604.55,-1161.6 1614.84,-1157.81 1614.84,-1157.81"/>
<text text-anchor="middle" x="1703.61" y="-1202.3" font-family="Times,serif" font-size="14.00">followers</text>
</g>
<!-- UserPurchasedPackage -->
<g id="node19" class="node"><title>UserPurchasedPackage</title>
<path fill="none" stroke="black" d="M2160.38,-774.5C2160.38,-774.5 2282.99,-774.5 2282.99,-774.5 2288.99,-774.5 2294.99,-780.5 2294.99,-786.5 2294.99,-786.5 2294.99,-890.5 2294.99,-890.5 2294.99,-896.5 2288.99,-902.5 2282.99,-902.5 2282.99,-902.5 2160.38,-902.5 2160.38,-902.5 2154.38,-902.5 2148.38,-896.5 2148.38,-890.5 2148.38,-890.5 2148.38,-786.5 2148.38,-786.5 2148.38,-780.5 2154.38,-774.5 2160.38,-774.5"/>
<text text-anchor="middle" x="2221.69" y="-887.3" font-family="Times,serif" font-size="14.00">UserPurchasedPackage</text>
<polyline fill="none" stroke="black" points="2148.38,-880.5 2294.99,-880.5 "/>
<text text-anchor="start" x="2156.38" y="-865.3" font-family="Times,serif" font-size="14.00">id :integer</text>
<text text-anchor="start" x="2156.38" y="-851.3" font-family="Times,serif" font-size="14.00">user_id :integer</text>
<text text-anchor="start" x="2156.38" y="-837.3" font-family="Times,serif" font-size="14.00">package_id :integer</text>
<text text-anchor="start" x="2156.38" y="-823.3" font-family="Times,serif" font-size="14.00">party_id :integer</text>
<text text-anchor="start" x="2156.38" y="-809.3" font-family="Times,serif" font-size="14.00">charge_id :string</text>
<text text-anchor="start" x="2156.38" y="-795.3" font-family="Times,serif" font-size="14.00">created_at :datetime</text>
<text text-anchor="start" x="2156.38" y="-781.3" font-family="Times,serif" font-size="14.00">updated_at :datetime</text>
</g>
<!-- User&#45;&gt;UserPurchasedPackage -->
<g id="edge60" class="edge"><title>User&#45;&gt;UserPurchasedPackage</title>
<path fill="none" stroke="#33a768" d="M1612.37,-1150.65C1739.89,-1096.07 1937.51,-1007.58 2101.69,-917 2114.13,-910.137 2127.01,-902.466 2139.51,-894.691"/>
<ellipse fill="none" stroke="#33a768" cx="1608.51" cy="-1152.3" rx="4.00002" ry="4.00002"/>
<polygon fill="#33a768" stroke="#33a768" points="2139.62,-894.618 2150.48,-893.111 2143.86,-891.959 2148.09,-889.3 2148.09,-889.3 2148.09,-889.3 2143.86,-891.959 2145.7,-885.489 2139.62,-894.618 2139.62,-894.618"/>
</g>
<!-- User&#45;&gt;Voucher -->
<g id="edge62" class="edge"><title>User&#45;&gt;Voucher</title>
<path fill="none" stroke="#d6787b" d="M1349.54,-1107.93C1272.9,-1056.45 1171.98,-997.73 1072.69,-967 1019.06,-950.401 871.375,-973.141 820.688,-949 739.954,-910.55 809.755,-828.004 751.688,-760 714.701,-716.684 680.17,-742.919 633.688,-710 561.543,-658.907 538.312,-642.52 499.688,-563 460.71,-482.752 480.923,-453.071 466.688,-365 453.316,-282.273 438.468,-186.888 428.877,-124.79"/>
<ellipse fill="none" stroke="#d6787b" cx="1353.1" cy="-1110.33" rx="4.00002" ry="4.00002"/>
<polygon fill="#d6787b" stroke="#d6787b" points="428.851,-124.619 431.773,-114.049 428.088,-119.677 427.326,-114.736 427.326,-114.736 427.326,-114.736 428.088,-119.677 422.878,-115.422 428.851,-124.619 428.851,-124.619"/>
</g>
<!-- UsersRole -->
<g id="node26" class="node"><title>UsersRole</title>
<ellipse fill="none" stroke="black" cx="1464.69" cy="-838.5" rx="46.8977" ry="18"/>
<text text-anchor="middle" x="1464.69" y="-834.3" font-family="Times,serif" font-size="14.00">UsersRole</text>
</g>
<!-- User&#45;&gt;UsersRole -->
<g id="edge45" class="edge"><title>User&#45;&gt;UsersRole</title>
<path fill="none" stroke="#c1ced5" d="M1469.91,-959.067C1468.29,-921.847 1466.84,-888.622 1465.88,-866.7"/>
<ellipse fill="none" stroke="#c1ced5" cx="1470.1" cy="-963.256" rx="4" ry="4"/>
<polygon fill="#c1ced5" stroke="#c1ced5" points="1465.87,-866.582 1469.93,-856.395 1465.65,-861.587 1465.43,-856.592 1465.43,-856.592 1465.43,-856.592 1465.65,-861.587 1460.94,-856.788 1465.87,-866.582 1465.87,-866.582"/>
</g>
<!-- UsersTenant -->
<g id="node27" class="node"><title>UsersTenant</title>
<ellipse fill="none" stroke="black" cx="1772.69" cy="-838.5" rx="54.3639" ry="18"/>
<text text-anchor="middle" x="1772.69" y="-834.3" font-family="Times,serif" font-size="14.00">UsersTenant</text>
</g>
<!-- User&#45;&gt;UsersTenant -->
<g id="edge46" class="edge"><title>User&#45;&gt;UsersTenant</title>
<path fill="none" stroke="#bfaa4c" d="M1610.5,-1065.12C1642.51,-1028.31 1675.86,-987.981 1704.69,-949 1725.04,-921.485 1745.34,-887.767 1758.39,-865.077"/>
<ellipse fill="none" stroke="#bfaa4c" cx="1607.59" cy="-1068.46" rx="4.00002" ry="4.00002"/>
<polygon fill="#bfaa4c" stroke="#bfaa4c" points="1758.4,-865.059 1767.26,-858.599 1760.88,-860.715 1763.35,-856.371 1763.35,-856.371 1763.35,-856.371 1760.88,-860.715 1759.44,-854.142 1758.4,-865.059 1758.4,-865.059"/>
</g>
<!-- Venue&#45;&gt;Address -->
<g id="edge73" class="edge"><title>Venue&#45;&gt;Address</title>
<path fill="none" stroke="#18fdd2" d="M1637.89,-458.14C1503.69,-444.317 1213.45,-411.609 971.688,-365 853.926,-342.297 719.845,-306.923 635.508,-283.485"/>
<ellipse fill="none" stroke="#18fdd2" cx="1642.13" cy="-458.575" rx="4" ry="4"/>
<ellipse fill="#18fdd2" stroke="#18fdd2" cx="631.61" cy="-282.399" rx="4.00001" ry="4.00001"/>
</g>
<!-- Venue&#45;&gt;Comment -->
<g id="edge67" class="edge"><title>Venue&#45;&gt;Comment</title>
<path fill="none" stroke="#2099ad" d="M1769.79,-396.772C1776.1,-391.583 1782.76,-386.872 1789.69,-383 1824.91,-363.309 1841.54,-380.776 1878.69,-365 1900.39,-355.785 1922.16,-343.236 1942.2,-330.008"/>
<ellipse fill="none" stroke="#2099ad" cx="1766.63" cy="-399.494" rx="4.00002" ry="4.00002"/>
<polygon fill="#2099ad" stroke="#2099ad" points="1942.38,-329.887 1953.19,-328.038 1946.53,-327.096 1950.68,-324.305 1950.68,-324.305 1950.68,-324.305 1946.53,-327.096 1948.17,-320.571 1942.38,-329.887 1942.38,-329.887"/>
</g>
<!-- Venue&#45;&gt;Favorite -->
<g id="edge69" class="edge"><title>Venue&#45;&gt;Favorite</title>
<path fill="none" stroke="#75aad3" d="M1638.18,-442.172C1514.48,-403.448 1267.6,-326.157 1138.2,-285.646"/>
<ellipse fill="none" stroke="#75aad3" cx="1642.16" cy="-443.419" rx="4.00001" ry="4.00001"/>
<polygon fill="#75aad3" stroke="#75aad3" points="1137.88,-285.544 1129.68,-278.262 1133.11,-284.05 1128.33,-282.556 1128.33,-282.556 1128.33,-282.556 1133.11,-284.05 1126.99,-286.851 1137.88,-285.544 1137.88,-285.544"/>
</g>
<!-- Venue&#45;&gt;Package -->
<g id="edge72" class="edge"><title>Venue&#45;&gt;Package</title>
<path fill="none" stroke="#495772" d="M1787.47,-459.725C1883.29,-450.092 2052.76,-425.428 2184.69,-365 2206.96,-354.799 2229.03,-340.517 2248.8,-325.749"/>
<ellipse fill="none" stroke="#495772" cx="1783.26" cy="-460.138" rx="4" ry="4"/>
<polygon fill="#495772" stroke="#495772" points="2248.88,-325.687 2259.57,-323.207 2252.86,-322.657 2256.84,-319.627 2256.84,-319.627 2256.84,-319.627 2252.86,-322.657 2254.11,-316.047 2248.88,-325.687 2248.88,-325.687"/>
</g>
<!-- Venue&#45;&gt;Party -->
<g id="edge68" class="edge"><title>Venue&#45;&gt;Party</title>
<path fill="none" stroke="#6505ab" d="M1754.39,-537.944C1761.95,-551.975 1769.42,-566.775 1775.69,-581 1809.52,-657.781 1822.18,-677.189 1835.69,-760 1887.35,-1076.66 1871.44,-1176.87 1760.69,-1478 1759.6,-1480.95 1758.43,-1483.91 1757.19,-1486.86"/>
<ellipse fill="none" stroke="#6505ab" cx="1752.35" cy="-534.196" rx="4.00002" ry="4.00002"/>
<polygon fill="#6505ab" stroke="#6505ab" points="1757.07,-1487.12 1748.87,-1494.41 1755.02,-1491.68 1752.98,-1496.25 1752.98,-1496.25 1752.98,-1496.25 1755.02,-1491.68 1757.09,-1498.09 1757.07,-1487.12 1757.07,-1487.12"/>
</g>
<!-- Venue&#45;&gt;Role -->
<g id="edge66" class="edge"><title>Venue&#45;&gt;Role</title>
<path fill="none" stroke="#bd5ab4" d="M1733.16,-394.718C1734.62,-390.727 1736.13,-386.797 1737.69,-383 1745.67,-363.544 1755.71,-343.084 1765.5,-324.537"/>
<ellipse fill="none" stroke="#bd5ab4" cx="1731.76" cy="-398.678" rx="4.00001" ry="4.00001"/>
<polygon fill="#bd5ab4" stroke="#bd5ab4" points="1765.56,-324.42 1774.24,-317.719 1767.92,-320.01 1770.27,-315.599 1770.27,-315.599 1770.27,-315.599 1767.92,-320.01 1766.3,-313.479 1765.56,-324.42 1765.56,-324.42"/>
</g>
<!-- Venue&#45;&gt;Sport -->
<g id="edge70" class="edge"><title>Venue&#45;&gt;Sport</title>
<path fill="none" stroke="#618138" d="M1637.98,-516.44C1617.38,-534.093 1597.64,-555.938 1586.47,-581 1558.45,-643.901 1567.61,-724.332 1579.29,-778.207"/>
<polygon fill="#618138" stroke="#618138" points="1638.2,-516.259 1648.77,-513.347 1642.05,-513.07 1645.9,-509.881 1645.9,-509.881 1645.9,-509.881 1642.05,-513.07 1643.03,-506.415 1638.2,-516.259 1638.2,-516.259"/>
<polygon fill="#618138" stroke="#618138" points="1579.36,-778.527 1577.17,-789.273 1580.46,-783.404 1581.56,-788.28 1581.56,-788.28 1581.56,-788.28 1580.46,-783.404 1585.95,-787.288 1579.36,-778.527 1579.36,-778.527"/>
<text text-anchor="middle" x="1631.79" y="-641.3" font-family="Times,serif" font-size="14.00">followed_sports</text>
</g>
<!-- Venue&#45;&gt;Team -->
<g id="edge71" class="edge"><title>Venue&#45;&gt;Team</title>
<path fill="none" stroke="#f01419" d="M1636.37,-490.081C1590.94,-504.63 1532.69,-525.238 1483.27,-549 1472.63,-554.117 1471.67,-558.658 1460.69,-563 1350.94,-606.397 1215.01,-627.65 1131.59,-637.314"/>
<polygon fill="#f01419" stroke="#f01419" points="1636.63,-490 1647.52,-491.267 1641.39,-488.489 1646.16,-486.977 1646.16,-486.977 1646.16,-486.977 1641.39,-488.489 1644.8,-482.688 1636.63,-490 1636.63,-490"/>
<polygon fill="#f01419" stroke="#f01419" points="1131.37,-637.339 1120.93,-633.992 1126.4,-637.901 1121.43,-638.463 1121.43,-638.463 1121.43,-638.463 1126.4,-637.901 1121.94,-642.935 1131.37,-637.339 1131.37,-637.339"/>
<text text-anchor="middle" x="1528.4" y="-551.8" font-family="Times,serif" font-size="14.00">followed_teams</text>
</g>
<!-- Object -->
<g id="node22" class="node"><title>Object</title>
<ellipse fill="none" stroke="black" cx="258.688" cy="-1768.5" rx="33.8596" ry="18"/>
<text text-anchor="middle" x="258.688" y="-1764.3" font-family="Times,serif" font-size="14.00">Object</text>
</g>
<!-- Object&#45;&gt;Ability -->
<g id="edge1" class="edge"><title>Object&#45;&gt;Ability</title>
<path fill="none" stroke="black" d="M258.688,-1750.48C258.688,-1719.05 258.688,-1652.01 258.688,-1617.69"/>
</g>
<!-- ActiveRecord::Base -->
<g id="node23" class="node"><title>ActiveRecord::Base</title>
<ellipse fill="none" stroke="black" cx="1902.69" cy="-1768.5" rx="81.1422" ry="18"/>
<text text-anchor="middle" x="1902.69" y="-1764.3" font-family="Times,serif" font-size="14.00">ActiveRecord::Base</text>
</g>
<!-- ActiveRecord::Base&#45;&gt;Address -->
<g id="edge2" class="edge"><title>ActiveRecord::Base&#45;&gt;Address</title>
<path fill="none" stroke="black" d="M1821.83,-1765.8C1536.16,-1759.48 588.748,-1735.51 538.688,-1695 344.884,-1538.16 352.951,-824.672 405.688,-581 422.739,-502.212 460.797,-419.536 493.78,-357.755"/>
</g>
<!-- ActiveRecord::Base&#45;&gt;Comment -->
<g id="edge4" class="edge"><title>ActiveRecord::Base&#45;&gt;Comment</title>
<path fill="none" stroke="black" d="M1918.6,-1750.61C1957.11,-1708.53 2055.16,-1594.05 2095.69,-1478 2170.83,-1262.83 1995.33,-1144.18 2138.69,-967 2186.89,-907.43 2258.03,-978.54 2303.69,-917 2440.4,-732.716 2235.52,-469.703 2112.78,-339.23"/>
</g>
<!-- ActiveRecord::Base&#45;&gt;Endorsement -->
<g id="edge5" class="edge"><title>ActiveRecord::Base&#45;&gt;Endorsement</title>
<path fill="none" stroke="black" d="M1823.59,-1764.24C1652.56,-1756.99 1235.58,-1738.24 886.688,-1714 725.515,-1702.8 542.688,-1758.06 542.688,-1596.5 542.688,-1596.5 542.688,-1596.5 542.688,-941 542.688,-858.98 537.886,-831.152 578.688,-760 644.309,-645.567 707.894,-656.757 800.688,-563 810.732,-552.852 821.026,-541.7 830.796,-530.709"/>
</g>
<!-- ActiveRecord::Base&#45;&gt;EndorsementRequest -->
<g id="edge6" class="edge"><title>ActiveRecord::Base&#45;&gt;EndorsementRequest</title>
<path fill="none" stroke="black" d="M1821.29,-1767.74C1512.35,-1768.25 427.196,-1766.31 376.688,-1714 227.323,-1559.31 471.65,-964.318 538.688,-760 567.037,-673.598 617.371,-580.941 651.136,-523.598"/>
</g>
<!-- ActiveRecord::Base&#45;&gt;Favorite -->
<g id="edge7" class="edge"><title>ActiveRecord::Base&#45;&gt;Favorite</title>
<path fill="none" stroke="black" d="M1821.29,-1767.33C1518.06,-1766.36 468.661,-1759.7 414.688,-1714 374.012,-1679.56 390.688,-1649.8 390.688,-1596.5 390.688,-1596.5 390.688,-1596.5 390.688,-941 390.688,-682.426 420.032,-577.759 609.688,-402 713.962,-305.367 884.013,-274.257 980.917,-264.246"/>
</g>
<!-- ActiveRecord::Base&#45;&gt;Package -->
<g id="edge11" class="edge"><title>ActiveRecord::Base&#45;&gt;Package</title>
<path fill="none" stroke="black" d="M1934.8,-1751.85C1951.62,-1744.42 1972.81,-1736.26 1992.69,-1732 2088.63,-1711.45 2361.5,-1762.53 2432.69,-1695 2467.22,-1662.25 2474.69,-1644.09 2474.69,-1596.5 2474.69,-1596.5 2474.69,-1596.5 2474.69,-465.5 2474.69,-404.307 2430.81,-349.226 2390.36,-311.45"/>
</g>
<!-- ActiveRecord::Base&#45;&gt;Party -->
<g id="edge20" class="edge"><title>ActiveRecord::Base&#45;&gt;Party</title>
<path fill="none" stroke="black" d="M1881.49,-1750.79C1853.76,-1728.94 1803.7,-1689.5 1761.14,-1655.96"/>
</g>
<!-- ActiveRecord::Base&#45;&gt;PartyInvitation -->
<g id="edge21" class="edge"><title>ActiveRecord::Base&#45;&gt;PartyInvitation</title>
<path fill="none" stroke="black" d="M1936.23,-1752.04C1952.89,-1744.94 1973.51,-1737.01 1992.69,-1732 2051.71,-1716.59 2224.57,-1740.95 2264.69,-1695 2317.89,-1634.07 2310.04,-1033.98 2264.69,-967 2231.14,-917.452 2192.52,-945.096 2139.69,-917 2123.84,-908.572 2107.49,-898.43 2092.3,-888.303"/>
</g>
<!-- ActiveRecord::Base&#45;&gt;PartyPackage -->
<g id="edge22" class="edge"><title>ActiveRecord::Base&#45;&gt;PartyPackage</title>
<path fill="none" stroke="black" d="M1934.79,-1751.82C1951.61,-1744.38 1972.81,-1736.22 1992.69,-1732 2176.76,-1692.94 2231.14,-1750.72 2415.69,-1714 2493.7,-1698.48 2550.69,-1676.04 2550.69,-1596.5 2550.69,-1596.5 2550.69,-1596.5 2550.69,-257.5 2550.69,-205.796 2538.16,-147.855 2527.49,-107.888"/>
</g>
<!-- ActiveRecord::Base&#45;&gt;PartyReservation -->
<g id="edge23" class="edge"><title>ActiveRecord::Base&#45;&gt;PartyReservation</title>
<path fill="none" stroke="black" d="M1834.97,-1758.42C1611.87,-1727.06 906.193,-1615.8 765.688,-1446 631.997,-1284.44 650.769,-1012.37 666.522,-895.551"/>
</g>
<!-- ActiveRecord::Base&#45;&gt;Role -->
<g id="edge26" class="edge"><title>ActiveRecord::Base&#45;&gt;Role</title>
<path fill="none" stroke="black" d="M1934.81,-1751.92C1951.64,-1744.51 1972.83,-1736.34 1992.69,-1732 2194.24,-1687.9 2436.69,-1802.82 2436.69,-1596.5 2436.69,-1596.5 2436.69,-1596.5 2436.69,-941 2436.69,-859.851 2452.14,-830.911 2412.69,-760 2395.85,-729.737 2024.88,-434.899 1869.84,-312.424"/>
</g>
<!-- ActiveRecord::Base&#45;&gt;Sport -->
<g id="edge31" class="edge"><title>ActiveRecord::Base&#45;&gt;Sport</title>
<path fill="none" stroke="black" d="M1903.97,-1750.36C1909.81,-1660.72 1926.84,-1239.52 1755.69,-967 1743.13,-946.997 1700.43,-913.365 1662.3,-885.664"/>
</g>
<!-- ActiveRecord::Base&#45;&gt;Team -->
<g id="edge41" class="edge"><title>ActiveRecord::Base&#45;&gt;Team</title>
<path fill="none" stroke="black" d="M1822.03,-1766.08C1586.48,-1761.38 910.731,-1743.74 824.688,-1695 707.436,-1628.59 698.224,-1572.47 651.688,-1446 625.29,-1374.26 547.876,-816.203 599.688,-760 616.387,-741.886 796.724,-747.722 820.688,-742 879.264,-728.014 942.291,-701.574 988.16,-680.055"/>
</g>
<!-- ActiveRecord::Base&#45;&gt;Tenant -->
<g id="edge44" class="edge"><title>ActiveRecord::Base&#45;&gt;Tenant</title>
<path fill="none" stroke="black" d="M1936.7,-1752.03C1953.3,-1745.01 1973.72,-1737.16 1992.69,-1732 2042.61,-1718.43 2063.89,-1741.54 2107.69,-1714 2130.97,-1699.36 2149.29,-1675.33 2162.58,-1652.8"/>
</g>
<!-- ActiveRecord::Base&#45;&gt;User -->
<g id="edge64" class="edge"><title>ActiveRecord::Base&#45;&gt;User</title>
<path fill="none" stroke="black" d="M1822.46,-1765.29C1757.19,-1759.76 1665.74,-1743.09 1601.69,-1695 1512.86,-1628.31 1506.2,-1585.36 1477.69,-1478 1474.89,-1467.45 1472.62,-1456.58 1470.81,-1445.54"/>
</g>
<!-- ActiveRecord::Base&#45;&gt;UserPurchasedPackage -->
<g id="edge65" class="edge"><title>ActiveRecord::Base&#45;&gt;UserPurchasedPackage</title>
<path fill="none" stroke="black" d="M1935.26,-1751.87C1952.03,-1744.55 1973.03,-1736.47 1992.69,-1732 2058.62,-1717.01 2254.65,-1749.48 2294.69,-1695 2358.87,-1607.66 2354.75,-1171.28 2296.69,-967 2290.37,-944.768 2279.22,-922.409 2267.43,-902.76"/>
</g>
<!-- ActiveRecord::Base&#45;&gt;Venue -->
<g id="edge74" class="edge"><title>ActiveRecord::Base&#45;&gt;Venue</title>
<path fill="none" stroke="black" d="M1935.24,-1751.79C1952.01,-1744.45 1973.01,-1736.38 1992.69,-1732 2066.23,-1715.64 2285.07,-1755.71 2329.69,-1695 2384.99,-1619.75 2351.74,-1196.92 2332.69,-967 2325.02,-874.419 2358.06,-835.326 2303.69,-760 2174.54,-581.074 1904.83,-505.766 1779.44,-479.476"/>
</g>
<!-- ActiveRecord::Base&#45;&gt;Voucher -->
<g id="edge75" class="edge"><title>ActiveRecord::Base&#45;&gt;Voucher</title>
<path fill="none" stroke="black" d="M1821.67,-1766.43C1525.87,-1762.26 514.131,-1745.82 372.688,-1714 351.906,-1709.32 341.616,-1711.93 328.688,-1695 301.851,-1659.86 314.688,-1640.72 314.688,-1596.5 314.688,-1596.5 314.688,-1596.5 314.688,-257.5 314.688,-204.874 343.609,-152.412 370.949,-114.576"/>
</g>
</g>
</svg>
